<svg width="200" height="200" viewBox="0 0 351 291" fill="none" xmlns="http://www.w3.org/2000/svg">
<rect x="5" y="5" width="341" height="281" fill="white" stroke="black" stroke-width="10"/>
<path d="M110.906 52.5L118.312 75.25L126.312 52.5H133.5V98H127.875V79.8438L128.344 60.8438L119.938 85.3438H116.625L108.906 61.5L109.375 79.8438V98H103.75V52.5H110.906ZM143 52.5H170.5V57.5312H159.594V93H170.5V98H143V93H153.656V57.5312H143V52.5ZM205.25 86.5C205.25 85.1042 204.927 83.9271 204.281 82.9688C203.656 82.0104 202.844 81.2083 201.844 80.5625C200.844 79.8958 199.74 79.3438 198.531 78.9062C197.344 78.4688 196.198 78.0729 195.094 77.7188C193.49 77.1979 191.854 76.5729 190.188 75.8438C188.542 75.1146 187.031 74.2188 185.656 73.1562C184.302 72.0938 183.188 70.8438 182.312 69.4062C181.458 67.9479 181.031 66.2396 181.031 64.2812C181.031 62.3229 181.458 60.5729 182.312 59.0312C183.188 57.4896 184.323 56.1875 185.719 55.125C187.115 54.0625 188.698 53.2604 190.469 52.7188C192.24 52.1562 194.021 51.875 195.812 51.875C197.792 51.875 199.698 52.2083 201.531 52.875C203.365 53.5208 204.99 54.4375 206.406 55.625C207.823 56.8125 208.958 58.25 209.812 59.9375C210.667 61.625 211.115 63.5104 211.156 65.5938H205.219C205.052 64.2812 204.729 63.0938 204.25 62.0312C203.771 60.9479 203.135 60.0208 202.344 59.25C201.552 58.4792 200.604 57.8854 199.5 57.4688C198.417 57.0312 197.188 56.8125 195.812 56.8125C194.708 56.8125 193.625 56.9688 192.562 57.2812C191.521 57.5938 190.583 58.0625 189.75 58.6875C188.938 59.3125 188.281 60.0833 187.781 61C187.302 61.9167 187.062 62.9792 187.062 64.1875C187.083 65.5 187.417 66.6146 188.062 67.5312C188.708 68.4271 189.521 69.1875 190.5 69.8125C191.5 70.4375 192.573 70.9583 193.719 71.375C194.885 71.7917 195.979 72.1562 197 72.4688C198.125 72.8229 199.26 73.2292 200.406 73.6875C201.552 74.125 202.656 74.6354 203.719 75.2188C204.781 75.8021 205.771 76.4583 206.688 77.1875C207.604 77.9167 208.406 78.75 209.094 79.6875C209.781 80.6042 210.312 81.625 210.688 82.75C211.083 83.8542 211.281 85.0833 211.281 86.4375C211.281 88.4792 210.823 90.2604 209.906 91.7812C209.01 93.3021 207.844 94.5729 206.406 95.5938C204.969 96.5938 203.344 97.3542 201.531 97.875C199.719 98.375 197.906 98.625 196.094 98.625C194.073 98.625 192.094 98.3125 190.156 97.6875C188.219 97.0625 186.479 96.1667 184.938 95C183.417 93.8125 182.177 92.375 181.219 90.6875C180.26 88.9792 179.75 87.0417 179.688 84.875H185.594C185.781 86.2917 186.167 87.5521 186.75 88.6562C187.333 89.7396 188.083 90.6667 189 91.4375C189.917 92.1875 190.969 92.7604 192.156 93.1562C193.365 93.5312 194.677 93.7188 196.094 93.7188C197.219 93.7188 198.323 93.5833 199.406 93.3125C200.51 93.0208 201.49 92.5833 202.344 92C203.198 91.3958 203.896 90.6458 204.438 89.75C204.979 88.8333 205.25 87.75 205.25 86.5ZM244.906 76.9688H225.906V93.0938H248.062V98H220.125V52.5H247.781V57.4375H225.906V72.0625H244.906V76.9688ZM168.031 151.969H149.031V168.094H171.188V173H143.25V127.5H170.906V132.438H149.031V147.062H168.031V151.969ZM209.938 173H204.062L186.406 139L186.312 173H180.469V127.5H186.344L204 161.438L204.094 127.5H209.938V173ZM66.0625 248V202.5H79.5938C81.4688 202.521 83.3021 202.771 85.0938 203.25C86.8854 203.708 88.4792 204.427 89.875 205.406C91.2708 206.385 92.3854 207.635 93.2188 209.156C94.0521 210.677 94.4583 212.5 94.4375 214.625C94.4167 215.812 94.2188 216.896 93.8438 217.875C93.4896 218.854 92.9896 219.74 92.3438 220.531C91.7188 221.302 90.9792 221.979 90.125 222.562C89.2708 223.146 88.3646 223.646 87.4062 224.062C88.6146 224.417 89.7188 224.927 90.7188 225.594C91.7396 226.24 92.6146 227.031 93.3438 227.969C94.0729 228.885 94.6354 229.927 95.0312 231.094C95.4479 232.26 95.6562 233.521 95.6562 234.875C95.6771 237 95.2708 238.875 94.4375 240.5C93.6042 242.125 92.4896 243.49 91.0938 244.594C89.6979 245.677 88.0833 246.51 86.25 247.094C84.4375 247.677 82.5625 247.979 80.625 248H66.0625ZM71.875 226.719V243.094H80.7812C81.9896 243.073 83.1354 242.875 84.2188 242.5C85.3021 242.104 86.2604 241.562 87.0938 240.875C87.9271 240.188 88.5833 239.344 89.0625 238.344C89.5625 237.344 89.8125 236.208 89.8125 234.938C89.8333 233.646 89.6146 232.5 89.1562 231.5C88.7188 230.5 88.1042 229.656 87.3125 228.969C86.5208 228.26 85.5938 227.719 84.5312 227.344C83.4688 226.969 82.3229 226.76 81.0938 226.719H71.875ZM71.875 221.906H79.9375C81.0208 221.885 82.0833 221.719 83.125 221.406C84.1667 221.073 85.0938 220.604 85.9062 220C86.7188 219.375 87.375 218.615 87.875 217.719C88.375 216.823 88.625 215.781 88.625 214.594C88.625 213.323 88.375 212.24 87.875 211.344C87.3958 210.448 86.7396 209.719 85.9062 209.156C85.0938 208.573 84.1458 208.146 83.0625 207.875C82 207.604 80.9062 207.458 79.7812 207.438H71.875V221.906ZM134.156 227.875C134.135 229.5 133.99 231.146 133.719 232.812C133.469 234.458 133.073 236.052 132.531 237.594C131.99 239.135 131.292 240.573 130.438 241.906C129.604 243.24 128.604 244.406 127.438 245.406C126.271 246.406 124.927 247.198 123.406 247.781C121.906 248.344 120.219 248.625 118.344 248.625C116.469 248.625 114.771 248.344 113.25 247.781C111.75 247.198 110.417 246.406 109.25 245.406C108.083 244.406 107.073 243.24 106.219 241.906C105.365 240.552 104.656 239.104 104.094 237.562C103.552 236.021 103.146 234.427 102.875 232.781C102.604 231.135 102.458 229.5 102.438 227.875V222.688C102.458 221.062 102.594 219.427 102.844 217.781C103.115 216.115 103.521 214.51 104.062 212.969C104.625 211.427 105.323 209.99 106.156 208.656C107.01 207.302 108.021 206.125 109.188 205.125C110.354 204.104 111.688 203.312 113.188 202.75C114.708 202.167 116.406 201.875 118.281 201.875C120.156 201.875 121.854 202.167 123.375 202.75C124.896 203.312 126.24 204.094 127.406 205.094C128.573 206.094 129.573 207.271 130.406 208.625C131.26 209.958 131.958 211.396 132.5 212.938C133.062 214.479 133.469 216.083 133.719 217.75C133.99 219.417 134.135 221.062 134.156 222.688V227.875ZM128.438 222.625C128.417 221.542 128.344 220.417 128.219 219.25C128.094 218.062 127.875 216.896 127.562 215.75C127.271 214.583 126.875 213.479 126.375 212.438C125.875 211.375 125.25 210.448 124.5 209.656C123.75 208.844 122.865 208.208 121.844 207.75C120.823 207.271 119.635 207.031 118.281 207.031C116.948 207.031 115.771 207.271 114.75 207.75C113.729 208.229 112.844 208.875 112.094 209.688C111.344 210.479 110.719 211.406 110.219 212.469C109.719 213.51 109.312 214.615 109 215.781C108.708 216.927 108.49 218.094 108.344 219.281C108.219 220.448 108.146 221.562 108.125 222.625V227.875C108.146 228.938 108.219 230.062 108.344 231.25C108.49 232.438 108.719 233.615 109.031 234.781C109.344 235.927 109.75 237.031 110.25 238.094C110.75 239.156 111.375 240.094 112.125 240.906C112.875 241.698 113.76 242.333 114.781 242.812C115.802 243.292 116.99 243.531 118.344 243.531C119.698 243.531 120.885 243.292 121.906 242.812C122.948 242.333 123.833 241.698 124.562 240.906C125.312 240.094 125.927 239.167 126.406 238.125C126.906 237.062 127.302 235.958 127.594 234.812C127.906 233.646 128.115 232.469 128.219 231.281C128.344 230.094 128.417 228.958 128.438 227.875V222.625ZM171.562 202.5L171.625 233.312C171.583 235.438 171.198 237.427 170.469 239.281C169.74 241.135 168.719 242.76 167.406 244.156C166.094 245.531 164.531 246.625 162.719 247.438C160.906 248.229 158.917 248.625 156.75 248.625C154.542 248.625 152.531 248.229 150.719 247.438C148.906 246.646 147.354 245.562 146.062 244.188C144.771 242.792 143.76 241.167 143.031 239.312C142.302 237.438 141.927 235.438 141.906 233.312L141.969 202.5H147.469L147.594 233.312C147.615 234.667 147.823 235.969 148.219 237.219C148.635 238.469 149.219 239.573 149.969 240.531C150.74 241.49 151.688 242.26 152.812 242.844C153.958 243.427 155.271 243.719 156.75 243.719C158.229 243.719 159.531 243.438 160.656 242.875C161.781 242.292 162.719 241.521 163.469 240.562C164.24 239.583 164.823 238.469 165.219 237.219C165.615 235.969 165.833 234.667 165.875 233.312L165.969 202.5H171.562ZM210.906 234.312C210.635 236.417 210.094 238.354 209.281 240.125C208.469 241.875 207.406 243.385 206.094 244.656C204.802 245.906 203.26 246.885 201.469 247.594C199.698 248.281 197.719 248.625 195.531 248.625C193.656 248.625 191.948 248.365 190.406 247.844C188.885 247.302 187.521 246.562 186.312 245.625C185.125 244.688 184.094 243.583 183.219 242.312C182.365 241.042 181.646 239.656 181.062 238.156C180.5 236.656 180.073 235.083 179.781 233.438C179.51 231.792 179.365 230.125 179.344 228.438V222.094C179.365 220.406 179.51 218.74 179.781 217.094C180.073 215.448 180.5 213.875 181.062 212.375C181.646 210.875 182.365 209.49 183.219 208.219C184.094 206.927 185.125 205.812 186.312 204.875C187.521 203.938 188.885 203.208 190.406 202.688C191.927 202.146 193.635 201.875 195.531 201.875C197.802 201.875 199.833 202.229 201.625 202.938C203.417 203.625 204.958 204.615 206.25 205.906C207.542 207.177 208.573 208.708 209.344 210.5C210.135 212.292 210.656 214.271 210.906 216.438H205.125C204.938 215.062 204.615 213.781 204.156 212.594C203.698 211.406 203.083 210.365 202.312 209.469C201.542 208.573 200.594 207.875 199.469 207.375C198.365 206.854 197.052 206.594 195.531 206.594C194.156 206.594 192.938 206.823 191.875 207.281C190.833 207.719 189.927 208.323 189.156 209.094C188.406 209.865 187.771 210.76 187.25 211.781C186.75 212.802 186.344 213.885 186.031 215.031C185.719 216.177 185.49 217.354 185.344 218.562C185.219 219.75 185.156 220.906 185.156 222.031V228.438C185.156 229.562 185.219 230.729 185.344 231.938C185.49 233.125 185.719 234.302 186.031 235.469C186.344 236.615 186.75 237.698 187.25 238.719C187.75 239.74 188.385 240.646 189.156 241.438C189.927 242.208 190.833 242.823 191.875 243.281C192.917 243.719 194.135 243.938 195.531 243.938C197.052 243.938 198.365 243.698 199.469 243.219C200.594 242.74 201.542 242.073 202.312 241.219C203.083 240.344 203.698 239.323 204.156 238.156C204.615 236.969 204.938 235.688 205.125 234.312H210.906ZM248.406 248H242.938V226.969H224.281V248H218.844V202.5H224.281V222.062H242.938V202.5H248.406V248ZM283.344 226.969H264.344V243.094H286.5V248H258.562V202.5H286.219V207.438H264.344V222.062H283.344V226.969Z" fill="black"/>
</svg>
