<svg width="200" height="200" viewBox="0 0 363 340" fill="none" xmlns="http://www.w3.org/2000/svg">
<path d="M360.5 170C360.5 262.356 280.516 337.5 181.5 337.5C82.4844 337.5 2.5 262.356 2.5 170C2.5 77.6439 82.4844 2.5 181.5 2.5C280.516 2.5 360.5 77.6439 360.5 170Z" fill="white" stroke="#B8DBB7" stroke-width="5"/>
<path d="M116.906 60.5L124.312 83.25L132.312 60.5H139.5V106H133.875V87.8438L134.344 68.8438L125.938 93.3438H122.625L114.906 69.5L115.375 87.8438V106H109.75V60.5H116.906ZM149 60.5H176.5V65.5312H165.594V101H176.5V106H149V101H159.656V65.5312H149V60.5ZM211.25 94.5C211.25 93.1042 210.927 91.9271 210.281 90.9688C209.656 90.0104 208.844 89.2083 207.844 88.5625C206.844 87.8958 205.74 87.3438 204.531 86.9062C203.344 86.4688 202.198 86.0729 201.094 85.7188C199.49 85.1979 197.854 84.5729 196.188 83.8438C194.542 83.1146 193.031 82.2188 191.656 81.1562C190.302 80.0938 189.188 78.8438 188.312 77.4062C187.458 75.9479 187.031 74.2396 187.031 72.2812C187.031 70.3229 187.458 68.5729 188.312 67.0312C189.188 65.4896 190.323 64.1875 191.719 63.125C193.115 62.0625 194.698 61.2604 196.469 60.7188C198.24 60.1562 200.021 59.875 201.812 59.875C203.792 59.875 205.698 60.2083 207.531 60.875C209.365 61.5208 210.99 62.4375 212.406 63.625C213.823 64.8125 214.958 66.25 215.812 67.9375C216.667 69.625 217.115 71.5104 217.156 73.5938H211.219C211.052 72.2812 210.729 71.0938 210.25 70.0312C209.771 68.9479 209.135 68.0208 208.344 67.25C207.552 66.4792 206.604 65.8854 205.5 65.4688C204.417 65.0312 203.188 64.8125 201.812 64.8125C200.708 64.8125 199.625 64.9688 198.562 65.2812C197.521 65.5938 196.583 66.0625 195.75 66.6875C194.938 67.3125 194.281 68.0833 193.781 69C193.302 69.9167 193.062 70.9792 193.062 72.1875C193.083 73.5 193.417 74.6146 194.062 75.5312C194.708 76.4271 195.521 77.1875 196.5 77.8125C197.5 78.4375 198.573 78.9583 199.719 79.375C200.885 79.7917 201.979 80.1562 203 80.4688C204.125 80.8229 205.26 81.2292 206.406 81.6875C207.552 82.125 208.656 82.6354 209.719 83.2188C210.781 83.8021 211.771 84.4583 212.688 85.1875C213.604 85.9167 214.406 86.75 215.094 87.6875C215.781 88.6042 216.312 89.625 216.688 90.75C217.083 91.8542 217.281 93.0833 217.281 94.4375C217.281 96.4792 216.823 98.2604 215.906 99.7812C215.01 101.302 213.844 102.573 212.406 103.594C210.969 104.594 209.344 105.354 207.531 105.875C205.719 106.375 203.906 106.625 202.094 106.625C200.073 106.625 198.094 106.312 196.156 105.688C194.219 105.062 192.479 104.167 190.938 103C189.417 101.812 188.177 100.375 187.219 98.6875C186.26 96.9792 185.75 95.0417 185.688 92.875H191.594C191.781 94.2917 192.167 95.5521 192.75 96.6562C193.333 97.7396 194.083 98.6667 195 99.4375C195.917 100.188 196.969 100.76 198.156 101.156C199.365 101.531 200.677 101.719 202.094 101.719C203.219 101.719 204.323 101.583 205.406 101.312C206.51 101.021 207.49 100.583 208.344 100C209.198 99.3958 209.896 98.6458 210.438 97.75C210.979 96.8333 211.25 95.75 211.25 94.5ZM250.906 84.9688H231.906V101.094H254.062V106H226.125V60.5H253.781V65.4375H231.906V80.0625H250.906V84.9688ZM174.031 159.969H155.031V176.094H177.188V181H149.25V135.5H176.906V140.438H155.031V155.062H174.031V159.969ZM215.938 181H210.062L192.406 147L192.312 181H186.469V135.5H192.344L210 169.438L210.094 135.5H215.938V181ZM72.0625 256V210.5H85.5938C87.4688 210.521 89.3021 210.771 91.0938 211.25C92.8854 211.708 94.4792 212.427 95.875 213.406C97.2708 214.385 98.3854 215.635 99.2188 217.156C100.052 218.677 100.458 220.5 100.438 222.625C100.417 223.812 100.219 224.896 99.8438 225.875C99.4896 226.854 98.9896 227.74 98.3438 228.531C97.7188 229.302 96.9792 229.979 96.125 230.562C95.2708 231.146 94.3646 231.646 93.4062 232.062C94.6146 232.417 95.7188 232.927 96.7188 233.594C97.7396 234.24 98.6146 235.031 99.3438 235.969C100.073 236.885 100.635 237.927 101.031 239.094C101.448 240.26 101.656 241.521 101.656 242.875C101.677 245 101.271 246.875 100.438 248.5C99.6042 250.125 98.4896 251.49 97.0938 252.594C95.6979 253.677 94.0833 254.51 92.25 255.094C90.4375 255.677 88.5625 255.979 86.625 256H72.0625ZM77.875 234.719V251.094H86.7812C87.9896 251.073 89.1354 250.875 90.2188 250.5C91.3021 250.104 92.2604 249.562 93.0938 248.875C93.9271 248.188 94.5833 247.344 95.0625 246.344C95.5625 245.344 95.8125 244.208 95.8125 242.938C95.8333 241.646 95.6146 240.5 95.1562 239.5C94.7188 238.5 94.1042 237.656 93.3125 236.969C92.5208 236.26 91.5938 235.719 90.5312 235.344C89.4688 234.969 88.3229 234.76 87.0938 234.719H77.875ZM77.875 229.906H85.9375C87.0208 229.885 88.0833 229.719 89.125 229.406C90.1667 229.073 91.0938 228.604 91.9062 228C92.7188 227.375 93.375 226.615 93.875 225.719C94.375 224.823 94.625 223.781 94.625 222.594C94.625 221.323 94.375 220.24 93.875 219.344C93.3958 218.448 92.7396 217.719 91.9062 217.156C91.0938 216.573 90.1458 216.146 89.0625 215.875C88 215.604 86.9062 215.458 85.7812 215.438H77.875V229.906ZM140.156 235.875C140.135 237.5 139.99 239.146 139.719 240.812C139.469 242.458 139.073 244.052 138.531 245.594C137.99 247.135 137.292 248.573 136.438 249.906C135.604 251.24 134.604 252.406 133.438 253.406C132.271 254.406 130.927 255.198 129.406 255.781C127.906 256.344 126.219 256.625 124.344 256.625C122.469 256.625 120.771 256.344 119.25 255.781C117.75 255.198 116.417 254.406 115.25 253.406C114.083 252.406 113.073 251.24 112.219 249.906C111.365 248.552 110.656 247.104 110.094 245.562C109.552 244.021 109.146 242.427 108.875 240.781C108.604 239.135 108.458 237.5 108.438 235.875V230.688C108.458 229.062 108.594 227.427 108.844 225.781C109.115 224.115 109.521 222.51 110.062 220.969C110.625 219.427 111.323 217.99 112.156 216.656C113.01 215.302 114.021 214.125 115.188 213.125C116.354 212.104 117.688 211.312 119.188 210.75C120.708 210.167 122.406 209.875 124.281 209.875C126.156 209.875 127.854 210.167 129.375 210.75C130.896 211.312 132.24 212.094 133.406 213.094C134.573 214.094 135.573 215.271 136.406 216.625C137.26 217.958 137.958 219.396 138.5 220.938C139.062 222.479 139.469 224.083 139.719 225.75C139.99 227.417 140.135 229.062 140.156 230.688V235.875ZM134.438 230.625C134.417 229.542 134.344 228.417 134.219 227.25C134.094 226.062 133.875 224.896 133.562 223.75C133.271 222.583 132.875 221.479 132.375 220.438C131.875 219.375 131.25 218.448 130.5 217.656C129.75 216.844 128.865 216.208 127.844 215.75C126.823 215.271 125.635 215.031 124.281 215.031C122.948 215.031 121.771 215.271 120.75 215.75C119.729 216.229 118.844 216.875 118.094 217.688C117.344 218.479 116.719 219.406 116.219 220.469C115.719 221.51 115.312 222.615 115 223.781C114.708 224.927 114.49 226.094 114.344 227.281C114.219 228.448 114.146 229.562 114.125 230.625V235.875C114.146 236.938 114.219 238.062 114.344 239.25C114.49 240.438 114.719 241.615 115.031 242.781C115.344 243.927 115.75 245.031 116.25 246.094C116.75 247.156 117.375 248.094 118.125 248.906C118.875 249.698 119.76 250.333 120.781 250.812C121.802 251.292 122.99 251.531 124.344 251.531C125.698 251.531 126.885 251.292 127.906 250.812C128.948 250.333 129.833 249.698 130.562 248.906C131.312 248.094 131.927 247.167 132.406 246.125C132.906 245.062 133.302 243.958 133.594 242.812C133.906 241.646 134.115 240.469 134.219 239.281C134.344 238.094 134.417 236.958 134.438 235.875V230.625ZM177.562 210.5L177.625 241.312C177.583 243.438 177.198 245.427 176.469 247.281C175.74 249.135 174.719 250.76 173.406 252.156C172.094 253.531 170.531 254.625 168.719 255.438C166.906 256.229 164.917 256.625 162.75 256.625C160.542 256.625 158.531 256.229 156.719 255.438C154.906 254.646 153.354 253.562 152.062 252.188C150.771 250.792 149.76 249.167 149.031 247.312C148.302 245.438 147.927 243.438 147.906 241.312L147.969 210.5H153.469L153.594 241.312C153.615 242.667 153.823 243.969 154.219 245.219C154.635 246.469 155.219 247.573 155.969 248.531C156.74 249.49 157.688 250.26 158.812 250.844C159.958 251.427 161.271 251.719 162.75 251.719C164.229 251.719 165.531 251.438 166.656 250.875C167.781 250.292 168.719 249.521 169.469 248.562C170.24 247.583 170.823 246.469 171.219 245.219C171.615 243.969 171.833 242.667 171.875 241.312L171.969 210.5H177.562ZM216.906 242.312C216.635 244.417 216.094 246.354 215.281 248.125C214.469 249.875 213.406 251.385 212.094 252.656C210.802 253.906 209.26 254.885 207.469 255.594C205.698 256.281 203.719 256.625 201.531 256.625C199.656 256.625 197.948 256.365 196.406 255.844C194.885 255.302 193.521 254.562 192.312 253.625C191.125 252.688 190.094 251.583 189.219 250.312C188.365 249.042 187.646 247.656 187.062 246.156C186.5 244.656 186.073 243.083 185.781 241.438C185.51 239.792 185.365 238.125 185.344 236.438V230.094C185.365 228.406 185.51 226.74 185.781 225.094C186.073 223.448 186.5 221.875 187.062 220.375C187.646 218.875 188.365 217.49 189.219 216.219C190.094 214.927 191.125 213.812 192.312 212.875C193.521 211.938 194.885 211.208 196.406 210.688C197.927 210.146 199.635 209.875 201.531 209.875C203.802 209.875 205.833 210.229 207.625 210.938C209.417 211.625 210.958 212.615 212.25 213.906C213.542 215.177 214.573 216.708 215.344 218.5C216.135 220.292 216.656 222.271 216.906 224.438H211.125C210.938 223.062 210.615 221.781 210.156 220.594C209.698 219.406 209.083 218.365 208.312 217.469C207.542 216.573 206.594 215.875 205.469 215.375C204.365 214.854 203.052 214.594 201.531 214.594C200.156 214.594 198.938 214.823 197.875 215.281C196.833 215.719 195.927 216.323 195.156 217.094C194.406 217.865 193.771 218.76 193.25 219.781C192.75 220.802 192.344 221.885 192.031 223.031C191.719 224.177 191.49 225.354 191.344 226.562C191.219 227.75 191.156 228.906 191.156 230.031V236.438C191.156 237.562 191.219 238.729 191.344 239.938C191.49 241.125 191.719 242.302 192.031 243.469C192.344 244.615 192.75 245.698 193.25 246.719C193.75 247.74 194.385 248.646 195.156 249.438C195.927 250.208 196.833 250.823 197.875 251.281C198.917 251.719 200.135 251.938 201.531 251.938C203.052 251.938 204.365 251.698 205.469 251.219C206.594 250.74 207.542 250.073 208.312 249.219C209.083 248.344 209.698 247.323 210.156 246.156C210.615 244.969 210.938 243.688 211.125 242.312H216.906ZM254.406 256H248.938V234.969H230.281V256H224.844V210.5H230.281V230.062H248.938V210.5H254.406V256ZM289.344 234.969H270.344V251.094H292.5V256H264.562V210.5H292.219V215.438H270.344V230.062H289.344V234.969Z" fill="#B8DBB7"/>
</svg>
