<svg width="200" height="200" viewBox="0 0 363 340" fill="none" xmlns="http://www.w3.org/2000/svg">
<path d="M360.5 170C360.5 262.356 280.516 337.5 181.5 337.5C82.4844 337.5 2.5 262.356 2.5 170C2.5 77.6439 82.4844 2.5 181.5 2.5C280.516 2.5 360.5 77.6439 360.5 170Z" fill="white" stroke="#B8DBB7" stroke-width="5"/>
<path d="M155.531 132.094H177.781V137H149.75V91.5H155.531V132.094ZM212.469 115.969H193.469V132.094H215.625V137H187.688V91.5H215.344V96.4375H193.469V111.062H212.469V115.969ZM78.4375 193.75V212H72.6562V166.5H87.4062C89.4479 166.542 91.375 166.865 93.1875 167.469C95.0208 168.073 96.625 168.948 98 170.094C99.375 171.24 100.458 172.656 101.25 174.344C102.062 176.031 102.469 177.969 102.469 180.156C102.469 182.344 102.062 184.281 101.25 185.969C100.458 187.635 99.375 189.042 98 190.188C96.625 191.333 95.0208 192.208 93.1875 192.812C91.375 193.417 89.4479 193.729 87.4062 193.75H78.4375ZM78.4375 189H87.4062C88.7396 188.979 89.9688 188.771 91.0938 188.375C92.2188 187.958 93.1979 187.375 94.0312 186.625C94.8646 185.875 95.5104 184.969 95.9688 183.906C96.4479 182.823 96.6875 181.594 96.6875 180.219C96.6875 178.844 96.4479 177.604 95.9688 176.5C95.5104 175.396 94.8646 174.458 94.0312 173.688C93.2188 172.917 92.2396 172.323 91.0938 171.906C89.9688 171.49 88.7396 171.271 87.4062 171.25H78.4375V189ZM125.625 193.438H116.531V212H110.781V166.5H124.125C126.25 166.542 128.25 166.844 130.125 167.406C132 167.969 133.635 168.812 135.031 169.938C136.448 171.062 137.552 172.479 138.344 174.188C139.156 175.875 139.562 177.865 139.562 180.156C139.562 181.635 139.344 182.99 138.906 184.219C138.49 185.448 137.906 186.562 137.156 187.562C136.406 188.562 135.51 189.448 134.469 190.219C133.427 190.99 132.281 191.646 131.031 192.188L140.688 211.625L140.656 212H134.562L125.625 193.438ZM116.531 188.688H124.281C125.573 188.667 126.792 188.469 127.938 188.094C129.083 187.698 130.083 187.135 130.938 186.406C131.812 185.677 132.5 184.792 133 183.75C133.5 182.688 133.75 181.469 133.75 180.094C133.75 178.635 133.51 177.365 133.031 176.281C132.552 175.177 131.885 174.26 131.031 173.531C130.177 172.781 129.156 172.219 127.969 171.844C126.802 171.469 125.521 171.271 124.125 171.25H116.531V188.688ZM178.594 191.875C178.573 193.5 178.427 195.146 178.156 196.812C177.906 198.458 177.51 200.052 176.969 201.594C176.427 203.135 175.729 204.573 174.875 205.906C174.042 207.24 173.042 208.406 171.875 209.406C170.708 210.406 169.365 211.198 167.844 211.781C166.344 212.344 164.656 212.625 162.781 212.625C160.906 212.625 159.208 212.344 157.688 211.781C156.188 211.198 154.854 210.406 153.688 209.406C152.521 208.406 151.51 207.24 150.656 205.906C149.802 204.552 149.094 203.104 148.531 201.562C147.99 200.021 147.583 198.427 147.312 196.781C147.042 195.135 146.896 193.5 146.875 191.875V186.688C146.896 185.062 147.031 183.427 147.281 181.781C147.552 180.115 147.958 178.51 148.5 176.969C149.062 175.427 149.76 173.99 150.594 172.656C151.448 171.302 152.458 170.125 153.625 169.125C154.792 168.104 156.125 167.312 157.625 166.75C159.146 166.167 160.844 165.875 162.719 165.875C164.594 165.875 166.292 166.167 167.812 166.75C169.333 167.312 170.677 168.094 171.844 169.094C173.01 170.094 174.01 171.271 174.844 172.625C175.698 173.958 176.396 175.396 176.938 176.938C177.5 178.479 177.906 180.083 178.156 181.75C178.427 183.417 178.573 185.062 178.594 186.688V191.875ZM172.875 186.625C172.854 185.542 172.781 184.417 172.656 183.25C172.531 182.062 172.312 180.896 172 179.75C171.708 178.583 171.312 177.479 170.812 176.438C170.312 175.375 169.688 174.448 168.938 173.656C168.188 172.844 167.302 172.208 166.281 171.75C165.26 171.271 164.073 171.031 162.719 171.031C161.385 171.031 160.208 171.271 159.188 171.75C158.167 172.229 157.281 172.875 156.531 173.688C155.781 174.479 155.156 175.406 154.656 176.469C154.156 177.51 153.75 178.615 153.438 179.781C153.146 180.927 152.927 182.094 152.781 183.281C152.656 184.448 152.583 185.562 152.562 186.625V191.875C152.583 192.938 152.656 194.062 152.781 195.25C152.927 196.438 153.156 197.615 153.469 198.781C153.781 199.927 154.188 201.031 154.688 202.094C155.188 203.156 155.812 204.094 156.562 204.906C157.312 205.698 158.198 206.333 159.219 206.812C160.24 207.292 161.427 207.531 162.781 207.531C164.135 207.531 165.323 207.292 166.344 206.812C167.385 206.333 168.271 205.698 169 204.906C169.75 204.094 170.365 203.167 170.844 202.125C171.344 201.062 171.74 199.958 172.031 198.812C172.344 197.646 172.552 196.469 172.656 195.281C172.781 194.094 172.854 192.958 172.875 191.875V186.625ZM208.781 166.5H214.688V198.156C214.646 200.26 214.24 202.198 213.469 203.969C212.719 205.74 211.688 207.271 210.375 208.562C209.062 209.833 207.51 210.833 205.719 211.562C203.948 212.271 202.01 212.625 199.906 212.625C197.781 212.625 195.844 212.302 194.094 211.656C192.365 211.01 190.854 210.094 189.562 208.906C188.292 207.698 187.271 206.25 186.5 204.562C185.729 202.854 185.25 200.948 185.062 198.844H190.938C191 200.115 191.25 201.292 191.688 202.375C192.146 203.458 192.76 204.406 193.531 205.219C194.302 206.01 195.219 206.625 196.281 207.062C197.365 207.5 198.573 207.719 199.906 207.719C201.281 207.719 202.51 207.469 203.594 206.969C204.677 206.448 205.594 205.75 206.344 204.875C207.115 204 207.698 202.99 208.094 201.844C208.51 200.677 208.74 199.448 208.781 198.156V166.5ZM250.906 190.969H231.906V207.094H254.062V212H226.125V166.5H253.781V171.438H231.906V186.062H250.906V190.969ZM295 171.438H280.938V212H275.312V171.438H261.25V166.5H295V171.438Z" fill="#B8DBB7"/>
</svg>
