<svg width="200" height="200" viewBox="0 0 351 291" fill="none" xmlns="http://www.w3.org/2000/svg">
<rect x="5" y="5" width="341" height="281" fill="white" stroke="black" stroke-width="10"/>
<path d="M149.531 117.094H171.781V122H143.75V76.5H149.531V117.094ZM206.469 100.969H187.469V117.094H209.625V122H181.688V76.5H209.344V81.4375H187.469V96.0625H206.469V100.969ZM72.4375 178.75V197H66.6562V151.5H81.4062C83.4479 151.542 85.375 151.865 87.1875 152.469C89.0208 153.073 90.625 153.948 92 155.094C93.375 156.24 94.4583 157.656 95.25 159.344C96.0625 161.031 96.4688 162.969 96.4688 165.156C96.4688 167.344 96.0625 169.281 95.25 170.969C94.4583 172.635 93.375 174.042 92 175.188C90.625 176.333 89.0208 177.208 87.1875 177.812C85.375 178.417 83.4479 178.729 81.4062 178.75H72.4375ZM72.4375 174H81.4062C82.7396 173.979 83.9688 173.771 85.0938 173.375C86.2188 172.958 87.1979 172.375 88.0312 171.625C88.8646 170.875 89.5104 169.969 89.9688 168.906C90.4479 167.823 90.6875 166.594 90.6875 165.219C90.6875 163.844 90.4479 162.604 89.9688 161.5C89.5104 160.396 88.8646 159.458 88.0312 158.688C87.2188 157.917 86.2396 157.323 85.0938 156.906C83.9688 156.49 82.7396 156.271 81.4062 156.25H72.4375V174ZM119.625 178.438H110.531V197H104.781V151.5H118.125C120.25 151.542 122.25 151.844 124.125 152.406C126 152.969 127.635 153.812 129.031 154.938C130.448 156.062 131.552 157.479 132.344 159.188C133.156 160.875 133.562 162.865 133.562 165.156C133.562 166.635 133.344 167.99 132.906 169.219C132.49 170.448 131.906 171.562 131.156 172.562C130.406 173.562 129.51 174.448 128.469 175.219C127.427 175.99 126.281 176.646 125.031 177.188L134.688 196.625L134.656 197H128.562L119.625 178.438ZM110.531 173.688H118.281C119.573 173.667 120.792 173.469 121.938 173.094C123.083 172.698 124.083 172.135 124.938 171.406C125.812 170.677 126.5 169.792 127 168.75C127.5 167.688 127.75 166.469 127.75 165.094C127.75 163.635 127.51 162.365 127.031 161.281C126.552 160.177 125.885 159.26 125.031 158.531C124.177 157.781 123.156 157.219 121.969 156.844C120.802 156.469 119.521 156.271 118.125 156.25H110.531V173.688ZM172.594 176.875C172.573 178.5 172.427 180.146 172.156 181.812C171.906 183.458 171.51 185.052 170.969 186.594C170.427 188.135 169.729 189.573 168.875 190.906C168.042 192.24 167.042 193.406 165.875 194.406C164.708 195.406 163.365 196.198 161.844 196.781C160.344 197.344 158.656 197.625 156.781 197.625C154.906 197.625 153.208 197.344 151.688 196.781C150.188 196.198 148.854 195.406 147.688 194.406C146.521 193.406 145.51 192.24 144.656 190.906C143.802 189.552 143.094 188.104 142.531 186.562C141.99 185.021 141.583 183.427 141.312 181.781C141.042 180.135 140.896 178.5 140.875 176.875V171.688C140.896 170.062 141.031 168.427 141.281 166.781C141.552 165.115 141.958 163.51 142.5 161.969C143.062 160.427 143.76 158.99 144.594 157.656C145.448 156.302 146.458 155.125 147.625 154.125C148.792 153.104 150.125 152.312 151.625 151.75C153.146 151.167 154.844 150.875 156.719 150.875C158.594 150.875 160.292 151.167 161.812 151.75C163.333 152.312 164.677 153.094 165.844 154.094C167.01 155.094 168.01 156.271 168.844 157.625C169.698 158.958 170.396 160.396 170.938 161.938C171.5 163.479 171.906 165.083 172.156 166.75C172.427 168.417 172.573 170.062 172.594 171.688V176.875ZM166.875 171.625C166.854 170.542 166.781 169.417 166.656 168.25C166.531 167.062 166.312 165.896 166 164.75C165.708 163.583 165.312 162.479 164.812 161.438C164.312 160.375 163.688 159.448 162.938 158.656C162.188 157.844 161.302 157.208 160.281 156.75C159.26 156.271 158.073 156.031 156.719 156.031C155.385 156.031 154.208 156.271 153.188 156.75C152.167 157.229 151.281 157.875 150.531 158.688C149.781 159.479 149.156 160.406 148.656 161.469C148.156 162.51 147.75 163.615 147.438 164.781C147.146 165.927 146.927 167.094 146.781 168.281C146.656 169.448 146.583 170.562 146.562 171.625V176.875C146.583 177.938 146.656 179.062 146.781 180.25C146.927 181.438 147.156 182.615 147.469 183.781C147.781 184.927 148.188 186.031 148.688 187.094C149.188 188.156 149.812 189.094 150.562 189.906C151.312 190.698 152.198 191.333 153.219 191.812C154.24 192.292 155.427 192.531 156.781 192.531C158.135 192.531 159.323 192.292 160.344 191.812C161.385 191.333 162.271 190.698 163 189.906C163.75 189.094 164.365 188.167 164.844 187.125C165.344 186.062 165.74 184.958 166.031 183.812C166.344 182.646 166.552 181.469 166.656 180.281C166.781 179.094 166.854 177.958 166.875 176.875V171.625ZM202.781 151.5H208.688V183.156C208.646 185.26 208.24 187.198 207.469 188.969C206.719 190.74 205.688 192.271 204.375 193.562C203.062 194.833 201.51 195.833 199.719 196.562C197.948 197.271 196.01 197.625 193.906 197.625C191.781 197.625 189.844 197.302 188.094 196.656C186.365 196.01 184.854 195.094 183.562 193.906C182.292 192.698 181.271 191.25 180.5 189.562C179.729 187.854 179.25 185.948 179.062 183.844H184.938C185 185.115 185.25 186.292 185.688 187.375C186.146 188.458 186.76 189.406 187.531 190.219C188.302 191.01 189.219 191.625 190.281 192.062C191.365 192.5 192.573 192.719 193.906 192.719C195.281 192.719 196.51 192.469 197.594 191.969C198.677 191.448 199.594 190.75 200.344 189.875C201.115 189 201.698 187.99 202.094 186.844C202.51 185.677 202.74 184.448 202.781 183.156V151.5ZM244.906 175.969H225.906V192.094H248.062V197H220.125V151.5H247.781V156.438H225.906V171.062H244.906V175.969ZM289 156.438H274.938V197H269.312V156.438H255.25V151.5H289V156.438Z" fill="black"/>
</svg>
