<svg width="200" height="200" viewBox="0 0 363 340" fill="none" xmlns="http://www.w3.org/2000/svg">
<path d="M360.5 170C360.5 262.356 280.516 337.5 181.5 337.5C82.4844 337.5 2.5 262.356 2.5 170C2.5 77.6439 82.4844 2.5 181.5 2.5C280.516 2.5 360.5 77.6439 360.5 170Z" fill="white" stroke="#B8DBB7" stroke-width="5"/>
<path d="M85.375 110.312C85.1042 112.417 84.5625 114.354 83.75 116.125C82.9375 117.875 81.875 119.385 80.5625 120.656C79.2708 121.906 77.7292 122.885 75.9375 123.594C74.1667 124.281 72.1875 124.625 70 124.625C68.125 124.625 66.4167 124.365 64.875 123.844C63.3542 123.302 61.9896 122.562 60.7812 121.625C59.5938 120.688 58.5625 119.583 57.6875 118.312C56.8333 117.042 56.1146 115.656 55.5312 114.156C54.9688 112.656 54.5417 111.083 54.25 109.438C53.9792 107.792 53.8333 106.125 53.8125 104.438V98.0938C53.8333 96.4062 53.9792 94.7396 54.25 93.0938C54.5417 91.4479 54.9688 89.875 55.5312 88.375C56.1146 86.875 56.8333 85.4896 57.6875 84.2188C58.5625 82.9271 59.5938 81.8125 60.7812 80.875C61.9896 79.9375 63.3542 79.2083 64.875 78.6875C66.3958 78.1458 68.1042 77.875 70 77.875C72.2708 77.875 74.3021 78.2292 76.0938 78.9375C77.8854 79.625 79.4271 80.6146 80.7188 81.9062C82.0104 83.1771 83.0417 84.7083 83.8125 86.5C84.6042 88.2917 85.125 90.2708 85.375 92.4375H79.5938C79.4062 91.0625 79.0833 89.7812 78.625 88.5938C78.1667 87.4062 77.5521 86.3646 76.7812 85.4688C76.0104 84.5729 75.0625 83.875 73.9375 83.375C72.8333 82.8542 71.5208 82.5938 70 82.5938C68.625 82.5938 67.4062 82.8229 66.3438 83.2812C65.3021 83.7188 64.3958 84.3229 63.625 85.0938C62.875 85.8646 62.2396 86.7604 61.7188 87.7812C61.2188 88.8021 60.8125 89.8854 60.5 91.0312C60.1875 92.1771 59.9583 93.3542 59.8125 94.5625C59.6875 95.75 59.625 96.9062 59.625 98.0312V104.438C59.625 105.562 59.6875 106.729 59.8125 107.938C59.9583 109.125 60.1875 110.302 60.5 111.469C60.8125 112.615 61.2188 113.698 61.7188 114.719C62.2188 115.74 62.8542 116.646 63.625 117.438C64.3958 118.208 65.3021 118.823 66.3438 119.281C67.3854 119.719 68.6042 119.938 70 119.938C71.5208 119.938 72.8333 119.698 73.9375 119.219C75.0625 118.74 76.0104 118.073 76.7812 117.219C77.5521 116.344 78.1667 115.323 78.625 114.156C79.0833 112.969 79.4062 111.688 79.5938 110.312H85.375ZM123.938 103.875C123.917 105.5 123.771 107.146 123.5 108.812C123.25 110.458 122.854 112.052 122.312 113.594C121.771 115.135 121.073 116.573 120.219 117.906C119.385 119.24 118.385 120.406 117.219 121.406C116.052 122.406 114.708 123.198 113.188 123.781C111.688 124.344 110 124.625 108.125 124.625C106.25 124.625 104.552 124.344 103.031 123.781C101.531 123.198 100.198 122.406 99.0312 121.406C97.8646 120.406 96.8542 119.24 96 117.906C95.1458 116.552 94.4375 115.104 93.875 113.562C93.3333 112.021 92.9271 110.427 92.6562 108.781C92.3854 107.135 92.2396 105.5 92.2188 103.875V98.6875C92.2396 97.0625 92.375 95.4271 92.625 93.7812C92.8958 92.1146 93.3021 90.5104 93.8438 88.9688C94.4062 87.4271 95.1042 85.9896 95.9375 84.6562C96.7917 83.3021 97.8021 82.125 98.9688 81.125C100.135 80.1042 101.469 79.3125 102.969 78.75C104.49 78.1667 106.188 77.875 108.062 77.875C109.938 77.875 111.635 78.1667 113.156 78.75C114.677 79.3125 116.021 80.0938 117.188 81.0938C118.354 82.0938 119.354 83.2708 120.188 84.625C121.042 85.9583 121.74 87.3958 122.281 88.9375C122.844 90.4792 123.25 92.0833 123.5 93.75C123.771 95.4167 123.917 97.0625 123.938 98.6875V103.875ZM118.219 98.625C118.198 97.5417 118.125 96.4167 118 95.25C117.875 94.0625 117.656 92.8958 117.344 91.75C117.052 90.5833 116.656 89.4792 116.156 88.4375C115.656 87.375 115.031 86.4479 114.281 85.6562C113.531 84.8438 112.646 84.2083 111.625 83.75C110.604 83.2708 109.417 83.0312 108.062 83.0312C106.729 83.0312 105.552 83.2708 104.531 83.75C103.51 84.2292 102.625 84.875 101.875 85.6875C101.125 86.4792 100.5 87.4062 100 88.4688C99.5 89.5104 99.0938 90.6146 98.7812 91.7812C98.4896 92.9271 98.2708 94.0938 98.125 95.2812C98 96.4479 97.9271 97.5625 97.9062 98.625V103.875C97.9271 104.938 98 106.062 98.125 107.25C98.2708 108.438 98.5 109.615 98.8125 110.781C99.125 111.927 99.5312 113.031 100.031 114.094C100.531 115.156 101.156 116.094 101.906 116.906C102.656 117.698 103.542 118.333 104.562 118.812C105.583 119.292 106.771 119.531 108.125 119.531C109.479 119.531 110.667 119.292 111.688 118.812C112.729 118.333 113.615 117.698 114.344 116.906C115.094 116.094 115.708 115.167 116.188 114.125C116.688 113.062 117.083 111.958 117.375 110.812C117.688 109.646 117.896 108.469 118 107.281C118.125 106.094 118.198 104.958 118.219 103.875V98.625ZM139.125 78.5L146.531 101.25L154.531 78.5H161.719V124H156.094V105.844L156.562 86.8438L148.156 111.344H144.844L137.125 87.5L137.594 105.844V124H131.969V78.5H139.125ZM177.562 78.5L184.969 101.25L192.969 78.5H200.156V124H194.531V105.844L195 86.8438L186.594 111.344H183.281L175.562 87.5L176.031 105.844V124H170.406V78.5H177.562ZM234.688 102.969H215.688V119.094H237.844V124H209.906V78.5H237.562V83.4375H215.688V98.0625H234.688V102.969ZM276.594 124H270.719L253.062 90L252.969 124H247.125V78.5H253L270.656 112.438L270.75 78.5H276.594V124ZM317.219 83.4375H303.156V124H297.531V83.4375H283.469V78.5H317.219V83.4375ZM162.25 185.312C161.979 187.417 161.438 189.354 160.625 191.125C159.812 192.875 158.75 194.385 157.438 195.656C156.146 196.906 154.604 197.885 152.812 198.594C151.042 199.281 149.062 199.625 146.875 199.625C145 199.625 143.292 199.365 141.75 198.844C140.229 198.302 138.865 197.562 137.656 196.625C136.469 195.688 135.438 194.583 134.562 193.312C133.708 192.042 132.99 190.656 132.406 189.156C131.844 187.656 131.417 186.083 131.125 184.438C130.854 182.792 130.708 181.125 130.688 179.438V173.094C130.708 171.406 130.854 169.74 131.125 168.094C131.417 166.448 131.844 164.875 132.406 163.375C132.99 161.875 133.708 160.49 134.562 159.219C135.438 157.927 136.469 156.812 137.656 155.875C138.865 154.938 140.229 154.208 141.75 153.688C143.271 153.146 144.979 152.875 146.875 152.875C149.146 152.875 151.177 153.229 152.969 153.938C154.76 154.625 156.302 155.615 157.594 156.906C158.885 158.177 159.917 159.708 160.688 161.5C161.479 163.292 162 165.271 162.25 167.438H156.469C156.281 166.062 155.958 164.781 155.5 163.594C155.042 162.406 154.427 161.365 153.656 160.469C152.885 159.573 151.938 158.875 150.812 158.375C149.708 157.854 148.396 157.594 146.875 157.594C145.5 157.594 144.281 157.823 143.219 158.281C142.177 158.719 141.271 159.323 140.5 160.094C139.75 160.865 139.115 161.76 138.594 162.781C138.094 163.802 137.688 164.885 137.375 166.031C137.062 167.177 136.833 168.354 136.688 169.562C136.562 170.75 136.5 171.906 136.5 173.031V179.438C136.5 180.562 136.562 181.729 136.688 182.938C136.833 184.125 137.062 185.302 137.375 186.469C137.688 187.615 138.094 188.698 138.594 189.719C139.094 190.74 139.729 191.646 140.5 192.438C141.271 193.208 142.177 193.823 143.219 194.281C144.26 194.719 145.479 194.938 146.875 194.938C148.396 194.938 149.708 194.698 150.812 194.219C151.938 193.74 152.885 193.073 153.656 192.219C154.427 191.344 155.042 190.323 155.5 189.156C155.958 187.969 156.281 186.688 156.469 185.312H162.25ZM148.719 199L148.344 200.625C148.948 200.729 149.531 200.906 150.094 201.156C150.677 201.406 151.188 201.74 151.625 202.156C152.083 202.573 152.448 203.094 152.719 203.719C152.99 204.365 153.125 205.135 153.125 206.031C153.125 208.052 152.302 209.646 150.656 210.812C149.01 211.979 146.677 212.573 143.656 212.594L143.438 209.25C144.146 209.25 144.812 209.188 145.438 209.062C146.062 208.958 146.604 208.781 147.062 208.531C147.542 208.281 147.917 207.958 148.188 207.562C148.479 207.188 148.625 206.719 148.625 206.156C148.625 205.635 148.521 205.198 148.312 204.844C148.104 204.49 147.781 204.198 147.344 203.969C146.927 203.76 146.406 203.594 145.781 203.469C145.156 203.344 144.427 203.25 143.594 203.188L144.562 199H148.719ZM192.938 187.219H177.75L174.094 199H168.312L183 153.5H187.844L202.281 199H196.531L192.938 187.219ZM179.312 182.188H191.406L185.406 162.438L179.312 182.188ZM62.25 228.5L69.6562 251.25L77.6562 228.5H84.8438V274H79.2188V255.844L79.6875 236.844L71.2812 261.344H67.9688L60.25 237.5L60.7188 255.844V274H55.0938V228.5H62.25ZM116.062 262.219H100.875L97.2188 274H91.4375L106.125 228.5H110.969L125.406 274H119.656L116.062 262.219ZM102.438 257.188H114.531L108.531 237.438L102.438 257.188ZM147.844 255.438H138.75V274H133V228.5H146.344C148.469 228.542 150.469 228.844 152.344 229.406C154.219 229.969 155.854 230.812 157.25 231.938C158.667 233.062 159.771 234.479 160.562 236.188C161.375 237.875 161.781 239.865 161.781 242.156C161.781 243.635 161.562 244.99 161.125 246.219C160.708 247.448 160.125 248.562 159.375 249.562C158.625 250.562 157.729 251.448 156.688 252.219C155.646 252.99 154.5 253.646 153.25 254.188L162.906 273.625L162.875 274H156.781L147.844 255.438ZM138.75 250.688H146.5C147.792 250.667 149.01 250.469 150.156 250.094C151.302 249.698 152.302 249.135 153.156 248.406C154.031 247.677 154.719 246.792 155.219 245.75C155.719 244.688 155.969 243.469 155.969 242.094C155.969 240.635 155.729 239.365 155.25 238.281C154.771 237.177 154.104 236.26 153.25 235.531C152.396 234.781 151.375 234.219 150.188 233.844C149.021 233.469 147.74 233.271 146.344 233.25H138.75V250.688ZM200.688 260.312C200.417 262.417 199.875 264.354 199.062 266.125C198.25 267.875 197.188 269.385 195.875 270.656C194.583 271.906 193.042 272.885 191.25 273.594C189.479 274.281 187.5 274.625 185.312 274.625C183.438 274.625 181.729 274.365 180.188 273.844C178.667 273.302 177.302 272.562 176.094 271.625C174.906 270.688 173.875 269.583 173 268.312C172.146 267.042 171.427 265.656 170.844 264.156C170.281 262.656 169.854 261.083 169.562 259.438C169.292 257.792 169.146 256.125 169.125 254.438V248.094C169.146 246.406 169.292 244.74 169.562 243.094C169.854 241.448 170.281 239.875 170.844 238.375C171.427 236.875 172.146 235.49 173 234.219C173.875 232.927 174.906 231.812 176.094 230.875C177.302 229.938 178.667 229.208 180.188 228.688C181.708 228.146 183.417 227.875 185.312 227.875C187.583 227.875 189.615 228.229 191.406 228.938C193.198 229.625 194.74 230.615 196.031 231.906C197.323 233.177 198.354 234.708 199.125 236.5C199.917 238.292 200.438 240.271 200.688 242.438H194.906C194.719 241.062 194.396 239.781 193.938 238.594C193.479 237.406 192.865 236.365 192.094 235.469C191.323 234.573 190.375 233.875 189.25 233.375C188.146 232.854 186.833 232.594 185.312 232.594C183.938 232.594 182.719 232.823 181.656 233.281C180.615 233.719 179.708 234.323 178.938 235.094C178.188 235.865 177.552 236.76 177.031 237.781C176.531 238.802 176.125 239.885 175.812 241.031C175.5 242.177 175.271 243.354 175.125 244.562C175 245.75 174.938 246.906 174.938 248.031V254.438C174.938 255.562 175 256.729 175.125 257.938C175.271 259.125 175.5 260.302 175.812 261.469C176.125 262.615 176.531 263.698 177.031 264.719C177.531 265.74 178.167 266.646 178.938 267.438C179.708 268.208 180.615 268.823 181.656 269.281C182.698 269.719 183.917 269.938 185.312 269.938C186.833 269.938 188.146 269.698 189.25 269.219C190.375 268.74 191.323 268.073 192.094 267.219C192.865 266.344 193.479 265.323 193.938 264.156C194.396 262.969 194.719 261.688 194.906 260.312H200.688ZM238.188 274H232.719V252.969H214.062V274H208.625V228.5H214.062V248.062H232.719V228.5H238.188V274ZM273.125 252.969H254.125V269.094H276.281V274H248.344V228.5H276V233.438H254.125V248.062H273.125V252.969ZM297.062 261.188C297.083 259.688 297.146 258.458 297.25 257.5C297.354 256.521 297.573 255.656 297.906 254.906C298.24 254.135 298.719 253.406 299.344 252.719C299.969 252.01 300.802 251.177 301.844 250.219C302.552 249.49 303.271 248.74 304 247.969C304.75 247.198 305.427 246.396 306.031 245.562C306.656 244.708 307.167 243.812 307.562 242.875C307.958 241.938 308.156 240.948 308.156 239.906C308.156 237.635 307.5 235.906 306.188 234.719C304.875 233.51 303 232.906 300.562 232.906C299.583 232.906 298.625 233.031 297.688 233.281C296.771 233.51 295.948 233.885 295.219 234.406C294.51 234.906 293.938 235.552 293.5 236.344C293.062 237.115 292.844 238.042 292.844 239.125H287.062C287.083 237.375 287.448 235.802 288.156 234.406C288.865 233.01 289.812 231.833 291 230.875C292.208 229.896 293.625 229.156 295.25 228.656C296.896 228.135 298.667 227.875 300.562 227.875C302.667 227.875 304.542 228.146 306.188 228.688C307.854 229.208 309.26 229.979 310.406 231C311.552 232.021 312.427 233.26 313.031 234.719C313.635 236.177 313.938 237.844 313.938 239.719C313.938 241.219 313.677 242.635 313.156 243.969C312.635 245.281 311.969 246.531 311.156 247.719C310.344 248.885 309.427 249.979 308.406 251C307.406 252.021 306.417 252.969 305.438 253.844C304.812 254.448 304.323 255.021 303.969 255.562C303.635 256.104 303.385 256.656 303.219 257.219C303.052 257.781 302.948 258.385 302.906 259.031C302.865 259.656 302.844 260.375 302.844 261.188H297.062ZM296.406 270.969C296.406 269.969 296.698 269.135 297.281 268.469C297.885 267.802 298.781 267.469 299.969 267.469C301.156 267.469 302.052 267.802 302.656 268.469C303.281 269.135 303.594 269.969 303.594 270.969C303.594 271.927 303.281 272.729 302.656 273.375C302.052 274.021 301.156 274.344 299.969 274.344C298.781 274.344 297.885 274.021 297.281 273.375C296.698 272.729 296.406 271.927 296.406 270.969Z" fill="#B8DBB7"/>
</svg>
