<svg width="200" height="200" viewBox="0 0 351 291" fill="none" xmlns="http://www.w3.org/2000/svg">
<rect x="5" y="5" width="341" height="281" fill="white" stroke="black" stroke-width="10"/>
<path d="M76.375 84.3125C76.1042 86.4167 75.5625 88.3542 74.75 90.125C73.9375 91.875 72.875 93.3854 71.5625 94.6562C70.2708 95.9062 68.7292 96.8854 66.9375 97.5938C65.1667 98.2812 63.1875 98.625 61 98.625C59.125 98.625 57.4167 98.3646 55.875 97.8438C54.3542 97.3021 52.9896 96.5625 51.7812 95.625C50.5938 94.6875 49.5625 93.5833 48.6875 92.3125C47.8333 91.0417 47.1146 89.6562 46.5312 88.1562C45.9688 86.6562 45.5417 85.0833 45.25 83.4375C44.9792 81.7917 44.8333 80.125 44.8125 78.4375V72.0938C44.8333 70.4062 44.9792 68.7396 45.25 67.0938C45.5417 65.4479 45.9688 63.875 46.5312 62.375C47.1146 60.875 47.8333 59.4896 48.6875 58.2188C49.5625 56.9271 50.5938 55.8125 51.7812 54.875C52.9896 53.9375 54.3542 53.2083 55.875 52.6875C57.3958 52.1458 59.1042 51.875 61 51.875C63.2708 51.875 65.3021 52.2292 67.0938 52.9375C68.8854 53.625 70.4271 54.6146 71.7188 55.9062C73.0104 57.1771 74.0417 58.7083 74.8125 60.5C75.6042 62.2917 76.125 64.2708 76.375 66.4375H70.5938C70.4062 65.0625 70.0833 63.7812 69.625 62.5938C69.1667 61.4062 68.5521 60.3646 67.7812 59.4688C67.0104 58.5729 66.0625 57.875 64.9375 57.375C63.8333 56.8542 62.5208 56.5938 61 56.5938C59.625 56.5938 58.4062 56.8229 57.3438 57.2812C56.3021 57.7188 55.3958 58.3229 54.625 59.0938C53.875 59.8646 53.2396 60.7604 52.7188 61.7812C52.2188 62.8021 51.8125 63.8854 51.5 65.0312C51.1875 66.1771 50.9583 67.3542 50.8125 68.5625C50.6875 69.75 50.625 70.9062 50.625 72.0312V78.4375C50.625 79.5625 50.6875 80.7292 50.8125 81.9375C50.9583 83.125 51.1875 84.3021 51.5 85.4688C51.8125 86.6146 52.2188 87.6979 52.7188 88.7188C53.2188 89.7396 53.8542 90.6458 54.625 91.4375C55.3958 92.2083 56.3021 92.8229 57.3438 93.2812C58.3854 93.7188 59.6042 93.9375 61 93.9375C62.5208 93.9375 63.8333 93.6979 64.9375 93.2188C66.0625 92.7396 67.0104 92.0729 67.7812 91.2188C68.5521 90.3438 69.1667 89.3229 69.625 88.1562C70.0833 86.9688 70.4062 85.6875 70.5938 84.3125H76.375ZM114.938 77.875C114.917 79.5 114.771 81.1458 114.5 82.8125C114.25 84.4583 113.854 86.0521 113.312 87.5938C112.771 89.1354 112.073 90.5729 111.219 91.9062C110.385 93.2396 109.385 94.4062 108.219 95.4062C107.052 96.4062 105.708 97.1979 104.188 97.7812C102.688 98.3438 101 98.625 99.125 98.625C97.25 98.625 95.5521 98.3438 94.0312 97.7812C92.5312 97.1979 91.1979 96.4062 90.0312 95.4062C88.8646 94.4062 87.8542 93.2396 87 91.9062C86.1458 90.5521 85.4375 89.1042 84.875 87.5625C84.3333 86.0208 83.9271 84.4271 83.6562 82.7812C83.3854 81.1354 83.2396 79.5 83.2188 77.875V72.6875C83.2396 71.0625 83.375 69.4271 83.625 67.7812C83.8958 66.1146 84.3021 64.5104 84.8438 62.9688C85.4062 61.4271 86.1042 59.9896 86.9375 58.6562C87.7917 57.3021 88.8021 56.125 89.9688 55.125C91.1354 54.1042 92.4688 53.3125 93.9688 52.75C95.4896 52.1667 97.1875 51.875 99.0625 51.875C100.938 51.875 102.635 52.1667 104.156 52.75C105.677 53.3125 107.021 54.0938 108.188 55.0938C109.354 56.0938 110.354 57.2708 111.188 58.625C112.042 59.9583 112.74 61.3958 113.281 62.9375C113.844 64.4792 114.25 66.0833 114.5 67.75C114.771 69.4167 114.917 71.0625 114.938 72.6875V77.875ZM109.219 72.625C109.198 71.5417 109.125 70.4167 109 69.25C108.875 68.0625 108.656 66.8958 108.344 65.75C108.052 64.5833 107.656 63.4792 107.156 62.4375C106.656 61.375 106.031 60.4479 105.281 59.6562C104.531 58.8438 103.646 58.2083 102.625 57.75C101.604 57.2708 100.417 57.0312 99.0625 57.0312C97.7292 57.0312 96.5521 57.2708 95.5312 57.75C94.5104 58.2292 93.625 58.875 92.875 59.6875C92.125 60.4792 91.5 61.4062 91 62.4688C90.5 63.5104 90.0938 64.6146 89.7812 65.7812C89.4896 66.9271 89.2708 68.0938 89.125 69.2812C89 70.4479 88.9271 71.5625 88.9062 72.625V77.875C88.9271 78.9375 89 80.0625 89.125 81.25C89.2708 82.4375 89.5 83.6146 89.8125 84.7812C90.125 85.9271 90.5312 87.0312 91.0312 88.0938C91.5312 89.1562 92.1562 90.0938 92.9062 90.9062C93.6562 91.6979 94.5417 92.3333 95.5625 92.8125C96.5833 93.2917 97.7708 93.5312 99.125 93.5312C100.479 93.5312 101.667 93.2917 102.688 92.8125C103.729 92.3333 104.615 91.6979 105.344 90.9062C106.094 90.0938 106.708 89.1667 107.188 88.125C107.688 87.0625 108.083 85.9583 108.375 84.8125C108.688 83.6458 108.896 82.4688 109 81.2812C109.125 80.0938 109.198 78.9583 109.219 77.875V72.625ZM130.125 52.5L137.531 75.25L145.531 52.5H152.719V98H147.094V79.8438L147.562 60.8438L139.156 85.3438H135.844L128.125 61.5L128.594 79.8438V98H122.969V52.5H130.125ZM168.562 52.5L175.969 75.25L183.969 52.5H191.156V98H185.531V79.8438L186 60.8438L177.594 85.3438H174.281L166.562 61.5L167.031 79.8438V98H161.406V52.5H168.562ZM225.688 76.9688H206.688V93.0938H228.844V98H200.906V52.5H228.562V57.4375H206.688V72.0625H225.688V76.9688ZM267.594 98H261.719L244.062 64L243.969 98H238.125V52.5H244L261.656 86.4375L261.75 52.5H267.594V98ZM308.219 57.4375H294.156V98H288.531V57.4375H274.469V52.5H308.219V57.4375ZM172.469 159.312C172.198 161.417 171.656 163.354 170.844 165.125C170.031 166.875 168.969 168.385 167.656 169.656C166.365 170.906 164.823 171.885 163.031 172.594C161.26 173.281 159.281 173.625 157.094 173.625C155.219 173.625 153.51 173.365 151.969 172.844C150.448 172.302 149.083 171.562 147.875 170.625C146.688 169.688 145.656 168.583 144.781 167.312C143.927 166.042 143.208 164.656 142.625 163.156C142.062 161.656 141.635 160.083 141.344 158.438C141.073 156.792 140.927 155.125 140.906 153.438V147.094C140.927 145.406 141.073 143.74 141.344 142.094C141.635 140.448 142.062 138.875 142.625 137.375C143.208 135.875 143.927 134.49 144.781 133.219C145.656 131.927 146.688 130.812 147.875 129.875C149.083 128.938 150.448 128.208 151.969 127.688C153.49 127.146 155.198 126.875 157.094 126.875C159.365 126.875 161.396 127.229 163.188 127.938C164.979 128.625 166.521 129.615 167.812 130.906C169.104 132.177 170.135 133.708 170.906 135.5C171.698 137.292 172.219 139.271 172.469 141.438H166.688C166.5 140.062 166.177 138.781 165.719 137.594C165.26 136.406 164.646 135.365 163.875 134.469C163.104 133.573 162.156 132.875 161.031 132.375C159.927 131.854 158.615 131.594 157.094 131.594C155.719 131.594 154.5 131.823 153.438 132.281C152.396 132.719 151.49 133.323 150.719 134.094C149.969 134.865 149.333 135.76 148.812 136.781C148.312 137.802 147.906 138.885 147.594 140.031C147.281 141.177 147.052 142.354 146.906 143.562C146.781 144.75 146.719 145.906 146.719 147.031V153.438C146.719 154.562 146.781 155.729 146.906 156.938C147.052 158.125 147.281 159.302 147.594 160.469C147.906 161.615 148.312 162.698 148.812 163.719C149.312 164.74 149.948 165.646 150.719 166.438C151.49 167.208 152.396 167.823 153.438 168.281C154.479 168.719 155.698 168.938 157.094 168.938C158.615 168.938 159.927 168.698 161.031 168.219C162.156 167.74 163.104 167.073 163.875 166.219C164.646 165.344 165.26 164.323 165.719 163.156C166.177 161.969 166.5 160.688 166.688 159.312H172.469ZM158.938 173L158.562 174.625C159.167 174.729 159.75 174.906 160.312 175.156C160.896 175.406 161.406 175.74 161.844 176.156C162.302 176.573 162.667 177.094 162.938 177.719C163.208 178.365 163.344 179.135 163.344 180.031C163.344 182.052 162.521 183.646 160.875 184.812C159.229 185.979 156.896 186.573 153.875 186.594L153.656 183.25C154.365 183.25 155.031 183.188 155.656 183.062C156.281 182.958 156.823 182.781 157.281 182.531C157.76 182.281 158.135 181.958 158.406 181.562C158.698 181.188 158.844 180.719 158.844 180.156C158.844 179.635 158.74 179.198 158.531 178.844C158.323 178.49 158 178.198 157.562 177.969C157.146 177.76 156.625 177.594 156 177.469C155.375 177.344 154.646 177.25 153.812 177.188L154.781 173H158.938ZM203.156 161.219H187.969L184.312 173H178.531L193.219 127.5H198.062L212.5 173H206.75L203.156 161.219ZM189.531 156.188H201.625L195.625 136.438L189.531 156.188ZM53.25 202.5L60.6562 225.25L68.6562 202.5H75.8438V248H70.2188V229.844L70.6875 210.844L62.2812 235.344H58.9688L51.25 211.5L51.7188 229.844V248H46.0938V202.5H53.25ZM107.062 236.219H91.875L88.2188 248H82.4375L97.125 202.5H101.969L116.406 248H110.656L107.062 236.219ZM93.4375 231.188H105.531L99.5312 211.438L93.4375 231.188ZM138.844 229.438H129.75V248H124V202.5H137.344C139.469 202.542 141.469 202.844 143.344 203.406C145.219 203.969 146.854 204.812 148.25 205.938C149.667 207.062 150.771 208.479 151.562 210.188C152.375 211.875 152.781 213.865 152.781 216.156C152.781 217.635 152.562 218.99 152.125 220.219C151.708 221.448 151.125 222.562 150.375 223.562C149.625 224.562 148.729 225.448 147.688 226.219C146.646 226.99 145.5 227.646 144.25 228.188L153.906 247.625L153.875 248H147.781L138.844 229.438ZM129.75 224.688H137.5C138.792 224.667 140.01 224.469 141.156 224.094C142.302 223.698 143.302 223.135 144.156 222.406C145.031 221.677 145.719 220.792 146.219 219.75C146.719 218.688 146.969 217.469 146.969 216.094C146.969 214.635 146.729 213.365 146.25 212.281C145.771 211.177 145.104 210.26 144.25 209.531C143.396 208.781 142.375 208.219 141.188 207.844C140.021 207.469 138.74 207.271 137.344 207.25H129.75V224.688ZM191.688 234.312C191.417 236.417 190.875 238.354 190.062 240.125C189.25 241.875 188.188 243.385 186.875 244.656C185.583 245.906 184.042 246.885 182.25 247.594C180.479 248.281 178.5 248.625 176.312 248.625C174.438 248.625 172.729 248.365 171.188 247.844C169.667 247.302 168.302 246.562 167.094 245.625C165.906 244.688 164.875 243.583 164 242.312C163.146 241.042 162.427 239.656 161.844 238.156C161.281 236.656 160.854 235.083 160.562 233.438C160.292 231.792 160.146 230.125 160.125 228.438V222.094C160.146 220.406 160.292 218.74 160.562 217.094C160.854 215.448 161.281 213.875 161.844 212.375C162.427 210.875 163.146 209.49 164 208.219C164.875 206.927 165.906 205.812 167.094 204.875C168.302 203.938 169.667 203.208 171.188 202.688C172.708 202.146 174.417 201.875 176.312 201.875C178.583 201.875 180.615 202.229 182.406 202.938C184.198 203.625 185.74 204.615 187.031 205.906C188.323 207.177 189.354 208.708 190.125 210.5C190.917 212.292 191.438 214.271 191.688 216.438H185.906C185.719 215.062 185.396 213.781 184.938 212.594C184.479 211.406 183.865 210.365 183.094 209.469C182.323 208.573 181.375 207.875 180.25 207.375C179.146 206.854 177.833 206.594 176.312 206.594C174.938 206.594 173.719 206.823 172.656 207.281C171.615 207.719 170.708 208.323 169.938 209.094C169.188 209.865 168.552 210.76 168.031 211.781C167.531 212.802 167.125 213.885 166.812 215.031C166.5 216.177 166.271 217.354 166.125 218.562C166 219.75 165.938 220.906 165.938 222.031V228.438C165.938 229.562 166 230.729 166.125 231.938C166.271 233.125 166.5 234.302 166.812 235.469C167.125 236.615 167.531 237.698 168.031 238.719C168.531 239.74 169.167 240.646 169.938 241.438C170.708 242.208 171.615 242.823 172.656 243.281C173.698 243.719 174.917 243.938 176.312 243.938C177.833 243.938 179.146 243.698 180.25 243.219C181.375 242.74 182.323 242.073 183.094 241.219C183.865 240.344 184.479 239.323 184.938 238.156C185.396 236.969 185.719 235.688 185.906 234.312H191.688ZM229.188 248H223.719V226.969H205.062V248H199.625V202.5H205.062V222.062H223.719V202.5H229.188V248ZM264.125 226.969H245.125V243.094H267.281V248H239.344V202.5H267V207.438H245.125V222.062H264.125V226.969ZM288.062 235.188C288.083 233.688 288.146 232.458 288.25 231.5C288.354 230.521 288.573 229.656 288.906 228.906C289.24 228.135 289.719 227.406 290.344 226.719C290.969 226.01 291.802 225.177 292.844 224.219C293.552 223.49 294.271 222.74 295 221.969C295.75 221.198 296.427 220.396 297.031 219.562C297.656 218.708 298.167 217.812 298.562 216.875C298.958 215.938 299.156 214.948 299.156 213.906C299.156 211.635 298.5 209.906 297.188 208.719C295.875 207.51 294 206.906 291.562 206.906C290.583 206.906 289.625 207.031 288.688 207.281C287.771 207.51 286.948 207.885 286.219 208.406C285.51 208.906 284.938 209.552 284.5 210.344C284.062 211.115 283.844 212.042 283.844 213.125H278.062C278.083 211.375 278.448 209.802 279.156 208.406C279.865 207.01 280.812 205.833 282 204.875C283.208 203.896 284.625 203.156 286.25 202.656C287.896 202.135 289.667 201.875 291.562 201.875C293.667 201.875 295.542 202.146 297.188 202.688C298.854 203.208 300.26 203.979 301.406 205C302.552 206.021 303.427 207.26 304.031 208.719C304.635 210.177 304.938 211.844 304.938 213.719C304.938 215.219 304.677 216.635 304.156 217.969C303.635 219.281 302.969 220.531 302.156 221.719C301.344 222.885 300.427 223.979 299.406 225C298.406 226.021 297.417 226.969 296.438 227.844C295.812 228.448 295.323 229.021 294.969 229.562C294.635 230.104 294.385 230.656 294.219 231.219C294.052 231.781 293.948 232.385 293.906 233.031C293.865 233.656 293.844 234.375 293.844 235.188H288.062ZM287.406 244.969C287.406 243.969 287.698 243.135 288.281 242.469C288.885 241.802 289.781 241.469 290.969 241.469C292.156 241.469 293.052 241.802 293.656 242.469C294.281 243.135 294.594 243.969 294.594 244.969C294.594 245.927 294.281 246.729 293.656 247.375C293.052 248.021 292.156 248.344 290.969 248.344C289.781 248.344 288.885 248.021 288.281 247.375C287.698 246.729 287.406 245.927 287.406 244.969Z" fill="black"/>
</svg>
