<svg width="200" height="200" viewBox="0 0 351 291" fill="none" xmlns="http://www.w3.org/2000/svg">
<rect x="5" y="5" width="341" height="281" fill="white" stroke="black" stroke-width="10"/>
<path d="M95.7188 109.875C95.6979 111.5 95.5521 113.146 95.2812 114.812C95.0312 116.458 94.6354 118.052 94.0938 119.594C93.5521 121.135 92.8542 122.573 92 123.906C91.1667 125.24 90.1667 126.406 89 127.406C87.8333 128.406 86.4896 129.198 84.9688 129.781C83.4688 130.344 81.7812 130.625 79.9062 130.625C78.0312 130.625 76.3333 130.344 74.8125 129.781C73.3125 129.198 71.9792 128.406 70.8125 127.406C69.6458 126.406 68.6354 125.24 67.7812 123.906C66.9271 122.552 66.2188 121.104 65.6562 119.562C65.1146 118.021 64.7083 116.427 64.4375 114.781C64.1667 113.135 64.0208 111.5 64 109.875V104.688C64.0208 103.062 64.1562 101.427 64.4062 99.7812C64.6771 98.1146 65.0833 96.5104 65.625 94.9688C66.1875 93.4271 66.8854 91.9896 67.7188 90.6562C68.5729 89.3021 69.5833 88.125 70.75 87.125C71.9167 86.1042 73.25 85.3125 74.75 84.75C76.2708 84.1667 77.9688 83.875 79.8438 83.875C81.7188 83.875 83.4167 84.1667 84.9375 84.75C86.4583 85.3125 87.8021 86.0938 88.9688 87.0938C90.1354 88.0938 91.1354 89.2708 91.9688 90.625C92.8229 91.9583 93.5208 93.3958 94.0625 94.9375C94.625 96.4792 95.0312 98.0833 95.2812 99.75C95.5521 101.417 95.6979 103.062 95.7188 104.688V109.875ZM90 104.625C89.9792 103.542 89.9062 102.417 89.7812 101.25C89.6562 100.062 89.4375 98.8958 89.125 97.75C88.8333 96.5833 88.4375 95.4792 87.9375 94.4375C87.4375 93.375 86.8125 92.4479 86.0625 91.6562C85.3125 90.8438 84.4271 90.2083 83.4062 89.75C82.3854 89.2708 81.1979 89.0312 79.8438 89.0312C78.5104 89.0312 77.3333 89.2708 76.3125 89.75C75.2917 90.2292 74.4062 90.875 73.6562 91.6875C72.9062 92.4792 72.2812 93.4062 71.7812 94.4688C71.2812 95.5104 70.875 96.6146 70.5625 97.7812C70.2708 98.9271 70.0521 100.094 69.9062 101.281C69.7812 102.448 69.7083 103.562 69.6875 104.625V109.875C69.7083 110.938 69.7812 112.062 69.9062 113.25C70.0521 114.438 70.2812 115.615 70.5938 116.781C70.9062 117.927 71.3125 119.031 71.8125 120.094C72.3125 121.156 72.9375 122.094 73.6875 122.906C74.4375 123.698 75.3229 124.333 76.3438 124.812C77.3646 125.292 78.5521 125.531 79.9062 125.531C81.2604 125.531 82.4479 125.292 83.4688 124.812C84.5104 124.333 85.3958 123.698 86.125 122.906C86.875 122.094 87.4896 121.167 87.9688 120.125C88.4688 119.062 88.8646 117.958 89.1562 116.812C89.4688 115.646 89.6771 114.469 89.7812 113.281C89.9062 112.094 89.9792 110.958 90 109.875V104.625ZM133.062 130H127.188L109.531 96L109.438 130H103.594V84.5H109.469L127.125 118.438L127.219 84.5H133.062V130ZM205.25 118.5C205.25 117.104 204.927 115.927 204.281 114.969C203.656 114.01 202.844 113.208 201.844 112.562C200.844 111.896 199.74 111.344 198.531 110.906C197.344 110.469 196.198 110.073 195.094 109.719C193.49 109.198 191.854 108.573 190.188 107.844C188.542 107.115 187.031 106.219 185.656 105.156C184.302 104.094 183.188 102.844 182.312 101.406C181.458 99.9479 181.031 98.2396 181.031 96.2812C181.031 94.3229 181.458 92.5729 182.312 91.0312C183.188 89.4896 184.323 88.1875 185.719 87.125C187.115 86.0625 188.698 85.2604 190.469 84.7188C192.24 84.1562 194.021 83.875 195.812 83.875C197.792 83.875 199.698 84.2083 201.531 84.875C203.365 85.5208 204.99 86.4375 206.406 87.625C207.823 88.8125 208.958 90.25 209.812 91.9375C210.667 93.625 211.115 95.5104 211.156 97.5938H205.219C205.052 96.2812 204.729 95.0938 204.25 94.0312C203.771 92.9479 203.135 92.0208 202.344 91.25C201.552 90.4792 200.604 89.8854 199.5 89.4688C198.417 89.0312 197.188 88.8125 195.812 88.8125C194.708 88.8125 193.625 88.9688 192.562 89.2812C191.521 89.5938 190.583 90.0625 189.75 90.6875C188.938 91.3125 188.281 92.0833 187.781 93C187.302 93.9167 187.062 94.9792 187.062 96.1875C187.083 97.5 187.417 98.6146 188.062 99.5312C188.708 100.427 189.521 101.188 190.5 101.812C191.5 102.438 192.573 102.958 193.719 103.375C194.885 103.792 195.979 104.156 197 104.469C198.125 104.823 199.26 105.229 200.406 105.688C201.552 106.125 202.656 106.635 203.719 107.219C204.781 107.802 205.771 108.458 206.688 109.188C207.604 109.917 208.406 110.75 209.094 111.688C209.781 112.604 210.312 113.625 210.688 114.75C211.083 115.854 211.281 117.083 211.281 118.438C211.281 120.479 210.823 122.26 209.906 123.781C209.01 125.302 207.844 126.573 206.406 127.594C204.969 128.594 203.344 129.354 201.531 129.875C199.719 130.375 197.906 130.625 196.094 130.625C194.073 130.625 192.094 130.312 190.156 129.688C188.219 129.062 186.479 128.167 184.938 127C183.417 125.812 182.177 124.375 181.219 122.688C180.26 120.979 179.75 119.042 179.688 116.875H185.594C185.781 118.292 186.167 119.552 186.75 120.656C187.333 121.74 188.083 122.667 189 123.438C189.917 124.188 190.969 124.76 192.156 125.156C193.365 125.531 194.677 125.719 196.094 125.719C197.219 125.719 198.323 125.583 199.406 125.312C200.51 125.021 201.49 124.583 202.344 124C203.198 123.396 203.896 122.646 204.438 121.75C204.979 120.833 205.25 119.75 205.25 118.5ZM237.438 85.9062C237.438 86.8854 237.312 87.9167 237.062 89C236.833 90.0833 236.479 91.1562 236 92.2188C235.542 93.2604 234.979 94.2604 234.312 95.2188C233.646 96.1771 232.875 97.0312 232 97.7812L228.844 95.5312C229.823 94.0521 230.552 92.5417 231.031 91C231.531 89.4583 231.781 87.7917 231.781 86V81.3125H237.438V85.9062ZM271.719 107.344L282.094 84.5H288.656L274.5 113.031L274.406 130H269.031L268.938 113.031L254.781 84.5H261.375L271.719 107.344ZM91.6875 159.5L99.0938 182.25L107.094 159.5H114.281V205H108.656V186.844L109.125 167.844L100.719 192.344H97.4062L89.6875 168.5L90.1562 186.844V205H84.5312V159.5H91.6875ZM148.812 183.969H129.812V200.094H151.969V205H124.031V159.5H151.688V164.438H129.812V179.062H148.812V183.969ZM192.906 164.438H178.844V205H173.219V164.438H159.156V159.5H192.906V164.438ZM249.625 192.188C249.646 190.688 249.708 189.458 249.812 188.5C249.917 187.521 250.135 186.656 250.469 185.906C250.802 185.135 251.281 184.406 251.906 183.719C252.531 183.01 253.365 182.177 254.406 181.219C255.115 180.49 255.833 179.74 256.562 178.969C257.312 178.198 257.99 177.396 258.594 176.562C259.219 175.708 259.729 174.812 260.125 173.875C260.521 172.938 260.719 171.948 260.719 170.906C260.719 168.635 260.062 166.906 258.75 165.719C257.438 164.51 255.562 163.906 253.125 163.906C252.146 163.906 251.188 164.031 250.25 164.281C249.333 164.51 248.51 164.885 247.781 165.406C247.073 165.906 246.5 166.552 246.062 167.344C245.625 168.115 245.406 169.042 245.406 170.125H239.625C239.646 168.375 240.01 166.802 240.719 165.406C241.427 164.01 242.375 162.833 243.562 161.875C244.771 160.896 246.188 160.156 247.812 159.656C249.458 159.135 251.229 158.875 253.125 158.875C255.229 158.875 257.104 159.146 258.75 159.688C260.417 160.208 261.823 160.979 262.969 162C264.115 163.021 264.99 164.26 265.594 165.719C266.198 167.177 266.5 168.844 266.5 170.719C266.5 172.219 266.24 173.635 265.719 174.969C265.198 176.281 264.531 177.531 263.719 178.719C262.906 179.885 261.99 180.979 260.969 182C259.969 183.021 258.979 183.969 258 184.844C257.375 185.448 256.885 186.021 256.531 186.562C256.198 187.104 255.948 187.656 255.781 188.219C255.615 188.781 255.51 189.385 255.469 190.031C255.427 190.656 255.406 191.375 255.406 192.188H249.625ZM248.969 201.969C248.969 200.969 249.26 200.135 249.844 199.469C250.448 198.802 251.344 198.469 252.531 198.469C253.719 198.469 254.615 198.802 255.219 199.469C255.844 200.135 256.156 200.969 256.156 201.969C256.156 202.927 255.844 203.729 255.219 204.375C254.615 205.021 253.719 205.344 252.531 205.344C251.344 205.344 250.448 205.021 249.844 204.375C249.26 203.729 248.969 202.927 248.969 201.969Z" fill="black"/>
</svg>
