<svg width="200" height="200" viewBox="0 0 363 340" fill="none" xmlns="http://www.w3.org/2000/svg">
<path d="M360.5 170C360.5 262.356 280.516 337.5 181.5 337.5C82.4844 337.5 2.5 262.356 2.5 170C2.5 77.6439 82.4844 2.5 181.5 2.5C280.516 2.5 360.5 77.6439 360.5 170Z" fill="white" stroke="#B8DBB7" stroke-width="5"/>
<path d="M101.719 133.875C101.698 135.5 101.552 137.146 101.281 138.812C101.031 140.458 100.635 142.052 100.094 143.594C99.5521 145.135 98.8542 146.573 98 147.906C97.1667 149.24 96.1667 150.406 95 151.406C93.8333 152.406 92.4896 153.198 90.9688 153.781C89.4688 154.344 87.7812 154.625 85.9062 154.625C84.0312 154.625 82.3333 154.344 80.8125 153.781C79.3125 153.198 77.9792 152.406 76.8125 151.406C75.6458 150.406 74.6354 149.24 73.7812 147.906C72.9271 146.552 72.2188 145.104 71.6562 143.562C71.1146 142.021 70.7083 140.427 70.4375 138.781C70.1667 137.135 70.0208 135.5 70 133.875V128.688C70.0208 127.062 70.1562 125.427 70.4062 123.781C70.6771 122.115 71.0833 120.51 71.625 118.969C72.1875 117.427 72.8854 115.99 73.7188 114.656C74.5729 113.302 75.5833 112.125 76.75 111.125C77.9167 110.104 79.25 109.312 80.75 108.75C82.2708 108.167 83.9688 107.875 85.8438 107.875C87.7188 107.875 89.4167 108.167 90.9375 108.75C92.4583 109.312 93.8021 110.094 94.9688 111.094C96.1354 112.094 97.1354 113.271 97.9688 114.625C98.8229 115.958 99.5208 117.396 100.062 118.938C100.625 120.479 101.031 122.083 101.281 123.75C101.552 125.417 101.698 127.062 101.719 128.688V133.875ZM96 128.625C95.9792 127.542 95.9062 126.417 95.7812 125.25C95.6562 124.062 95.4375 122.896 95.125 121.75C94.8333 120.583 94.4375 119.479 93.9375 118.438C93.4375 117.375 92.8125 116.448 92.0625 115.656C91.3125 114.844 90.4271 114.208 89.4062 113.75C88.3854 113.271 87.1979 113.031 85.8438 113.031C84.5104 113.031 83.3333 113.271 82.3125 113.75C81.2917 114.229 80.4062 114.875 79.6562 115.688C78.9062 116.479 78.2812 117.406 77.7812 118.469C77.2812 119.51 76.875 120.615 76.5625 121.781C76.2708 122.927 76.0521 124.094 75.9062 125.281C75.7812 126.448 75.7083 127.562 75.6875 128.625V133.875C75.7083 134.938 75.7812 136.062 75.9062 137.25C76.0521 138.438 76.2812 139.615 76.5938 140.781C76.9062 141.927 77.3125 143.031 77.8125 144.094C78.3125 145.156 78.9375 146.094 79.6875 146.906C80.4375 147.698 81.3229 148.333 82.3438 148.812C83.3646 149.292 84.5521 149.531 85.9062 149.531C87.2604 149.531 88.4479 149.292 89.4688 148.812C90.5104 148.333 91.3958 147.698 92.125 146.906C92.875 146.094 93.4896 145.167 93.9688 144.125C94.4688 143.062 94.8646 141.958 95.1562 140.812C95.4688 139.646 95.6771 138.469 95.7812 137.281C95.9062 136.094 95.9792 134.958 96 133.875V128.625ZM139.062 154H133.188L115.531 120L115.438 154H109.594V108.5H115.469L133.125 142.438L133.219 108.5H139.062V154ZM211.25 142.5C211.25 141.104 210.927 139.927 210.281 138.969C209.656 138.01 208.844 137.208 207.844 136.562C206.844 135.896 205.74 135.344 204.531 134.906C203.344 134.469 202.198 134.073 201.094 133.719C199.49 133.198 197.854 132.573 196.188 131.844C194.542 131.115 193.031 130.219 191.656 129.156C190.302 128.094 189.188 126.844 188.312 125.406C187.458 123.948 187.031 122.24 187.031 120.281C187.031 118.323 187.458 116.573 188.312 115.031C189.188 113.49 190.323 112.188 191.719 111.125C193.115 110.062 194.698 109.26 196.469 108.719C198.24 108.156 200.021 107.875 201.812 107.875C203.792 107.875 205.698 108.208 207.531 108.875C209.365 109.521 210.99 110.438 212.406 111.625C213.823 112.812 214.958 114.25 215.812 115.938C216.667 117.625 217.115 119.51 217.156 121.594H211.219C211.052 120.281 210.729 119.094 210.25 118.031C209.771 116.948 209.135 116.021 208.344 115.25C207.552 114.479 206.604 113.885 205.5 113.469C204.417 113.031 203.188 112.812 201.812 112.812C200.708 112.812 199.625 112.969 198.562 113.281C197.521 113.594 196.583 114.062 195.75 114.688C194.938 115.312 194.281 116.083 193.781 117C193.302 117.917 193.062 118.979 193.062 120.188C193.083 121.5 193.417 122.615 194.062 123.531C194.708 124.427 195.521 125.188 196.5 125.812C197.5 126.438 198.573 126.958 199.719 127.375C200.885 127.792 201.979 128.156 203 128.469C204.125 128.823 205.26 129.229 206.406 129.688C207.552 130.125 208.656 130.635 209.719 131.219C210.781 131.802 211.771 132.458 212.688 133.188C213.604 133.917 214.406 134.75 215.094 135.688C215.781 136.604 216.312 137.625 216.688 138.75C217.083 139.854 217.281 141.083 217.281 142.438C217.281 144.479 216.823 146.26 215.906 147.781C215.01 149.302 213.844 150.573 212.406 151.594C210.969 152.594 209.344 153.354 207.531 153.875C205.719 154.375 203.906 154.625 202.094 154.625C200.073 154.625 198.094 154.312 196.156 153.688C194.219 153.062 192.479 152.167 190.938 151C189.417 149.812 188.177 148.375 187.219 146.688C186.26 144.979 185.75 143.042 185.688 140.875H191.594C191.781 142.292 192.167 143.552 192.75 144.656C193.333 145.74 194.083 146.667 195 147.438C195.917 148.188 196.969 148.76 198.156 149.156C199.365 149.531 200.677 149.719 202.094 149.719C203.219 149.719 204.323 149.583 205.406 149.312C206.51 149.021 207.49 148.583 208.344 148C209.198 147.396 209.896 146.646 210.438 145.75C210.979 144.833 211.25 143.75 211.25 142.5ZM243.438 109.906C243.438 110.885 243.312 111.917 243.062 113C242.833 114.083 242.479 115.156 242 116.219C241.542 117.26 240.979 118.26 240.312 119.219C239.646 120.177 238.875 121.031 238 121.781L234.844 119.531C235.823 118.052 236.552 116.542 237.031 115C237.531 113.458 237.781 111.792 237.781 110V105.312H243.438V109.906ZM277.719 131.344L288.094 108.5H294.656L280.5 137.031L280.406 154H275.031L274.938 137.031L260.781 108.5H267.375L277.719 131.344ZM116.906 183.5L124.312 206.25L132.312 183.5H139.5V229H133.875V210.844L134.344 191.844L125.938 216.344H122.625L114.906 192.5L115.375 210.844V229H109.75V183.5H116.906ZM174.031 207.969H155.031V224.094H177.188V229H149.25V183.5H176.906V188.438H155.031V203.062H174.031V207.969ZM218.125 188.438H204.062V229H198.438V188.438H184.375V183.5H218.125V188.438ZM236.406 216.188C236.427 214.688 236.49 213.458 236.594 212.5C236.698 211.521 236.917 210.656 237.25 209.906C237.583 209.135 238.062 208.406 238.688 207.719C239.312 207.01 240.146 206.177 241.188 205.219C241.896 204.49 242.615 203.74 243.344 202.969C244.094 202.198 244.771 201.396 245.375 200.562C246 199.708 246.51 198.812 246.906 197.875C247.302 196.938 247.5 195.948 247.5 194.906C247.5 192.635 246.844 190.906 245.531 189.719C244.219 188.51 242.344 187.906 239.906 187.906C238.927 187.906 237.969 188.031 237.031 188.281C236.115 188.51 235.292 188.885 234.562 189.406C233.854 189.906 233.281 190.552 232.844 191.344C232.406 192.115 232.188 193.042 232.188 194.125H226.406C226.427 192.375 226.792 190.802 227.5 189.406C228.208 188.01 229.156 186.833 230.344 185.875C231.552 184.896 232.969 184.156 234.594 183.656C236.24 183.135 238.01 182.875 239.906 182.875C242.01 182.875 243.885 183.146 245.531 183.688C247.198 184.208 248.604 184.979 249.75 186C250.896 187.021 251.771 188.26 252.375 189.719C252.979 191.177 253.281 192.844 253.281 194.719C253.281 196.219 253.021 197.635 252.5 198.969C251.979 200.281 251.312 201.531 250.5 202.719C249.688 203.885 248.771 204.979 247.75 206C246.75 207.021 245.76 207.969 244.781 208.844C244.156 209.448 243.667 210.021 243.312 210.562C242.979 211.104 242.729 211.656 242.562 212.219C242.396 212.781 242.292 213.385 242.25 214.031C242.208 214.656 242.188 215.375 242.188 216.188H236.406ZM235.75 225.969C235.75 224.969 236.042 224.135 236.625 223.469C237.229 222.802 238.125 222.469 239.312 222.469C240.5 222.469 241.396 222.802 242 223.469C242.625 224.135 242.938 224.969 242.938 225.969C242.938 226.927 242.625 227.729 242 228.375C241.396 229.021 240.5 229.344 239.312 229.344C238.125 229.344 237.229 229.021 236.625 228.375C236.042 227.729 235.75 226.927 235.75 225.969Z" fill="#B8DBB7"/>
</svg>
