<svg width="50" height="50" viewBox="0 0 371 233" fill="none" xmlns="http://www.w3.org/2000/svg">
<path d="M355.6 0H15.28C6.841 0 0 6.67353 0 14.9059V217.814C0 226.047 6.841 232.72 15.28 232.72H355.6C364.039 232.72 370.88 226.047 370.88 217.814V14.9059C370.88 6.67353 364.039 0 355.6 0ZM15.28 11.7062H355.6C357.036 11.7131 358.3 12.6301 358.72 13.9694L185.44 119.56L12.16 13.9694C12.58 12.6301 13.844 11.7131 15.28 11.7062ZM12 27.3146L136.64 103.249L12 199.708V27.3146ZM358.88 217.736C358.88 219.504 357.411 220.936 355.6 220.936H15.28C13.469 220.936 12 219.503 12 217.736V214.614L147.44 110.195L182.24 131.422C184.195 132.625 186.685 132.625 188.64 131.422L223.44 110.195L358.88 214.614V217.736ZM358.88 199.708L233.92 103.561L358.88 28.0169V199.708Z" fill="white"/>
</svg>
