<svg width="300" height="400" viewBox="0 0 388 491" fill="none" xmlns="http://www.w3.org/2000/svg">
<g filter="url(#filter0_d)">
<rect x="4" width="355" height="483" fill="#E3E2E2"/>
</g>
<path d="M14 294L32 333H83L102.5 294" stroke="black" stroke-width="3"/>
<path d="M21 304.5L31.5 309L39 304.5L50 309L53.5 304.5L64 309L75.5 304.5L82.5 309L96.5 304.5" stroke="black" stroke-width="2"/>
<path d="M58.9453 321.773H60.2656V323.531H58.9453V326H56.7734V323.531H52.0469L51.9609 322.172L56.7422 314.625H58.9453V321.773ZM54.0938 321.773H56.7734V317.547L56.5625 317.922L54.0938 321.773ZM69.6172 321.672C69.6172 322.406 69.5312 323.055 69.3594 323.617C69.1927 324.174 68.9505 324.643 68.6328 325.023C68.3151 325.398 67.9271 325.682 67.4688 325.875C67.0104 326.068 66.4948 326.164 65.9219 326.164C65.3542 326.164 64.8411 326.068 64.3828 325.875C63.9245 325.682 63.5339 325.398 63.2109 325.023C62.8932 324.643 62.6458 324.174 62.4688 323.617C62.2969 323.055 62.2109 322.406 62.2109 321.672V318.953C62.2109 318.219 62.2969 317.573 62.4688 317.016C62.6406 316.453 62.8854 315.984 63.2031 315.609C63.526 315.229 63.9141 314.943 64.3672 314.75C64.8255 314.557 65.3385 314.461 65.9062 314.461C66.4792 314.461 66.9948 314.557 67.4531 314.75C67.9115 314.943 68.2995 315.229 68.6172 315.609C68.9401 315.984 69.1875 316.453 69.3594 317.016C69.5312 317.573 69.6172 318.219 69.6172 318.953V321.672ZM64.3984 320.734L67.4297 318.477C67.4141 317.711 67.2812 317.143 67.0312 316.773C66.7812 316.404 66.4062 316.219 65.9062 316.219C65.401 316.219 65.0234 316.414 64.7734 316.805C64.5234 317.195 64.3984 317.797 64.3984 318.609V320.734ZM67.4297 319.953L64.3984 322.203C64.4245 322.953 64.5625 323.51 64.8125 323.875C65.0625 324.234 65.4323 324.414 65.9219 324.414C66.4323 324.414 66.8099 324.216 67.0547 323.82C67.3047 323.424 67.4297 322.818 67.4297 322V319.953Z" fill="black"/>
<path d="M43.8555 121.639H46.1758C46.9961 121.639 47.7168 121.527 48.3379 121.305C48.9707 121.082 49.498 120.777 49.9199 120.391C50.3535 120.004 50.6816 119.541 50.9043 119.002C51.127 118.463 51.2383 117.871 51.2383 117.227C51.2383 115.738 50.8574 114.619 50.0957 113.869C49.334 113.107 48.2207 112.727 46.7559 112.727C46.0645 112.727 45.4316 112.832 44.8574 113.043C44.2949 113.242 43.8086 113.535 43.3984 113.922C43 114.309 42.6895 114.771 42.4668 115.311C42.2441 115.85 42.1328 116.453 42.1328 117.121H38.8633C38.8633 116.148 39.0508 115.234 39.4258 114.379C39.8125 113.512 40.3516 112.762 41.043 112.129C41.7344 111.484 42.5605 110.98 43.5215 110.617C44.4941 110.242 45.5723 110.055 46.7559 110.055C47.9043 110.055 48.9531 110.213 49.9023 110.529C50.8516 110.834 51.666 111.291 52.3457 111.9C53.0254 112.51 53.5527 113.266 53.9277 114.168C54.3027 115.07 54.4902 116.113 54.4902 117.297C54.4902 117.789 54.4141 118.299 54.2617 118.826C54.1094 119.354 53.875 119.869 53.5586 120.373C53.2422 120.865 52.832 121.334 52.3281 121.779C51.8359 122.213 51.2441 122.576 50.5527 122.869C51.3848 123.139 52.0762 123.49 52.627 123.924C53.1895 124.357 53.6348 124.844 53.9629 125.383C54.3027 125.922 54.5371 126.49 54.666 127.088C54.8066 127.686 54.877 128.277 54.877 128.863C54.877 130.059 54.6719 131.119 54.2617 132.045C53.8516 132.971 53.2832 133.756 52.5566 134.4C51.8301 135.033 50.9688 135.52 49.9727 135.859C48.9883 136.188 47.9219 136.352 46.7734 136.352C45.6484 136.352 44.5879 136.193 43.5918 135.877C42.6074 135.561 41.752 135.098 41.0254 134.488C40.2988 133.879 39.7188 133.135 39.2852 132.256C38.8633 131.377 38.6523 130.375 38.6523 129.25H41.9043C41.9043 129.918 42.0156 130.527 42.2383 131.078C42.4727 131.629 42.8008 132.098 43.2227 132.484C43.6445 132.871 44.1543 133.17 44.752 133.381C45.3613 133.592 46.0352 133.697 46.7734 133.697C47.5117 133.697 48.1797 133.604 48.7773 133.416C49.375 133.217 49.8848 132.918 50.3066 132.52C50.7285 132.121 51.0508 131.629 51.2734 131.043C51.5078 130.445 51.625 129.742 51.625 128.934C51.625 128.137 51.4902 127.451 51.2207 126.877C50.9629 126.291 50.5938 125.805 50.1133 125.418C49.6445 125.031 49.0703 124.744 48.3906 124.557C47.7227 124.369 46.9844 124.275 46.1758 124.275H43.8555V121.639ZM77.7461 126.209C77.7461 127.838 77.5586 129.285 77.1836 130.551C76.8086 131.805 76.2695 132.865 75.5664 133.732C74.8633 134.588 74.002 135.238 72.9824 135.684C71.9629 136.129 70.7969 136.352 69.4844 136.352C68.1836 136.352 67.0176 136.129 65.9863 135.684C64.9668 135.238 64.0996 134.588 63.3848 133.732C62.6699 132.865 62.1191 131.805 61.7324 130.551C61.3574 129.285 61.1699 127.838 61.1699 126.209V120.215C61.1699 118.586 61.3574 117.145 61.7324 115.891C62.1074 114.625 62.6465 113.559 63.3496 112.691C64.0645 111.824 64.9316 111.168 65.9512 110.723C66.9824 110.266 68.1484 110.037 69.4492 110.037C70.7617 110.037 71.9277 110.266 72.9473 110.723C73.9785 111.168 74.8457 111.824 75.5488 112.691C76.2637 113.559 76.8086 114.625 77.1836 115.891C77.5586 117.145 77.7461 118.586 77.7461 120.215V126.209ZM64.4395 125.559L74.4062 117.912C74.2188 116.213 73.7207 114.924 72.9121 114.045C72.1152 113.154 70.9609 112.709 69.4492 112.709C67.7383 112.709 66.4727 113.289 65.6523 114.449C64.8438 115.598 64.4395 117.279 64.4395 119.494V125.559ZM74.4766 121.023L64.5273 128.635C64.7266 130.287 65.2363 131.547 66.0566 132.414C66.877 133.281 68.0195 133.715 69.4844 133.715C71.207 133.715 72.4668 133.129 73.2637 131.957C74.0723 130.785 74.4766 129.098 74.4766 126.895V121.023ZM81.0156 115.012C81.0156 114.344 81.1152 113.711 81.3145 113.113C81.5254 112.504 81.8242 111.971 82.2109 111.514C82.6094 111.057 83.1016 110.699 83.6875 110.441C84.2734 110.172 84.9473 110.037 85.709 110.037C86.4824 110.037 87.1621 110.172 87.748 110.441C88.3457 110.699 88.8379 111.057 89.2246 111.514C89.623 111.971 89.9219 112.504 90.1211 113.113C90.332 113.711 90.4375 114.344 90.4375 115.012V116.365C90.4375 117.033 90.332 117.666 90.1211 118.264C89.9219 118.861 89.623 119.389 89.2246 119.846C88.8379 120.291 88.3516 120.648 87.7656 120.918C87.1797 121.176 86.5059 121.305 85.7441 121.305C84.9824 121.305 84.3027 121.176 83.7051 120.918C83.1191 120.648 82.627 120.291 82.2285 119.846C81.8301 119.389 81.5254 118.861 81.3145 118.264C81.1152 117.666 81.0156 117.033 81.0156 116.365V115.012ZM83.4414 116.365C83.4414 116.729 83.4824 117.08 83.5645 117.42C83.6465 117.748 83.7812 118.047 83.9688 118.316C84.1562 118.574 84.3906 118.785 84.6719 118.949C84.9648 119.102 85.3223 119.178 85.7441 119.178C86.1543 119.178 86.5 119.102 86.7812 118.949C87.0742 118.785 87.3086 118.574 87.4844 118.316C87.6602 118.047 87.7891 117.748 87.8711 117.42C87.9648 117.08 88.0117 116.729 88.0117 116.365V115.012C88.0117 114.648 87.9648 114.297 87.8711 113.957C87.7891 113.605 87.6543 113.301 87.4668 113.043C87.291 112.773 87.0566 112.562 86.7637 112.41C86.4824 112.246 86.1309 112.164 85.709 112.164C85.2988 112.164 84.9473 112.246 84.6543 112.41C84.373 112.562 84.1387 112.773 83.9512 113.043C83.7754 113.301 83.6465 113.605 83.5645 113.957C83.4824 114.297 83.4414 114.648 83.4414 115.012V116.365ZM91.5801 130.059C91.5801 129.391 91.6797 128.758 91.8789 128.16C92.0898 127.562 92.3945 127.035 92.793 126.578C93.1914 126.121 93.6836 125.764 94.2695 125.506C94.8555 125.236 95.5293 125.102 96.291 125.102C97.0645 125.102 97.7441 125.236 98.3301 125.506C98.916 125.764 99.4082 126.121 99.8066 126.578C100.205 127.035 100.504 127.562 100.703 128.16C100.914 128.758 101.02 129.391 101.02 130.059V131.43C101.02 132.098 100.914 132.73 100.703 133.328C100.504 133.926 100.205 134.453 99.8066 134.91C99.4082 135.355 98.916 135.713 98.3301 135.982C97.7559 136.24 97.0879 136.369 96.3262 136.369C95.5527 136.369 94.8672 136.24 94.2695 135.982C93.6836 135.713 93.1914 135.355 92.793 134.91C92.3945 134.453 92.0898 133.926 91.8789 133.328C91.6797 132.73 91.5801 132.098 91.5801 131.43V130.059ZM94.0059 131.43C94.0059 131.793 94.0469 132.145 94.1289 132.484C94.2227 132.824 94.3574 133.129 94.5332 133.398C94.7207 133.656 94.9609 133.867 95.2539 134.031C95.5469 134.184 95.9043 134.26 96.3262 134.26C96.7363 134.26 97.082 134.184 97.3633 134.031C97.6562 133.867 97.8906 133.656 98.0664 133.398C98.2422 133.129 98.3711 132.824 98.4531 132.484C98.5352 132.145 98.5762 131.793 98.5762 131.43V130.059C98.5762 129.695 98.5352 129.344 98.4531 129.004C98.3711 128.664 98.2363 128.365 98.0488 128.107C97.873 127.838 97.6387 127.627 97.3457 127.475C97.0527 127.311 96.7012 127.229 96.291 127.229C95.8691 127.229 95.5117 127.311 95.2188 127.475C94.9375 127.627 94.7031 127.838 94.5156 128.107C94.3398 128.365 94.2109 128.664 94.1289 129.004C94.0469 129.344 94.0059 129.695 94.0059 130.059V131.43ZM87.2383 132.695L85.2871 131.605L95.2539 113.377L97.2051 114.467L87.2383 132.695ZM164.213 126.701C164.213 128.061 164.049 129.332 163.721 130.516C163.393 131.688 162.912 132.707 162.279 133.574C161.646 134.441 160.861 135.121 159.924 135.613C158.998 136.105 157.938 136.352 156.742 136.352C155.582 136.352 154.557 136.164 153.666 135.789C152.787 135.414 152.031 134.875 151.398 134.172V143.312H148.146V116.98H151.117L151.275 119.055C151.908 118.27 152.67 117.672 153.561 117.262C154.463 116.84 155.506 116.629 156.689 116.629C157.908 116.629 158.986 116.869 159.924 117.35C160.861 117.83 161.646 118.498 162.279 119.354C162.912 120.209 163.393 121.234 163.721 122.43C164.049 123.613 164.213 124.914 164.213 126.332V126.701ZM160.961 126.332C160.961 125.406 160.855 124.527 160.645 123.695C160.445 122.852 160.129 122.113 159.695 121.48C159.273 120.836 158.734 120.326 158.078 119.951C157.422 119.576 156.637 119.389 155.723 119.389C154.68 119.389 153.801 119.635 153.086 120.127C152.383 120.607 151.82 121.229 151.398 121.99V131.148C151.82 131.898 152.383 132.514 153.086 132.994C153.789 133.463 154.68 133.697 155.758 133.697C156.66 133.697 157.439 133.51 158.096 133.135C158.752 132.748 159.291 132.232 159.713 131.588C160.135 130.943 160.445 130.199 160.645 129.355C160.855 128.512 160.961 127.627 160.961 126.701V126.332ZM168.871 126.314C168.871 124.943 169.07 123.672 169.469 122.5C169.867 121.316 170.436 120.291 171.174 119.424C171.924 118.557 172.832 117.877 173.898 117.385C174.965 116.881 176.166 116.629 177.502 116.629C178.85 116.629 180.057 116.881 181.123 117.385C182.201 117.877 183.109 118.557 183.848 119.424C184.598 120.291 185.172 121.316 185.57 122.5C185.969 123.672 186.168 124.943 186.168 126.314V126.701C186.168 128.072 185.969 129.344 185.57 130.516C185.172 131.688 184.598 132.707 183.848 133.574C183.109 134.441 182.207 135.121 181.141 135.613C180.074 136.105 178.873 136.352 177.537 136.352C176.189 136.352 174.977 136.105 173.898 135.613C172.832 135.121 171.924 134.441 171.174 133.574C170.436 132.707 169.867 131.688 169.469 130.516C169.07 129.344 168.871 128.072 168.871 126.701V126.314ZM172.123 126.701C172.123 127.639 172.234 128.535 172.457 129.391C172.68 130.234 173.014 130.979 173.459 131.623C173.916 132.268 174.484 132.777 175.164 133.152C175.844 133.527 176.635 133.715 177.537 133.715C178.428 133.715 179.207 133.527 179.875 133.152C180.555 132.777 181.117 132.268 181.562 131.623C182.02 130.979 182.359 130.234 182.582 129.391C182.805 128.535 182.916 127.639 182.916 126.701V126.314C182.916 125.389 182.799 124.504 182.564 123.66C182.342 122.805 182.002 122.055 181.545 121.41C181.1 120.766 180.537 120.256 179.857 119.881C179.189 119.494 178.404 119.301 177.502 119.301C176.6 119.301 175.814 119.494 175.146 119.881C174.479 120.256 173.916 120.766 173.459 121.41C173.014 122.055 172.68 122.805 172.457 123.66C172.234 124.504 172.123 125.389 172.123 126.314V126.701ZM191.916 109H201.637V133.188H207.842V136H191.916V133.188H198.385V111.83H191.916V109ZM220.023 129.25L220.867 131.553L226.668 116.98H230.307L220.656 138.936C220.434 139.428 220.146 139.949 219.795 140.5C219.455 141.051 219.039 141.561 218.547 142.029C218.055 142.498 217.48 142.891 216.824 143.207C216.168 143.523 215.412 143.682 214.557 143.682C214.404 143.682 214.234 143.67 214.047 143.646C213.859 143.635 213.672 143.611 213.484 143.576C213.297 143.553 213.121 143.523 212.957 143.488C212.793 143.453 212.658 143.424 212.553 143.4L213.08 140.746C213.162 140.746 213.273 140.752 213.414 140.764C213.555 140.775 213.701 140.787 213.854 140.799C214.006 140.811 214.152 140.816 214.293 140.816C214.434 140.828 214.545 140.834 214.627 140.834C215.072 140.834 215.477 140.711 215.84 140.465C216.215 140.219 216.543 139.926 216.824 139.586C217.117 139.246 217.363 138.895 217.562 138.531C217.773 138.168 217.938 137.869 218.055 137.635L219.355 135.104L211.164 116.98H214.803L220.023 129.25ZM243.051 136.352C241.715 136.352 240.484 136.123 239.359 135.666C238.246 135.209 237.291 134.57 236.494 133.75C235.697 132.93 235.076 131.957 234.631 130.832C234.186 129.707 233.963 128.482 233.963 127.158V126.42C233.963 124.885 234.209 123.514 234.701 122.307C235.193 121.088 235.844 120.062 236.652 119.23C237.473 118.387 238.398 117.742 239.43 117.297C240.473 116.852 241.539 116.629 242.629 116.629C244 116.629 245.195 116.869 246.215 117.35C247.246 117.818 248.102 118.475 248.781 119.318C249.461 120.15 249.965 121.135 250.293 122.271C250.633 123.408 250.803 124.639 250.803 125.963V127.422H237.215C237.25 128.289 237.414 129.104 237.707 129.865C238.012 130.627 238.422 131.295 238.938 131.869C239.465 132.432 240.092 132.877 240.818 133.205C241.545 133.533 242.348 133.697 243.227 133.697C244.387 133.697 245.418 133.463 246.32 132.994C247.223 132.525 247.973 131.904 248.57 131.131L250.557 132.678C250.24 133.158 249.842 133.621 249.361 134.066C248.893 134.5 248.348 134.887 247.727 135.227C247.105 135.566 246.402 135.836 245.617 136.035C244.832 136.246 243.977 136.352 243.051 136.352ZM242.629 119.301C241.973 119.301 241.352 119.424 240.766 119.67C240.18 119.904 239.652 120.256 239.184 120.725C238.715 121.182 238.316 121.75 237.988 122.43C237.672 123.098 237.449 123.871 237.32 124.75H247.551V124.504C247.516 123.871 247.393 123.244 247.182 122.623C246.982 122.002 246.684 121.445 246.285 120.953C245.887 120.461 245.383 120.062 244.773 119.758C244.176 119.453 243.461 119.301 242.629 119.301ZM268.908 130.955C268.908 130.568 268.832 130.223 268.68 129.918C268.527 129.602 268.27 129.314 267.906 129.057C267.543 128.799 267.062 128.564 266.465 128.354C265.867 128.131 265.123 127.932 264.232 127.756C263.143 127.533 262.146 127.264 261.244 126.947C260.354 126.631 259.586 126.256 258.941 125.822C258.309 125.377 257.816 124.861 257.465 124.275C257.113 123.678 256.938 122.986 256.938 122.201C256.938 121.428 257.119 120.707 257.482 120.039C257.846 119.359 258.355 118.768 259.012 118.264C259.668 117.76 260.447 117.361 261.35 117.068C262.264 116.775 263.266 116.629 264.355 116.629C265.527 116.629 266.582 116.781 267.52 117.086C268.457 117.391 269.254 117.812 269.91 118.352C270.566 118.891 271.07 119.523 271.422 120.25C271.785 120.965 271.967 121.738 271.967 122.57H268.715C268.715 122.16 268.609 121.762 268.398 121.375C268.188 120.977 267.895 120.625 267.52 120.32C267.145 120.016 266.688 119.77 266.148 119.582C265.621 119.395 265.023 119.301 264.355 119.301C263.664 119.301 263.055 119.377 262.527 119.529C262.012 119.682 261.578 119.887 261.227 120.145C260.887 120.402 260.629 120.701 260.453 121.041C260.277 121.381 260.189 121.732 260.189 122.096C260.189 122.471 260.26 122.805 260.4 123.098C260.541 123.391 260.781 123.654 261.121 123.889C261.473 124.123 261.936 124.334 262.51 124.521C263.096 124.709 263.834 124.891 264.725 125.066C265.896 125.312 266.945 125.6 267.871 125.928C268.797 126.244 269.576 126.631 270.209 127.088C270.842 127.533 271.322 128.055 271.65 128.652C271.99 129.25 272.16 129.941 272.16 130.727C272.16 131.57 271.967 132.338 271.58 133.029C271.205 133.721 270.678 134.312 269.998 134.805C269.318 135.297 268.504 135.678 267.555 135.947C266.605 136.217 265.568 136.352 264.443 136.352C263.154 136.352 262.006 136.182 260.998 135.842C259.99 135.49 259.135 135.033 258.432 134.471C257.74 133.896 257.207 133.234 256.832 132.484C256.469 131.734 256.287 130.955 256.287 130.146H259.539C259.586 130.814 259.762 131.377 260.066 131.834C260.383 132.291 260.77 132.66 261.227 132.941C261.695 133.223 262.211 133.422 262.773 133.539C263.336 133.656 263.893 133.715 264.443 133.715C265.814 133.715 266.898 133.463 267.695 132.959C268.492 132.455 268.896 131.787 268.908 130.955ZM285.59 112.375V116.98H292.832V119.494H285.59V129.83C285.59 130.568 285.684 131.178 285.871 131.658C286.059 132.139 286.316 132.525 286.645 132.818C286.973 133.1 287.348 133.299 287.77 133.416C288.203 133.533 288.66 133.592 289.141 133.592C289.492 133.592 289.855 133.574 290.23 133.539C290.605 133.492 290.969 133.439 291.32 133.381C291.684 133.322 292.018 133.264 292.322 133.205C292.639 133.135 292.896 133.076 293.096 133.029L293.553 135.332C293.283 135.496 292.955 135.643 292.568 135.771C292.182 135.889 291.76 135.988 291.303 136.07C290.846 136.164 290.359 136.234 289.844 136.281C289.34 136.328 288.836 136.352 288.332 136.352C287.488 136.352 286.697 136.234 285.959 136C285.232 135.754 284.6 135.373 284.061 134.857C283.521 134.33 283.094 133.656 282.777 132.836C282.473 132.004 282.32 131.002 282.32 129.83V119.494H277.328V116.98H282.32V112.375H285.59ZM307.914 136.352C306.578 136.352 305.348 136.123 304.223 135.666C303.109 135.209 302.154 134.57 301.357 133.75C300.561 132.93 299.939 131.957 299.494 130.832C299.049 129.707 298.826 128.482 298.826 127.158V126.42C298.826 124.885 299.072 123.514 299.564 122.307C300.057 121.088 300.707 120.062 301.516 119.23C302.336 118.387 303.262 117.742 304.293 117.297C305.336 116.852 306.402 116.629 307.492 116.629C308.863 116.629 310.059 116.869 311.078 117.35C312.109 117.818 312.965 118.475 313.645 119.318C314.324 120.15 314.828 121.135 315.156 122.271C315.496 123.408 315.666 124.639 315.666 125.963V127.422H302.078C302.113 128.289 302.277 129.104 302.57 129.865C302.875 130.627 303.285 131.295 303.801 131.869C304.328 132.432 304.955 132.877 305.682 133.205C306.408 133.533 307.211 133.697 308.09 133.697C309.25 133.697 310.281 133.463 311.184 132.994C312.086 132.525 312.836 131.904 313.434 131.131L315.42 132.678C315.104 133.158 314.705 133.621 314.225 134.066C313.756 134.5 313.211 134.887 312.59 135.227C311.969 135.566 311.266 135.836 310.48 136.035C309.695 136.246 308.84 136.352 307.914 136.352ZM307.492 119.301C306.836 119.301 306.215 119.424 305.629 119.67C305.043 119.904 304.516 120.256 304.047 120.725C303.578 121.182 303.18 121.75 302.852 122.43C302.535 123.098 302.312 123.871 302.184 124.75H312.414V124.504C312.379 123.871 312.256 123.244 312.045 122.623C311.846 122.002 311.547 121.445 311.148 120.953C310.75 120.461 310.246 120.062 309.637 119.758C309.039 119.453 308.324 119.301 307.492 119.301ZM333.596 116.629C333.9 116.629 334.217 116.641 334.545 116.664C334.873 116.676 335.184 116.705 335.477 116.752C335.781 116.787 336.057 116.834 336.303 116.893C336.561 116.951 336.771 117.016 336.936 117.086L336.496 120.268C335.863 120.127 335.26 120.027 334.686 119.969C334.123 119.898 333.531 119.863 332.91 119.863C331.387 119.863 330.15 120.209 329.201 120.9C328.264 121.592 327.572 122.559 327.127 123.801V136H323.857V116.98H326.951L327.109 120.004C327.883 118.961 328.809 118.141 329.887 117.543C330.977 116.934 332.213 116.629 333.596 116.629Z" fill="black"/>
<path d="M53.2422 210.404H56.8105V213.059H53.2422V219H49.9902V213.059H38.3184V211.143L49.7793 193.406H53.2422V210.404ZM41.9219 210.404H49.9902V197.73L49.4629 198.715L41.9219 210.404ZM77.7461 209.209C77.7461 210.838 77.5586 212.285 77.1836 213.551C76.8086 214.805 76.2695 215.865 75.5664 216.732C74.8633 217.588 74.002 218.238 72.9824 218.684C71.9629 219.129 70.7969 219.352 69.4844 219.352C68.1836 219.352 67.0176 219.129 65.9863 218.684C64.9668 218.238 64.0996 217.588 63.3848 216.732C62.6699 215.865 62.1191 214.805 61.7324 213.551C61.3574 212.285 61.1699 210.838 61.1699 209.209V203.215C61.1699 201.586 61.3574 200.145 61.7324 198.891C62.1074 197.625 62.6465 196.559 63.3496 195.691C64.0645 194.824 64.9316 194.168 65.9512 193.723C66.9824 193.266 68.1484 193.037 69.4492 193.037C70.7617 193.037 71.9277 193.266 72.9473 193.723C73.9785 194.168 74.8457 194.824 75.5488 195.691C76.2637 196.559 76.8086 197.625 77.1836 198.891C77.5586 200.145 77.7461 201.586 77.7461 203.215V209.209ZM64.4395 208.559L74.4062 200.912C74.2188 199.213 73.7207 197.924 72.9121 197.045C72.1152 196.154 70.9609 195.709 69.4492 195.709C67.7383 195.709 66.4727 196.289 65.6523 197.449C64.8438 198.598 64.4395 200.279 64.4395 202.494V208.559ZM74.4766 204.023L64.5273 211.635C64.7266 213.287 65.2363 214.547 66.0566 215.414C66.877 216.281 68.0195 216.715 69.4844 216.715C71.207 216.715 72.4668 216.129 73.2637 214.957C74.0723 213.785 74.4766 212.098 74.4766 209.895V204.023ZM81.0156 198.012C81.0156 197.344 81.1152 196.711 81.3145 196.113C81.5254 195.504 81.8242 194.971 82.2109 194.514C82.6094 194.057 83.1016 193.699 83.6875 193.441C84.2734 193.172 84.9473 193.037 85.709 193.037C86.4824 193.037 87.1621 193.172 87.748 193.441C88.3457 193.699 88.8379 194.057 89.2246 194.514C89.623 194.971 89.9219 195.504 90.1211 196.113C90.332 196.711 90.4375 197.344 90.4375 198.012V199.365C90.4375 200.033 90.332 200.666 90.1211 201.264C89.9219 201.861 89.623 202.389 89.2246 202.846C88.8379 203.291 88.3516 203.648 87.7656 203.918C87.1797 204.176 86.5059 204.305 85.7441 204.305C84.9824 204.305 84.3027 204.176 83.7051 203.918C83.1191 203.648 82.627 203.291 82.2285 202.846C81.8301 202.389 81.5254 201.861 81.3145 201.264C81.1152 200.666 81.0156 200.033 81.0156 199.365V198.012ZM83.4414 199.365C83.4414 199.729 83.4824 200.08 83.5645 200.42C83.6465 200.748 83.7812 201.047 83.9688 201.316C84.1562 201.574 84.3906 201.785 84.6719 201.949C84.9648 202.102 85.3223 202.178 85.7441 202.178C86.1543 202.178 86.5 202.102 86.7812 201.949C87.0742 201.785 87.3086 201.574 87.4844 201.316C87.6602 201.047 87.7891 200.748 87.8711 200.42C87.9648 200.08 88.0117 199.729 88.0117 199.365V198.012C88.0117 197.648 87.9648 197.297 87.8711 196.957C87.7891 196.605 87.6543 196.301 87.4668 196.043C87.291 195.773 87.0566 195.562 86.7637 195.41C86.4824 195.246 86.1309 195.164 85.709 195.164C85.2988 195.164 84.9473 195.246 84.6543 195.41C84.373 195.562 84.1387 195.773 83.9512 196.043C83.7754 196.301 83.6465 196.605 83.5645 196.957C83.4824 197.297 83.4414 197.648 83.4414 198.012V199.365ZM91.5801 213.059C91.5801 212.391 91.6797 211.758 91.8789 211.16C92.0898 210.562 92.3945 210.035 92.793 209.578C93.1914 209.121 93.6836 208.764 94.2695 208.506C94.8555 208.236 95.5293 208.102 96.291 208.102C97.0645 208.102 97.7441 208.236 98.3301 208.506C98.916 208.764 99.4082 209.121 99.8066 209.578C100.205 210.035 100.504 210.562 100.703 211.16C100.914 211.758 101.02 212.391 101.02 213.059V214.43C101.02 215.098 100.914 215.73 100.703 216.328C100.504 216.926 100.205 217.453 99.8066 217.91C99.4082 218.355 98.916 218.713 98.3301 218.982C97.7559 219.24 97.0879 219.369 96.3262 219.369C95.5527 219.369 94.8672 219.24 94.2695 218.982C93.6836 218.713 93.1914 218.355 92.793 217.91C92.3945 217.453 92.0898 216.926 91.8789 216.328C91.6797 215.73 91.5801 215.098 91.5801 214.43V213.059ZM94.0059 214.43C94.0059 214.793 94.0469 215.145 94.1289 215.484C94.2227 215.824 94.3574 216.129 94.5332 216.398C94.7207 216.656 94.9609 216.867 95.2539 217.031C95.5469 217.184 95.9043 217.26 96.3262 217.26C96.7363 217.26 97.082 217.184 97.3633 217.031C97.6562 216.867 97.8906 216.656 98.0664 216.398C98.2422 216.129 98.3711 215.824 98.4531 215.484C98.5352 215.145 98.5762 214.793 98.5762 214.43V213.059C98.5762 212.695 98.5352 212.344 98.4531 212.004C98.3711 211.664 98.2363 211.365 98.0488 211.107C97.873 210.838 97.6387 210.627 97.3457 210.475C97.0527 210.311 96.7012 210.229 96.291 210.229C95.8691 210.229 95.5117 210.311 95.2188 210.475C94.9375 210.627 94.7031 210.838 94.5156 211.107C94.3398 211.365 94.2109 211.664 94.1289 212.004C94.0469 212.344 94.0059 212.695 94.0059 213.059V214.43ZM87.2383 215.695L85.2871 214.605L95.2539 196.377L97.2051 197.467L87.2383 215.695ZM155.617 214.324L155.916 215.502L156.232 214.324L161.559 199.98H164.881L157.129 219H154.65L146.828 199.98H150.168L155.617 214.324ZM170.295 199.98H180.016V216.188H186.221V219H170.295V216.188H176.764V202.811H170.295V199.98ZM176.342 194.988C176.342 194.449 176.5 193.998 176.816 193.635C177.145 193.26 177.637 193.072 178.293 193.072C178.938 193.072 179.424 193.26 179.752 193.635C180.08 193.998 180.244 194.449 180.244 194.988C180.244 195.516 180.08 195.955 179.752 196.307C179.424 196.658 178.938 196.834 178.293 196.834C177.637 196.834 177.145 196.658 176.816 196.307C176.5 195.955 176.342 195.516 176.342 194.988ZM204.045 213.955C204.045 213.568 203.969 213.223 203.816 212.918C203.664 212.602 203.406 212.314 203.043 212.057C202.68 211.799 202.199 211.564 201.602 211.354C201.004 211.131 200.26 210.932 199.369 210.756C198.279 210.533 197.283 210.264 196.381 209.947C195.49 209.631 194.723 209.256 194.078 208.822C193.445 208.377 192.953 207.861 192.602 207.275C192.25 206.678 192.074 205.986 192.074 205.201C192.074 204.428 192.256 203.707 192.619 203.039C192.982 202.359 193.492 201.768 194.148 201.264C194.805 200.76 195.584 200.361 196.486 200.068C197.4 199.775 198.402 199.629 199.492 199.629C200.664 199.629 201.719 199.781 202.656 200.086C203.594 200.391 204.391 200.812 205.047 201.352C205.703 201.891 206.207 202.523 206.559 203.25C206.922 203.965 207.104 204.738 207.104 205.57H203.852C203.852 205.16 203.746 204.762 203.535 204.375C203.324 203.977 203.031 203.625 202.656 203.32C202.281 203.016 201.824 202.77 201.285 202.582C200.758 202.395 200.16 202.301 199.492 202.301C198.801 202.301 198.191 202.377 197.664 202.529C197.148 202.682 196.715 202.887 196.363 203.145C196.023 203.402 195.766 203.701 195.59 204.041C195.414 204.381 195.326 204.732 195.326 205.096C195.326 205.471 195.396 205.805 195.537 206.098C195.678 206.391 195.918 206.654 196.258 206.889C196.609 207.123 197.072 207.334 197.646 207.521C198.232 207.709 198.971 207.891 199.861 208.066C201.033 208.312 202.082 208.6 203.008 208.928C203.934 209.244 204.713 209.631 205.346 210.088C205.979 210.533 206.459 211.055 206.787 211.652C207.127 212.25 207.297 212.941 207.297 213.727C207.297 214.57 207.104 215.338 206.717 216.029C206.342 216.721 205.814 217.312 205.135 217.805C204.455 218.297 203.641 218.678 202.691 218.947C201.742 219.217 200.705 219.352 199.58 219.352C198.291 219.352 197.143 219.182 196.135 218.842C195.127 218.49 194.271 218.033 193.568 217.471C192.877 216.896 192.344 216.234 191.969 215.484C191.605 214.734 191.424 213.955 191.424 213.146H194.676C194.723 213.814 194.898 214.377 195.203 214.834C195.52 215.291 195.906 215.66 196.363 215.941C196.832 216.223 197.348 216.422 197.91 216.539C198.473 216.656 199.029 216.715 199.58 216.715C200.951 216.715 202.035 216.463 202.832 215.959C203.629 215.455 204.033 214.787 204.045 213.955ZM221.131 216.715C221.717 216.715 222.285 216.621 222.836 216.434C223.398 216.246 223.896 215.988 224.33 215.66C224.764 215.32 225.109 214.928 225.367 214.482C225.637 214.025 225.777 213.533 225.789 213.006H228.865C228.854 213.85 228.631 214.658 228.197 215.432C227.775 216.193 227.207 216.867 226.492 217.453C225.777 218.027 224.957 218.49 224.031 218.842C223.105 219.182 222.139 219.352 221.131 219.352C219.689 219.352 218.43 219.094 217.352 218.578C216.273 218.062 215.371 217.371 214.645 216.504C213.93 215.625 213.391 214.617 213.027 213.48C212.664 212.332 212.482 211.125 212.482 209.859V209.121C212.482 207.867 212.664 206.666 213.027 205.518C213.391 204.369 213.93 203.361 214.645 202.494C215.371 201.615 216.273 200.918 217.352 200.402C218.43 199.887 219.689 199.629 221.131 199.629C222.256 199.629 223.287 199.811 224.225 200.174C225.174 200.525 225.988 201.012 226.668 201.633C227.359 202.242 227.898 202.969 228.285 203.812C228.672 204.656 228.865 205.559 228.865 206.52H225.789C225.777 205.945 225.648 205.406 225.402 204.902C225.168 204.387 224.846 203.936 224.436 203.549C224.025 203.162 223.533 202.857 222.959 202.635C222.396 202.412 221.787 202.301 221.131 202.301C220.123 202.301 219.273 202.506 218.582 202.916C217.902 203.314 217.352 203.842 216.93 204.498C216.508 205.143 216.203 205.869 216.016 206.678C215.84 207.486 215.752 208.301 215.752 209.121V209.859C215.752 210.691 215.84 211.518 216.016 212.338C216.203 213.146 216.502 213.879 216.912 214.535C217.334 215.18 217.885 215.707 218.564 216.117C219.256 216.516 220.111 216.715 221.131 216.715ZM233.734 209.314C233.734 207.943 233.934 206.672 234.332 205.5C234.73 204.316 235.299 203.291 236.037 202.424C236.787 201.557 237.695 200.877 238.762 200.385C239.828 199.881 241.029 199.629 242.365 199.629C243.713 199.629 244.92 199.881 245.986 200.385C247.064 200.877 247.973 201.557 248.711 202.424C249.461 203.291 250.035 204.316 250.434 205.5C250.832 206.672 251.031 207.943 251.031 209.314V209.701C251.031 211.072 250.832 212.344 250.434 213.516C250.035 214.688 249.461 215.707 248.711 216.574C247.973 217.441 247.07 218.121 246.004 218.613C244.938 219.105 243.736 219.352 242.4 219.352C241.053 219.352 239.84 219.105 238.762 218.613C237.695 218.121 236.787 217.441 236.037 216.574C235.299 215.707 234.73 214.688 234.332 213.516C233.934 212.344 233.734 211.072 233.734 209.701V209.314ZM236.986 209.701C236.986 210.639 237.098 211.535 237.32 212.391C237.543 213.234 237.877 213.979 238.322 214.623C238.779 215.268 239.348 215.777 240.027 216.152C240.707 216.527 241.498 216.715 242.4 216.715C243.291 216.715 244.07 216.527 244.738 216.152C245.418 215.777 245.98 215.268 246.426 214.623C246.883 213.979 247.223 213.234 247.445 212.391C247.668 211.535 247.779 210.639 247.779 209.701V209.314C247.779 208.389 247.662 207.504 247.428 206.66C247.205 205.805 246.865 205.055 246.408 204.41C245.963 203.766 245.4 203.256 244.721 202.881C244.053 202.494 243.268 202.301 242.365 202.301C241.463 202.301 240.678 202.494 240.01 202.881C239.342 203.256 238.779 203.766 238.322 204.41C237.877 205.055 237.543 205.805 237.32 206.66C237.098 207.504 236.986 208.389 236.986 209.314V209.701ZM268.908 213.955C268.908 213.568 268.832 213.223 268.68 212.918C268.527 212.602 268.27 212.314 267.906 212.057C267.543 211.799 267.062 211.564 266.465 211.354C265.867 211.131 265.123 210.932 264.232 210.756C263.143 210.533 262.146 210.264 261.244 209.947C260.354 209.631 259.586 209.256 258.941 208.822C258.309 208.377 257.816 207.861 257.465 207.275C257.113 206.678 256.938 205.986 256.938 205.201C256.938 204.428 257.119 203.707 257.482 203.039C257.846 202.359 258.355 201.768 259.012 201.264C259.668 200.76 260.447 200.361 261.35 200.068C262.264 199.775 263.266 199.629 264.355 199.629C265.527 199.629 266.582 199.781 267.52 200.086C268.457 200.391 269.254 200.812 269.91 201.352C270.566 201.891 271.07 202.523 271.422 203.25C271.785 203.965 271.967 204.738 271.967 205.57H268.715C268.715 205.16 268.609 204.762 268.398 204.375C268.188 203.977 267.895 203.625 267.52 203.32C267.145 203.016 266.688 202.77 266.148 202.582C265.621 202.395 265.023 202.301 264.355 202.301C263.664 202.301 263.055 202.377 262.527 202.529C262.012 202.682 261.578 202.887 261.227 203.145C260.887 203.402 260.629 203.701 260.453 204.041C260.277 204.381 260.189 204.732 260.189 205.096C260.189 205.471 260.26 205.805 260.4 206.098C260.541 206.391 260.781 206.654 261.121 206.889C261.473 207.123 261.936 207.334 262.51 207.521C263.096 207.709 263.834 207.891 264.725 208.066C265.896 208.312 266.945 208.6 267.871 208.928C268.797 209.244 269.576 209.631 270.209 210.088C270.842 210.533 271.322 211.055 271.65 211.652C271.99 212.25 272.16 212.941 272.16 213.727C272.16 214.57 271.967 215.338 271.58 216.029C271.205 216.721 270.678 217.312 269.998 217.805C269.318 218.297 268.504 218.678 267.555 218.947C266.605 219.217 265.568 219.352 264.443 219.352C263.154 219.352 262.006 219.182 260.998 218.842C259.99 218.49 259.135 218.033 258.432 217.471C257.74 216.896 257.207 216.234 256.832 215.484C256.469 214.734 256.287 213.955 256.287 213.146H259.539C259.586 213.814 259.762 214.377 260.066 214.834C260.383 215.291 260.77 215.66 261.227 215.941C261.695 216.223 262.211 216.422 262.773 216.539C263.336 216.656 263.893 216.715 264.443 216.715C265.814 216.715 266.898 216.463 267.695 215.959C268.492 215.455 268.896 214.787 268.908 213.955ZM286.293 219.352C284.957 219.352 283.727 219.123 282.602 218.666C281.488 218.209 280.533 217.57 279.736 216.75C278.939 215.93 278.318 214.957 277.873 213.832C277.428 212.707 277.205 211.482 277.205 210.158V209.42C277.205 207.885 277.451 206.514 277.943 205.307C278.436 204.088 279.086 203.062 279.895 202.23C280.715 201.387 281.641 200.742 282.672 200.297C283.715 199.852 284.781 199.629 285.871 199.629C287.242 199.629 288.438 199.869 289.457 200.35C290.488 200.818 291.344 201.475 292.023 202.318C292.703 203.15 293.207 204.135 293.535 205.271C293.875 206.408 294.045 207.639 294.045 208.963V210.422H280.457C280.492 211.289 280.656 212.104 280.949 212.865C281.254 213.627 281.664 214.295 282.18 214.869C282.707 215.432 283.334 215.877 284.061 216.205C284.787 216.533 285.59 216.697 286.469 216.697C287.629 216.697 288.66 216.463 289.562 215.994C290.465 215.525 291.215 214.904 291.812 214.131L293.799 215.678C293.482 216.158 293.084 216.621 292.604 217.066C292.135 217.5 291.59 217.887 290.969 218.227C290.348 218.566 289.645 218.836 288.859 219.035C288.074 219.246 287.219 219.352 286.293 219.352ZM285.871 202.301C285.215 202.301 284.594 202.424 284.008 202.67C283.422 202.904 282.895 203.256 282.426 203.725C281.957 204.182 281.559 204.75 281.23 205.43C280.914 206.098 280.691 206.871 280.562 207.75H290.793V207.504C290.758 206.871 290.635 206.244 290.424 205.623C290.225 205.002 289.926 204.445 289.527 203.953C289.129 203.461 288.625 203.062 288.016 202.758C287.418 202.453 286.703 202.301 285.871 202.301Z" fill="black"/>
<path d="M155.512 250.324L155.811 251.502L156.127 250.324L161.453 235.98H164.775L157.023 255H154.545L146.723 235.98H150.062L155.512 250.324ZM170.189 235.98H179.91V252.188H186.115V255H170.189V252.188H176.658V238.811H170.189V235.98ZM176.236 230.988C176.236 230.449 176.395 229.998 176.711 229.635C177.039 229.26 177.531 229.072 178.188 229.072C178.832 229.072 179.318 229.26 179.646 229.635C179.975 229.998 180.139 230.449 180.139 230.988C180.139 231.516 179.975 231.955 179.646 232.307C179.318 232.658 178.832 232.834 178.188 232.834C177.531 232.834 177.039 232.658 176.711 232.307C176.395 231.955 176.236 231.516 176.236 230.988ZM203.939 249.955C203.939 249.568 203.863 249.223 203.711 248.918C203.559 248.602 203.301 248.314 202.938 248.057C202.574 247.799 202.094 247.564 201.496 247.354C200.898 247.131 200.154 246.932 199.264 246.756C198.174 246.533 197.178 246.264 196.275 245.947C195.385 245.631 194.617 245.256 193.973 244.822C193.34 244.377 192.848 243.861 192.496 243.275C192.145 242.678 191.969 241.986 191.969 241.201C191.969 240.428 192.15 239.707 192.514 239.039C192.877 238.359 193.387 237.768 194.043 237.264C194.699 236.76 195.479 236.361 196.381 236.068C197.295 235.775 198.297 235.629 199.387 235.629C200.559 235.629 201.613 235.781 202.551 236.086C203.488 236.391 204.285 236.812 204.941 237.352C205.598 237.891 206.102 238.523 206.453 239.25C206.816 239.965 206.998 240.738 206.998 241.57H203.746C203.746 241.16 203.641 240.762 203.43 240.375C203.219 239.977 202.926 239.625 202.551 239.32C202.176 239.016 201.719 238.77 201.18 238.582C200.652 238.395 200.055 238.301 199.387 238.301C198.695 238.301 198.086 238.377 197.559 238.529C197.043 238.682 196.609 238.887 196.258 239.145C195.918 239.402 195.66 239.701 195.484 240.041C195.309 240.381 195.221 240.732 195.221 241.096C195.221 241.471 195.291 241.805 195.432 242.098C195.572 242.391 195.812 242.654 196.152 242.889C196.504 243.123 196.967 243.334 197.541 243.521C198.127 243.709 198.865 243.891 199.756 244.066C200.928 244.312 201.977 244.6 202.902 244.928C203.828 245.244 204.607 245.631 205.24 246.088C205.873 246.533 206.354 247.055 206.682 247.652C207.021 248.25 207.191 248.941 207.191 249.727C207.191 250.57 206.998 251.338 206.611 252.029C206.236 252.721 205.709 253.312 205.029 253.805C204.35 254.297 203.535 254.678 202.586 254.947C201.637 255.217 200.6 255.352 199.475 255.352C198.186 255.352 197.037 255.182 196.029 254.842C195.021 254.49 194.166 254.033 193.463 253.471C192.771 252.896 192.238 252.234 191.863 251.484C191.5 250.734 191.318 249.955 191.318 249.146H194.57C194.617 249.814 194.793 250.377 195.098 250.834C195.414 251.291 195.801 251.66 196.258 251.941C196.727 252.223 197.242 252.422 197.805 252.539C198.367 252.656 198.924 252.715 199.475 252.715C200.846 252.715 201.93 252.463 202.727 251.959C203.523 251.455 203.928 250.787 203.939 249.955ZM218.617 246.123L216.227 248.426V255H212.957V228H216.227V244.523L218.354 242.238L224.594 235.98H228.549L220.85 243.908L229.727 255H225.596L218.617 246.123ZM233.629 245.314C233.629 243.943 233.828 242.672 234.227 241.5C234.625 240.316 235.193 239.291 235.932 238.424C236.682 237.557 237.59 236.877 238.656 236.385C239.723 235.881 240.924 235.629 242.26 235.629C243.607 235.629 244.814 235.881 245.881 236.385C246.959 236.877 247.867 237.557 248.605 238.424C249.355 239.291 249.93 240.316 250.328 241.5C250.727 242.672 250.926 243.943 250.926 245.314V245.701C250.926 247.072 250.727 248.344 250.328 249.516C249.93 250.688 249.355 251.707 248.605 252.574C247.867 253.441 246.965 254.121 245.898 254.613C244.832 255.105 243.631 255.352 242.295 255.352C240.947 255.352 239.734 255.105 238.656 254.613C237.59 254.121 236.682 253.441 235.932 252.574C235.193 251.707 234.625 250.688 234.227 249.516C233.828 248.344 233.629 247.072 233.629 245.701V245.314ZM236.881 245.701C236.881 246.639 236.992 247.535 237.215 248.391C237.438 249.234 237.771 249.979 238.217 250.623C238.674 251.268 239.242 251.777 239.922 252.152C240.602 252.527 241.393 252.715 242.295 252.715C243.186 252.715 243.965 252.527 244.633 252.152C245.312 251.777 245.875 251.268 246.32 250.623C246.777 249.979 247.117 249.234 247.34 248.391C247.562 247.535 247.674 246.639 247.674 245.701V245.314C247.674 244.389 247.557 243.504 247.322 242.66C247.1 241.805 246.76 241.055 246.303 240.41C245.857 239.766 245.295 239.256 244.615 238.881C243.947 238.494 243.162 238.301 242.26 238.301C241.357 238.301 240.572 238.494 239.904 238.881C239.236 239.256 238.674 239.766 238.217 240.41C237.771 241.055 237.438 241.805 237.215 242.66C236.992 243.504 236.881 244.389 236.881 245.314V245.701ZM268.803 249.955C268.803 249.568 268.727 249.223 268.574 248.918C268.422 248.602 268.164 248.314 267.801 248.057C267.438 247.799 266.957 247.564 266.359 247.354C265.762 247.131 265.018 246.932 264.127 246.756C263.037 246.533 262.041 246.264 261.139 245.947C260.248 245.631 259.48 245.256 258.836 244.822C258.203 244.377 257.711 243.861 257.359 243.275C257.008 242.678 256.832 241.986 256.832 241.201C256.832 240.428 257.014 239.707 257.377 239.039C257.74 238.359 258.25 237.768 258.906 237.264C259.562 236.76 260.342 236.361 261.244 236.068C262.158 235.775 263.16 235.629 264.25 235.629C265.422 235.629 266.477 235.781 267.414 236.086C268.352 236.391 269.148 236.812 269.805 237.352C270.461 237.891 270.965 238.523 271.316 239.25C271.68 239.965 271.861 240.738 271.861 241.57H268.609C268.609 241.16 268.504 240.762 268.293 240.375C268.082 239.977 267.789 239.625 267.414 239.32C267.039 239.016 266.582 238.77 266.043 238.582C265.516 238.395 264.918 238.301 264.25 238.301C263.559 238.301 262.949 238.377 262.422 238.529C261.906 238.682 261.473 238.887 261.121 239.145C260.781 239.402 260.523 239.701 260.348 240.041C260.172 240.381 260.084 240.732 260.084 241.096C260.084 241.471 260.154 241.805 260.295 242.098C260.436 242.391 260.676 242.654 261.016 242.889C261.367 243.123 261.83 243.334 262.404 243.521C262.99 243.709 263.729 243.891 264.619 244.066C265.791 244.312 266.84 244.6 267.766 244.928C268.691 245.244 269.471 245.631 270.104 246.088C270.736 246.533 271.217 247.055 271.545 247.652C271.885 248.25 272.055 248.941 272.055 249.727C272.055 250.57 271.861 251.338 271.475 252.029C271.1 252.721 270.572 253.312 269.893 253.805C269.213 254.297 268.398 254.678 267.449 254.947C266.5 255.217 265.463 255.352 264.338 255.352C263.049 255.352 261.9 255.182 260.893 254.842C259.885 254.49 259.029 254.033 258.326 253.471C257.635 252.896 257.102 252.234 256.727 251.484C256.363 250.734 256.182 249.955 256.182 249.146H259.434C259.48 249.814 259.656 250.377 259.961 250.834C260.277 251.291 260.664 251.66 261.121 251.941C261.59 252.223 262.105 252.422 262.668 252.539C263.23 252.656 263.787 252.715 264.338 252.715C265.709 252.715 266.793 252.463 267.59 251.959C268.387 251.455 268.791 250.787 268.803 249.955ZM286.188 255.352C284.852 255.352 283.621 255.123 282.496 254.666C281.383 254.209 280.428 253.57 279.631 252.75C278.834 251.93 278.213 250.957 277.768 249.832C277.322 248.707 277.1 247.482 277.1 246.158V245.42C277.1 243.885 277.346 242.514 277.838 241.307C278.33 240.088 278.98 239.062 279.789 238.23C280.609 237.387 281.535 236.742 282.566 236.297C283.609 235.852 284.676 235.629 285.766 235.629C287.137 235.629 288.332 235.869 289.352 236.35C290.383 236.818 291.238 237.475 291.918 238.318C292.598 239.15 293.102 240.135 293.43 241.271C293.77 242.408 293.939 243.639 293.939 244.963V246.422H280.352C280.387 247.289 280.551 248.104 280.844 248.865C281.148 249.627 281.559 250.295 282.074 250.869C282.602 251.432 283.229 251.877 283.955 252.205C284.682 252.533 285.484 252.697 286.363 252.697C287.523 252.697 288.555 252.463 289.457 251.994C290.359 251.525 291.109 250.904 291.707 250.131L293.693 251.678C293.377 252.158 292.979 252.621 292.498 253.066C292.029 253.5 291.484 253.887 290.863 254.227C290.242 254.566 289.539 254.836 288.754 255.035C287.969 255.246 287.113 255.352 286.188 255.352ZM285.766 238.301C285.109 238.301 284.488 238.424 283.902 238.67C283.316 238.904 282.789 239.256 282.32 239.725C281.852 240.182 281.453 240.75 281.125 241.43C280.809 242.098 280.586 242.871 280.457 243.75H290.688V243.504C290.652 242.871 290.529 242.244 290.318 241.623C290.119 241.002 289.82 240.445 289.422 239.953C289.023 239.461 288.52 239.062 287.91 238.758C287.312 238.453 286.598 238.301 285.766 238.301Z" fill="black"/>
<path d="M164.107 168.701C164.107 170.061 163.943 171.332 163.615 172.516C163.287 173.688 162.807 174.707 162.174 175.574C161.541 176.441 160.756 177.121 159.818 177.613C158.893 178.105 157.832 178.352 156.637 178.352C155.477 178.352 154.451 178.164 153.561 177.789C152.682 177.414 151.926 176.875 151.293 176.172V185.312H148.041V158.98H151.012L151.17 161.055C151.803 160.27 152.564 159.672 153.455 159.262C154.357 158.84 155.4 158.629 156.584 158.629C157.803 158.629 158.881 158.869 159.818 159.35C160.756 159.83 161.541 160.498 162.174 161.354C162.807 162.209 163.287 163.234 163.615 164.43C163.943 165.613 164.107 166.914 164.107 168.332V168.701ZM160.855 168.332C160.855 167.406 160.75 166.527 160.539 165.695C160.34 164.852 160.023 164.113 159.59 163.48C159.168 162.836 158.629 162.326 157.973 161.951C157.316 161.576 156.531 161.389 155.617 161.389C154.574 161.389 153.695 161.635 152.98 162.127C152.277 162.607 151.715 163.229 151.293 163.99V173.148C151.715 173.898 152.277 174.514 152.98 174.994C153.684 175.463 154.574 175.697 155.652 175.697C156.555 175.697 157.334 175.51 157.99 175.135C158.646 174.748 159.186 174.232 159.607 173.588C160.029 172.943 160.34 172.199 160.539 171.355C160.75 170.512 160.855 169.627 160.855 168.701V168.332ZM168.766 168.314C168.766 166.943 168.965 165.672 169.363 164.5C169.762 163.316 170.33 162.291 171.068 161.424C171.818 160.557 172.727 159.877 173.793 159.385C174.859 158.881 176.061 158.629 177.396 158.629C178.744 158.629 179.951 158.881 181.018 159.385C182.096 159.877 183.004 160.557 183.742 161.424C184.492 162.291 185.066 163.316 185.465 164.5C185.863 165.672 186.062 166.943 186.062 168.314V168.701C186.062 170.072 185.863 171.344 185.465 172.516C185.066 173.688 184.492 174.707 183.742 175.574C183.004 176.441 182.102 177.121 181.035 177.613C179.969 178.105 178.768 178.352 177.432 178.352C176.084 178.352 174.871 178.105 173.793 177.613C172.727 177.121 171.818 176.441 171.068 175.574C170.33 174.707 169.762 173.688 169.363 172.516C168.965 171.344 168.766 170.072 168.766 168.701V168.314ZM172.018 168.701C172.018 169.639 172.129 170.535 172.352 171.391C172.574 172.234 172.908 172.979 173.354 173.623C173.811 174.268 174.379 174.777 175.059 175.152C175.738 175.527 176.529 175.715 177.432 175.715C178.322 175.715 179.102 175.527 179.77 175.152C180.449 174.777 181.012 174.268 181.457 173.623C181.914 172.979 182.254 172.234 182.477 171.391C182.699 170.535 182.811 169.639 182.811 168.701V168.314C182.811 167.389 182.693 166.504 182.459 165.66C182.236 164.805 181.896 164.055 181.439 163.41C180.994 162.766 180.432 162.256 179.752 161.881C179.084 161.494 178.299 161.301 177.396 161.301C176.494 161.301 175.709 161.494 175.041 161.881C174.373 162.256 173.811 162.766 173.354 163.41C172.908 164.055 172.574 164.805 172.352 165.66C172.129 166.504 172.018 167.389 172.018 168.314V168.701ZM191.811 151H201.531V175.188H207.736V178H191.811V175.188H198.279V153.83H191.811V151ZM219.918 171.25L220.762 173.553L226.562 158.98H230.201L220.551 180.936C220.328 181.428 220.041 181.949 219.689 182.5C219.35 183.051 218.934 183.561 218.441 184.029C217.949 184.498 217.375 184.891 216.719 185.207C216.062 185.523 215.307 185.682 214.451 185.682C214.299 185.682 214.129 185.67 213.941 185.646C213.754 185.635 213.566 185.611 213.379 185.576C213.191 185.553 213.016 185.523 212.852 185.488C212.688 185.453 212.553 185.424 212.447 185.4L212.975 182.746C213.057 182.746 213.168 182.752 213.309 182.764C213.449 182.775 213.596 182.787 213.748 182.799C213.9 182.811 214.047 182.816 214.188 182.816C214.328 182.828 214.439 182.834 214.521 182.834C214.967 182.834 215.371 182.711 215.734 182.465C216.109 182.219 216.438 181.926 216.719 181.586C217.012 181.246 217.258 180.895 217.457 180.531C217.668 180.168 217.832 179.869 217.949 179.635L219.25 177.104L211.059 158.98H214.697L219.918 171.25ZM242.945 178.352C241.609 178.352 240.379 178.123 239.254 177.666C238.141 177.209 237.186 176.57 236.389 175.75C235.592 174.93 234.971 173.957 234.525 172.832C234.08 171.707 233.857 170.482 233.857 169.158V168.42C233.857 166.885 234.104 165.514 234.596 164.307C235.088 163.088 235.738 162.062 236.547 161.23C237.367 160.387 238.293 159.742 239.324 159.297C240.367 158.852 241.434 158.629 242.523 158.629C243.895 158.629 245.09 158.869 246.109 159.35C247.141 159.818 247.996 160.475 248.676 161.318C249.355 162.15 249.859 163.135 250.188 164.271C250.527 165.408 250.697 166.639 250.697 167.963V169.422H237.109C237.145 170.289 237.309 171.104 237.602 171.865C237.906 172.627 238.316 173.295 238.832 173.869C239.359 174.432 239.986 174.877 240.713 175.205C241.439 175.533 242.242 175.697 243.121 175.697C244.281 175.697 245.312 175.463 246.215 174.994C247.117 174.525 247.867 173.904 248.465 173.131L250.451 174.678C250.135 175.158 249.736 175.621 249.256 176.066C248.787 176.5 248.242 176.887 247.621 177.227C247 177.566 246.297 177.836 245.512 178.035C244.727 178.246 243.871 178.352 242.945 178.352ZM242.523 161.301C241.867 161.301 241.246 161.424 240.66 161.67C240.074 161.904 239.547 162.256 239.078 162.725C238.609 163.182 238.211 163.75 237.883 164.43C237.566 165.098 237.344 165.871 237.215 166.75H247.445V166.504C247.41 165.871 247.287 165.244 247.076 164.623C246.877 164.002 246.578 163.445 246.18 162.953C245.781 162.461 245.277 162.062 244.668 161.758C244.07 161.453 243.355 161.301 242.523 161.301ZM268.803 172.955C268.803 172.568 268.727 172.223 268.574 171.918C268.422 171.602 268.164 171.314 267.801 171.057C267.438 170.799 266.957 170.564 266.359 170.354C265.762 170.131 265.018 169.932 264.127 169.756C263.037 169.533 262.041 169.264 261.139 168.947C260.248 168.631 259.48 168.256 258.836 167.822C258.203 167.377 257.711 166.861 257.359 166.275C257.008 165.678 256.832 164.986 256.832 164.201C256.832 163.428 257.014 162.707 257.377 162.039C257.74 161.359 258.25 160.768 258.906 160.264C259.562 159.76 260.342 159.361 261.244 159.068C262.158 158.775 263.16 158.629 264.25 158.629C265.422 158.629 266.477 158.781 267.414 159.086C268.352 159.391 269.148 159.812 269.805 160.352C270.461 160.891 270.965 161.523 271.316 162.25C271.68 162.965 271.861 163.738 271.861 164.57H268.609C268.609 164.16 268.504 163.762 268.293 163.375C268.082 162.977 267.789 162.625 267.414 162.32C267.039 162.016 266.582 161.77 266.043 161.582C265.516 161.395 264.918 161.301 264.25 161.301C263.559 161.301 262.949 161.377 262.422 161.529C261.906 161.682 261.473 161.887 261.121 162.145C260.781 162.402 260.523 162.701 260.348 163.041C260.172 163.381 260.084 163.732 260.084 164.096C260.084 164.471 260.154 164.805 260.295 165.098C260.436 165.391 260.676 165.654 261.016 165.889C261.367 166.123 261.83 166.334 262.404 166.521C262.99 166.709 263.729 166.891 264.619 167.066C265.791 167.312 266.84 167.6 267.766 167.928C268.691 168.244 269.471 168.631 270.104 169.088C270.736 169.533 271.217 170.055 271.545 170.652C271.885 171.25 272.055 171.941 272.055 172.727C272.055 173.57 271.861 174.338 271.475 175.029C271.1 175.721 270.572 176.312 269.893 176.805C269.213 177.297 268.398 177.678 267.449 177.947C266.5 178.217 265.463 178.352 264.338 178.352C263.049 178.352 261.9 178.182 260.893 177.842C259.885 177.49 259.029 177.033 258.326 176.471C257.635 175.896 257.102 175.234 256.727 174.484C256.363 173.734 256.182 172.955 256.182 172.146H259.434C259.48 172.814 259.656 173.377 259.961 173.834C260.277 174.291 260.664 174.66 261.121 174.941C261.59 175.223 262.105 175.422 262.668 175.539C263.23 175.656 263.787 175.715 264.338 175.715C265.709 175.715 266.793 175.463 267.59 174.959C268.387 174.455 268.791 173.787 268.803 172.955ZM285.484 154.375V158.98H292.727V161.494H285.484V171.83C285.484 172.568 285.578 173.178 285.766 173.658C285.953 174.139 286.211 174.525 286.539 174.818C286.867 175.1 287.242 175.299 287.664 175.416C288.098 175.533 288.555 175.592 289.035 175.592C289.387 175.592 289.75 175.574 290.125 175.539C290.5 175.492 290.863 175.439 291.215 175.381C291.578 175.322 291.912 175.264 292.217 175.205C292.533 175.135 292.791 175.076 292.99 175.029L293.447 177.332C293.178 177.496 292.85 177.643 292.463 177.771C292.076 177.889 291.654 177.988 291.197 178.07C290.74 178.164 290.254 178.234 289.738 178.281C289.234 178.328 288.73 178.352 288.227 178.352C287.383 178.352 286.592 178.234 285.854 178C285.127 177.754 284.494 177.373 283.955 176.857C283.416 176.33 282.988 175.656 282.672 174.836C282.367 174.004 282.215 173.002 282.215 171.83V161.494H277.223V158.98H282.215V154.375H285.484ZM307.809 178.352C306.473 178.352 305.242 178.123 304.117 177.666C303.004 177.209 302.049 176.57 301.252 175.75C300.455 174.93 299.834 173.957 299.389 172.832C298.943 171.707 298.721 170.482 298.721 169.158V168.42C298.721 166.885 298.967 165.514 299.459 164.307C299.951 163.088 300.602 162.062 301.41 161.23C302.23 160.387 303.156 159.742 304.188 159.297C305.23 158.852 306.297 158.629 307.387 158.629C308.758 158.629 309.953 158.869 310.973 159.35C312.004 159.818 312.859 160.475 313.539 161.318C314.219 162.15 314.723 163.135 315.051 164.271C315.391 165.408 315.561 166.639 315.561 167.963V169.422H301.973C302.008 170.289 302.172 171.104 302.465 171.865C302.77 172.627 303.18 173.295 303.695 173.869C304.223 174.432 304.85 174.877 305.576 175.205C306.303 175.533 307.105 175.697 307.984 175.697C309.145 175.697 310.176 175.463 311.078 174.994C311.98 174.525 312.73 173.904 313.328 173.131L315.314 174.678C314.998 175.158 314.6 175.621 314.119 176.066C313.65 176.5 313.105 176.887 312.484 177.227C311.863 177.566 311.16 177.836 310.375 178.035C309.59 178.246 308.734 178.352 307.809 178.352ZM307.387 161.301C306.73 161.301 306.109 161.424 305.523 161.67C304.938 161.904 304.41 162.256 303.941 162.725C303.473 163.182 303.074 163.75 302.746 164.43C302.43 165.098 302.207 165.871 302.078 166.75H312.309V166.504C312.273 165.871 312.15 165.244 311.939 164.623C311.74 164.002 311.441 163.445 311.043 162.953C310.645 162.461 310.141 162.062 309.531 161.758C308.934 161.453 308.219 161.301 307.387 161.301ZM333.49 158.629C333.795 158.629 334.111 158.641 334.439 158.664C334.768 158.676 335.078 158.705 335.371 158.752C335.676 158.787 335.951 158.834 336.197 158.893C336.455 158.951 336.666 159.016 336.83 159.086L336.391 162.268C335.758 162.127 335.154 162.027 334.58 161.969C334.018 161.898 333.426 161.863 332.805 161.863C331.281 161.863 330.045 162.209 329.096 162.9C328.158 163.592 327.467 164.559 327.021 165.801V178H323.752V158.98H326.846L327.004 162.004C327.777 160.961 328.703 160.141 329.781 159.543C330.871 158.934 332.107 158.629 333.49 158.629Z" fill="black"/>
<path d="M156.162 90.7148C156.748 90.7148 157.316 90.6211 157.867 90.4336C158.43 90.2461 158.928 89.9883 159.361 89.6602C159.795 89.3203 160.141 88.9277 160.398 88.4824C160.668 88.0254 160.809 87.5332 160.82 87.0059H163.896C163.885 87.8496 163.662 88.6582 163.229 89.4316C162.807 90.1934 162.238 90.8672 161.523 91.4531C160.809 92.0273 159.988 92.4902 159.062 92.8418C158.137 93.1816 157.17 93.3516 156.162 93.3516C154.721 93.3516 153.461 93.0938 152.383 92.5781C151.305 92.0625 150.402 91.3711 149.676 90.5039C148.961 89.625 148.422 88.6172 148.059 87.4805C147.695 86.332 147.514 85.125 147.514 83.8594V83.1211C147.514 81.8672 147.695 80.666 148.059 79.5176C148.422 78.3691 148.961 77.3613 149.676 76.4941C150.402 75.6152 151.305 74.918 152.383 74.4023C153.461 73.8867 154.721 73.6289 156.162 73.6289C157.287 73.6289 158.318 73.8105 159.256 74.1738C160.205 74.5254 161.02 75.0117 161.699 75.6328C162.391 76.2422 162.93 76.9688 163.316 77.8125C163.703 78.6562 163.896 79.5586 163.896 80.5195H160.82C160.809 79.9453 160.68 79.4062 160.434 78.9023C160.199 78.3867 159.877 77.9355 159.467 77.5488C159.057 77.1621 158.564 76.8574 157.99 76.6348C157.428 76.4121 156.818 76.3008 156.162 76.3008C155.154 76.3008 154.305 76.5059 153.613 76.916C152.934 77.3145 152.383 77.8418 151.961 78.498C151.539 79.1426 151.234 79.8691 151.047 80.6777C150.871 81.4863 150.783 82.3008 150.783 83.1211V83.8594C150.783 84.6914 150.871 85.5176 151.047 86.3379C151.234 87.1465 151.533 87.8789 151.943 88.5352C152.365 89.1797 152.916 89.707 153.596 90.1172C154.287 90.5156 155.143 90.7148 156.162 90.7148ZM168.766 83.3145C168.766 81.9434 168.965 80.6719 169.363 79.5C169.762 78.3164 170.33 77.291 171.068 76.4238C171.818 75.5566 172.727 74.877 173.793 74.3848C174.859 73.8809 176.061 73.6289 177.396 73.6289C178.744 73.6289 179.951 73.8809 181.018 74.3848C182.096 74.877 183.004 75.5566 183.742 76.4238C184.492 77.291 185.066 78.3164 185.465 79.5C185.863 80.6719 186.062 81.9434 186.062 83.3145V83.7012C186.062 85.0723 185.863 86.3438 185.465 87.5156C185.066 88.6875 184.492 89.707 183.742 90.5742C183.004 91.4414 182.102 92.1211 181.035 92.6133C179.969 93.1055 178.768 93.3516 177.432 93.3516C176.084 93.3516 174.871 93.1055 173.793 92.6133C172.727 92.1211 171.818 91.4414 171.068 90.5742C170.33 89.707 169.762 88.6875 169.363 87.5156C168.965 86.3438 168.766 85.0723 168.766 83.7012V83.3145ZM172.018 83.7012C172.018 84.6387 172.129 85.5352 172.352 86.3906C172.574 87.2344 172.908 87.9785 173.354 88.623C173.811 89.2676 174.379 89.7773 175.059 90.1523C175.738 90.5273 176.529 90.7148 177.432 90.7148C178.322 90.7148 179.102 90.5273 179.77 90.1523C180.449 89.7773 181.012 89.2676 181.457 88.623C181.914 87.9785 182.254 87.2344 182.477 86.3906C182.699 85.5352 182.811 84.6387 182.811 83.7012V83.3145C182.811 82.3887 182.693 81.5039 182.459 80.6602C182.236 79.8047 181.896 79.0547 181.439 78.4102C180.994 77.7656 180.432 77.2559 179.752 76.8809C179.084 76.4941 178.299 76.3008 177.396 76.3008C176.494 76.3008 175.709 76.4941 175.041 76.8809C174.373 77.2559 173.811 77.7656 173.354 78.4102C172.908 79.0547 172.574 79.8047 172.352 80.6602C172.129 81.5039 172.018 82.3887 172.018 83.3145V83.7012ZM199 69.375V73.9805H206.242V76.4941H199V86.8301C199 87.5684 199.094 88.1777 199.281 88.6582C199.469 89.1387 199.727 89.5254 200.055 89.8184C200.383 90.0996 200.758 90.2988 201.18 90.416C201.613 90.5332 202.07 90.5918 202.551 90.5918C202.902 90.5918 203.266 90.5742 203.641 90.5391C204.016 90.4922 204.379 90.4395 204.73 90.3809C205.094 90.3223 205.428 90.2637 205.732 90.2051C206.049 90.1348 206.307 90.0762 206.506 90.0293L206.963 92.332C206.693 92.4961 206.365 92.6426 205.979 92.7715C205.592 92.8887 205.17 92.9883 204.713 93.0703C204.256 93.1641 203.77 93.2344 203.254 93.2812C202.75 93.3281 202.246 93.3516 201.742 93.3516C200.898 93.3516 200.107 93.2344 199.369 93C198.643 92.7539 198.01 92.373 197.471 91.8574C196.932 91.3301 196.504 90.6562 196.188 89.8359C195.883 89.0039 195.73 88.002 195.73 86.8301V76.4941H190.738V73.9805H195.73V69.375H199ZM220.621 69.375V73.9805H227.863V76.4941H220.621V86.8301C220.621 87.5684 220.715 88.1777 220.902 88.6582C221.09 89.1387 221.348 89.5254 221.676 89.8184C222.004 90.0996 222.379 90.2988 222.801 90.416C223.234 90.5332 223.691 90.5918 224.172 90.5918C224.523 90.5918 224.887 90.5742 225.262 90.5391C225.637 90.4922 226 90.4395 226.352 90.3809C226.715 90.3223 227.049 90.2637 227.354 90.2051C227.67 90.1348 227.928 90.0762 228.127 90.0293L228.584 92.332C228.314 92.4961 227.986 92.6426 227.6 92.7715C227.213 92.8887 226.791 92.9883 226.334 93.0703C225.877 93.1641 225.391 93.2344 224.875 93.2812C224.371 93.3281 223.867 93.3516 223.363 93.3516C222.52 93.3516 221.729 93.2344 220.99 93C220.264 92.7539 219.631 92.373 219.092 91.8574C218.553 91.3301 218.125 90.6562 217.809 89.8359C217.504 89.0039 217.352 88.002 217.352 86.8301V76.4941H212.359V73.9805H217.352V69.375H220.621ZM233.629 83.3145C233.629 81.9434 233.828 80.6719 234.227 79.5C234.625 78.3164 235.193 77.291 235.932 76.4238C236.682 75.5566 237.59 74.877 238.656 74.3848C239.723 73.8809 240.924 73.6289 242.26 73.6289C243.607 73.6289 244.814 73.8809 245.881 74.3848C246.959 74.877 247.867 75.5566 248.605 76.4238C249.355 77.291 249.93 78.3164 250.328 79.5C250.727 80.6719 250.926 81.9434 250.926 83.3145V83.7012C250.926 85.0723 250.727 86.3438 250.328 87.5156C249.93 88.6875 249.355 89.707 248.605 90.5742C247.867 91.4414 246.965 92.1211 245.898 92.6133C244.832 93.1055 243.631 93.3516 242.295 93.3516C240.947 93.3516 239.734 93.1055 238.656 92.6133C237.59 92.1211 236.682 91.4414 235.932 90.5742C235.193 89.707 234.625 88.6875 234.227 87.5156C233.828 86.3438 233.629 85.0723 233.629 83.7012V83.3145ZM236.881 83.7012C236.881 84.6387 236.992 85.5352 237.215 86.3906C237.438 87.2344 237.771 87.9785 238.217 88.623C238.674 89.2676 239.242 89.7773 239.922 90.1523C240.602 90.5273 241.393 90.7148 242.295 90.7148C243.186 90.7148 243.965 90.5273 244.633 90.1523C245.312 89.7773 245.875 89.2676 246.32 88.623C246.777 87.9785 247.117 87.2344 247.34 86.3906C247.562 85.5352 247.674 84.6387 247.674 83.7012V83.3145C247.674 82.3887 247.557 81.5039 247.322 80.6602C247.1 79.8047 246.76 79.0547 246.303 78.4102C245.857 77.7656 245.295 77.2559 244.615 76.8809C243.947 76.4941 243.162 76.3008 242.26 76.3008C241.357 76.3008 240.572 76.4941 239.904 76.8809C239.236 77.2559 238.674 77.7656 238.217 78.4102C237.771 79.0547 237.438 79.8047 237.215 80.6602C236.992 81.5039 236.881 82.3887 236.881 83.3145V83.7012ZM259.082 73.9805L259.311 76.793C260.002 75.8086 260.852 75.041 261.859 74.4902C262.867 73.9277 263.992 73.6406 265.234 73.6289C266.23 73.6289 267.133 73.7695 267.941 74.0508C268.762 74.332 269.459 74.7715 270.033 75.3691C270.607 75.9668 271.047 76.7285 271.352 77.6543C271.668 78.5684 271.826 79.6582 271.826 80.9238V93H268.574V80.9941C268.574 80.1504 268.48 79.4355 268.293 78.8496C268.105 78.2637 267.824 77.7891 267.449 77.4258C267.086 77.0625 266.635 76.7988 266.096 76.6348C265.568 76.4707 264.959 76.3887 264.268 76.3887C263.178 76.3887 262.217 76.6641 261.385 77.2148C260.564 77.7539 259.908 78.4688 259.416 79.3594V93H256.164V73.9805H259.082Z" fill="black"/>
<path d="M43.8555 38.6387H46.1758C46.9961 38.6387 47.7168 38.5273 48.3379 38.3047C48.9707 38.082 49.498 37.7773 49.9199 37.3906C50.3535 37.0039 50.6816 36.541 50.9043 36.002C51.127 35.4629 51.2383 34.8711 51.2383 34.2266C51.2383 32.7383 50.8574 31.6191 50.0957 30.8691C49.334 30.1074 48.2207 29.7266 46.7559 29.7266C46.0645 29.7266 45.4316 29.832 44.8574 30.043C44.2949 30.2422 43.8086 30.5352 43.3984 30.9219C43 31.3086 42.6895 31.7715 42.4668 32.3105C42.2441 32.8496 42.1328 33.4531 42.1328 34.1211H38.8633C38.8633 33.1484 39.0508 32.2344 39.4258 31.3789C39.8125 30.5117 40.3516 29.7617 41.043 29.1289C41.7344 28.4844 42.5605 27.9805 43.5215 27.6172C44.4941 27.2422 45.5723 27.0547 46.7559 27.0547C47.9043 27.0547 48.9531 27.2129 49.9023 27.5293C50.8516 27.834 51.666 28.291 52.3457 28.9004C53.0254 29.5098 53.5527 30.2656 53.9277 31.168C54.3027 32.0703 54.4902 33.1133 54.4902 34.2969C54.4902 34.7891 54.4141 35.2988 54.2617 35.8262C54.1094 36.3535 53.875 36.8691 53.5586 37.373C53.2422 37.8652 52.832 38.334 52.3281 38.7793C51.8359 39.2129 51.2441 39.5762 50.5527 39.8691C51.3848 40.1387 52.0762 40.4902 52.627 40.9238C53.1895 41.3574 53.6348 41.8438 53.9629 42.3828C54.3027 42.9219 54.5371 43.4902 54.666 44.0879C54.8066 44.6855 54.877 45.2773 54.877 45.8633C54.877 47.0586 54.6719 48.1191 54.2617 49.0449C53.8516 49.9707 53.2832 50.7559 52.5566 51.4004C51.8301 52.0332 50.9688 52.5195 49.9727 52.8594C48.9883 53.1875 47.9219 53.3516 46.7734 53.3516C45.6484 53.3516 44.5879 53.1934 43.5918 52.877C42.6074 52.5605 41.752 52.0977 41.0254 51.4883C40.2988 50.8789 39.7188 50.1348 39.2852 49.2559C38.8633 48.377 38.6523 47.375 38.6523 46.25H41.9043C41.9043 46.918 42.0156 47.5273 42.2383 48.0781C42.4727 48.6289 42.8008 49.0977 43.2227 49.4844C43.6445 49.8711 44.1543 50.1699 44.752 50.3809C45.3613 50.5918 46.0352 50.6973 46.7734 50.6973C47.5117 50.6973 48.1797 50.6035 48.7773 50.416C49.375 50.2168 49.8848 49.918 50.3066 49.5195C50.7285 49.1211 51.0508 48.6289 51.2734 48.043C51.5078 47.4453 51.625 46.7422 51.625 45.9336C51.625 45.1367 51.4902 44.4512 51.2207 43.877C50.9629 43.291 50.5938 42.8047 50.1133 42.418C49.6445 42.0312 49.0703 41.7441 48.3906 41.5566C47.7227 41.3691 46.9844 41.2754 46.1758 41.2754H43.8555V38.6387ZM77.7461 43.209C77.7461 44.8379 77.5586 46.2852 77.1836 47.5508C76.8086 48.8047 76.2695 49.8652 75.5664 50.7324C74.8633 51.5879 74.002 52.2383 72.9824 52.6836C71.9629 53.1289 70.7969 53.3516 69.4844 53.3516C68.1836 53.3516 67.0176 53.1289 65.9863 52.6836C64.9668 52.2383 64.0996 51.5879 63.3848 50.7324C62.6699 49.8652 62.1191 48.8047 61.7324 47.5508C61.3574 46.2852 61.1699 44.8379 61.1699 43.209V37.2148C61.1699 35.5859 61.3574 34.1445 61.7324 32.8906C62.1074 31.625 62.6465 30.5586 63.3496 29.6914C64.0645 28.8242 64.9316 28.168 65.9512 27.7227C66.9824 27.2656 68.1484 27.0371 69.4492 27.0371C70.7617 27.0371 71.9277 27.2656 72.9473 27.7227C73.9785 28.168 74.8457 28.8242 75.5488 29.6914C76.2637 30.5586 76.8086 31.625 77.1836 32.8906C77.5586 34.1445 77.7461 35.5859 77.7461 37.2148V43.209ZM64.4395 42.5586L74.4062 34.9121C74.2188 33.2129 73.7207 31.9238 72.9121 31.0449C72.1152 30.1543 70.9609 29.709 69.4492 29.709C67.7383 29.709 66.4727 30.2891 65.6523 31.4492C64.8438 32.5977 64.4395 34.2793 64.4395 36.4941V42.5586ZM74.4766 38.0234L64.5273 45.6348C64.7266 47.2871 65.2363 48.5469 66.0566 49.4141C66.877 50.2812 68.0195 50.7148 69.4844 50.7148C71.207 50.7148 72.4668 50.1289 73.2637 48.957C74.0723 47.7852 74.4766 46.0977 74.4766 43.8945V38.0234ZM81.0156 32.0117C81.0156 31.3438 81.1152 30.7109 81.3145 30.1133C81.5254 29.5039 81.8242 28.9707 82.2109 28.5137C82.6094 28.0566 83.1016 27.6992 83.6875 27.4414C84.2734 27.1719 84.9473 27.0371 85.709 27.0371C86.4824 27.0371 87.1621 27.1719 87.748 27.4414C88.3457 27.6992 88.8379 28.0566 89.2246 28.5137C89.623 28.9707 89.9219 29.5039 90.1211 30.1133C90.332 30.7109 90.4375 31.3438 90.4375 32.0117V33.3652C90.4375 34.0332 90.332 34.666 90.1211 35.2637C89.9219 35.8613 89.623 36.3887 89.2246 36.8457C88.8379 37.291 88.3516 37.6484 87.7656 37.918C87.1797 38.1758 86.5059 38.3047 85.7441 38.3047C84.9824 38.3047 84.3027 38.1758 83.7051 37.918C83.1191 37.6484 82.627 37.291 82.2285 36.8457C81.8301 36.3887 81.5254 35.8613 81.3145 35.2637C81.1152 34.666 81.0156 34.0332 81.0156 33.3652V32.0117ZM83.4414 33.3652C83.4414 33.7285 83.4824 34.0801 83.5645 34.4199C83.6465 34.748 83.7812 35.0469 83.9688 35.3164C84.1562 35.5742 84.3906 35.7852 84.6719 35.9492C84.9648 36.1016 85.3223 36.1777 85.7441 36.1777C86.1543 36.1777 86.5 36.1016 86.7812 35.9492C87.0742 35.7852 87.3086 35.5742 87.4844 35.3164C87.6602 35.0469 87.7891 34.748 87.8711 34.4199C87.9648 34.0801 88.0117 33.7285 88.0117 33.3652V32.0117C88.0117 31.6484 87.9648 31.2969 87.8711 30.957C87.7891 30.6055 87.6543 30.3008 87.4668 30.043C87.291 29.7734 87.0566 29.5625 86.7637 29.4102C86.4824 29.2461 86.1309 29.1641 85.709 29.1641C85.2988 29.1641 84.9473 29.2461 84.6543 29.4102C84.373 29.5625 84.1387 29.7734 83.9512 30.043C83.7754 30.3008 83.6465 30.6055 83.5645 30.957C83.4824 31.2969 83.4414 31.6484 83.4414 32.0117V33.3652ZM91.5801 47.0586C91.5801 46.3906 91.6797 45.7578 91.8789 45.1602C92.0898 44.5625 92.3945 44.0352 92.793 43.5781C93.1914 43.1211 93.6836 42.7637 94.2695 42.5059C94.8555 42.2363 95.5293 42.1016 96.291 42.1016C97.0645 42.1016 97.7441 42.2363 98.3301 42.5059C98.916 42.7637 99.4082 43.1211 99.8066 43.5781C100.205 44.0352 100.504 44.5625 100.703 45.1602C100.914 45.7578 101.02 46.3906 101.02 47.0586V48.4297C101.02 49.0977 100.914 49.7305 100.703 50.3281C100.504 50.9258 100.205 51.4531 99.8066 51.9102C99.4082 52.3555 98.916 52.7129 98.3301 52.9824C97.7559 53.2402 97.0879 53.3691 96.3262 53.3691C95.5527 53.3691 94.8672 53.2402 94.2695 52.9824C93.6836 52.7129 93.1914 52.3555 92.793 51.9102C92.3945 51.4531 92.0898 50.9258 91.8789 50.3281C91.6797 49.7305 91.5801 49.0977 91.5801 48.4297V47.0586ZM94.0059 48.4297C94.0059 48.793 94.0469 49.1445 94.1289 49.4844C94.2227 49.8242 94.3574 50.1289 94.5332 50.3984C94.7207 50.6562 94.9609 50.8672 95.2539 51.0312C95.5469 51.1836 95.9043 51.2598 96.3262 51.2598C96.7363 51.2598 97.082 51.1836 97.3633 51.0312C97.6562 50.8672 97.8906 50.6562 98.0664 50.3984C98.2422 50.1289 98.3711 49.8242 98.4531 49.4844C98.5352 49.1445 98.5762 48.793 98.5762 48.4297V47.0586C98.5762 46.6953 98.5352 46.3438 98.4531 46.0039C98.3711 45.6641 98.2363 45.3652 98.0488 45.1074C97.873 44.8379 97.6387 44.627 97.3457 44.4746C97.0527 44.3105 96.7012 44.2285 96.291 44.2285C95.8691 44.2285 95.5117 44.3105 95.2188 44.4746C94.9375 44.627 94.7031 44.8379 94.5156 45.1074C94.3398 45.3652 94.2109 45.6641 94.1289 46.0039C94.0469 46.3438 94.0059 46.6953 94.0059 47.0586V48.4297ZM87.2383 49.6953L85.2871 48.6055L95.2539 30.377L97.2051 31.4668L87.2383 49.6953ZM156.268 50.7148C156.854 50.7148 157.422 50.6211 157.973 50.4336C158.535 50.2461 159.033 49.9883 159.467 49.6602C159.9 49.3203 160.246 48.9277 160.504 48.4824C160.773 48.0254 160.914 47.5332 160.926 47.0059H164.002C163.99 47.8496 163.768 48.6582 163.334 49.4316C162.912 50.1934 162.344 50.8672 161.629 51.4531C160.914 52.0273 160.094 52.4902 159.168 52.8418C158.242 53.1816 157.275 53.3516 156.268 53.3516C154.826 53.3516 153.566 53.0938 152.488 52.5781C151.41 52.0625 150.508 51.3711 149.781 50.5039C149.066 49.625 148.527 48.6172 148.164 47.4805C147.801 46.332 147.619 45.125 147.619 43.8594V43.1211C147.619 41.8672 147.801 40.666 148.164 39.5176C148.527 38.3691 149.066 37.3613 149.781 36.4941C150.508 35.6152 151.41 34.918 152.488 34.4023C153.566 33.8867 154.826 33.6289 156.268 33.6289C157.393 33.6289 158.424 33.8105 159.361 34.1738C160.311 34.5254 161.125 35.0117 161.805 35.6328C162.496 36.2422 163.035 36.9688 163.422 37.8125C163.809 38.6562 164.002 39.5586 164.002 40.5195H160.926C160.914 39.9453 160.785 39.4062 160.539 38.9023C160.305 38.3867 159.982 37.9355 159.572 37.5488C159.162 37.1621 158.67 36.8574 158.096 36.6348C157.533 36.4121 156.924 36.3008 156.268 36.3008C155.26 36.3008 154.41 36.5059 153.719 36.916C153.039 37.3145 152.488 37.8418 152.066 38.498C151.645 39.1426 151.34 39.8691 151.152 40.6777C150.977 41.4863 150.889 42.3008 150.889 43.1211V43.8594C150.889 44.6914 150.977 45.5176 151.152 46.3379C151.34 47.1465 151.639 47.8789 152.049 48.5352C152.471 49.1797 153.021 49.707 153.701 50.1172C154.393 50.5156 155.248 50.7148 156.268 50.7148ZM168.871 43.3145C168.871 41.9434 169.07 40.6719 169.469 39.5C169.867 38.3164 170.436 37.291 171.174 36.4238C171.924 35.5566 172.832 34.877 173.898 34.3848C174.965 33.8809 176.166 33.6289 177.502 33.6289C178.85 33.6289 180.057 33.8809 181.123 34.3848C182.201 34.877 183.109 35.5566 183.848 36.4238C184.598 37.291 185.172 38.3164 185.57 39.5C185.969 40.6719 186.168 41.9434 186.168 43.3145V43.7012C186.168 45.0723 185.969 46.3438 185.57 47.5156C185.172 48.6875 184.598 49.707 183.848 50.5742C183.109 51.4414 182.207 52.1211 181.141 52.6133C180.074 53.1055 178.873 53.3516 177.537 53.3516C176.189 53.3516 174.977 53.1055 173.898 52.6133C172.832 52.1211 171.924 51.4414 171.174 50.5742C170.436 49.707 169.867 48.6875 169.469 47.5156C169.07 46.3438 168.871 45.0723 168.871 43.7012V43.3145ZM172.123 43.7012C172.123 44.6387 172.234 45.5352 172.457 46.3906C172.68 47.2344 173.014 47.9785 173.459 48.623C173.916 49.2676 174.484 49.7773 175.164 50.1523C175.844 50.5273 176.635 50.7148 177.537 50.7148C178.428 50.7148 179.207 50.5273 179.875 50.1523C180.555 49.7773 181.117 49.2676 181.562 48.623C182.02 47.9785 182.359 47.2344 182.582 46.3906C182.805 45.5352 182.916 44.6387 182.916 43.7012V43.3145C182.916 42.3887 182.799 41.5039 182.564 40.6602C182.342 39.8047 182.002 39.0547 181.545 38.4102C181.1 37.7656 180.537 37.2559 179.857 36.8809C179.189 36.4941 178.404 36.3008 177.502 36.3008C176.6 36.3008 175.814 36.4941 175.146 36.8809C174.479 37.2559 173.916 37.7656 173.459 38.4102C173.014 39.0547 172.68 39.8047 172.457 40.6602C172.234 41.5039 172.123 42.3887 172.123 43.3145V43.7012ZM199.105 29.375V33.9805H206.348V36.4941H199.105V46.8301C199.105 47.5684 199.199 48.1777 199.387 48.6582C199.574 49.1387 199.832 49.5254 200.16 49.8184C200.488 50.0996 200.863 50.2988 201.285 50.416C201.719 50.5332 202.176 50.5918 202.656 50.5918C203.008 50.5918 203.371 50.5742 203.746 50.5391C204.121 50.4922 204.484 50.4395 204.836 50.3809C205.199 50.3223 205.533 50.2637 205.838 50.2051C206.154 50.1348 206.412 50.0762 206.611 50.0293L207.068 52.332C206.799 52.4961 206.471 52.6426 206.084 52.7715C205.697 52.8887 205.275 52.9883 204.818 53.0703C204.361 53.1641 203.875 53.2344 203.359 53.2812C202.855 53.3281 202.352 53.3516 201.848 53.3516C201.004 53.3516 200.213 53.2344 199.475 53C198.748 52.7539 198.115 52.373 197.576 51.8574C197.037 51.3301 196.609 50.6562 196.293 49.8359C195.988 49.0039 195.836 48.002 195.836 46.8301V36.4941H190.844V33.9805H195.836V29.375H199.105ZM212.113 43.3145C212.113 41.9434 212.312 40.6719 212.711 39.5C213.109 38.3164 213.678 37.291 214.416 36.4238C215.166 35.5566 216.074 34.877 217.141 34.3848C218.207 33.8809 219.408 33.6289 220.744 33.6289C222.092 33.6289 223.299 33.8809 224.365 34.3848C225.443 34.877 226.352 35.5566 227.09 36.4238C227.84 37.291 228.414 38.3164 228.812 39.5C229.211 40.6719 229.41 41.9434 229.41 43.3145V43.7012C229.41 45.0723 229.211 46.3438 228.812 47.5156C228.414 48.6875 227.84 49.707 227.09 50.5742C226.352 51.4414 225.449 52.1211 224.383 52.6133C223.316 53.1055 222.115 53.3516 220.779 53.3516C219.432 53.3516 218.219 53.1055 217.141 52.6133C216.074 52.1211 215.166 51.4414 214.416 50.5742C213.678 49.707 213.109 48.6875 212.711 47.5156C212.312 46.3438 212.113 45.0723 212.113 43.7012V43.3145ZM215.365 43.7012C215.365 44.6387 215.477 45.5352 215.699 46.3906C215.922 47.2344 216.256 47.9785 216.701 48.623C217.158 49.2676 217.727 49.7773 218.406 50.1523C219.086 50.5273 219.877 50.7148 220.779 50.7148C221.67 50.7148 222.449 50.5273 223.117 50.1523C223.797 49.7773 224.359 49.2676 224.805 48.623C225.262 47.9785 225.602 47.2344 225.824 46.3906C226.047 45.5352 226.158 44.6387 226.158 43.7012V43.3145C226.158 42.3887 226.041 41.5039 225.807 40.6602C225.584 39.8047 225.244 39.0547 224.787 38.4102C224.342 37.7656 223.779 37.2559 223.1 36.8809C222.432 36.4941 221.646 36.3008 220.744 36.3008C219.842 36.3008 219.057 36.4941 218.389 36.8809C217.721 37.2559 217.158 37.7656 216.701 38.4102C216.256 39.0547 215.922 39.8047 215.699 40.6602C215.477 41.5039 215.365 42.3887 215.365 43.3145V43.7012ZM237.566 33.9805L237.795 36.793C238.486 35.8086 239.336 35.041 240.344 34.4902C241.352 33.9277 242.477 33.6406 243.719 33.6289C244.715 33.6289 245.617 33.7695 246.426 34.0508C247.246 34.332 247.943 34.7715 248.518 35.3691C249.092 35.9668 249.531 36.7285 249.836 37.6543C250.152 38.5684 250.311 39.6582 250.311 40.9238V53H247.059V40.9941C247.059 40.1504 246.965 39.4355 246.777 38.8496C246.59 38.2637 246.309 37.7891 245.934 37.4258C245.57 37.0625 245.119 36.7988 244.58 36.6348C244.053 36.4707 243.443 36.3887 242.752 36.3887C241.662 36.3887 240.701 36.6641 239.869 37.2148C239.049 37.7539 238.393 38.4688 237.9 39.3594V53H234.648V33.9805H237.566Z" fill="black"/>
<path d="M129.458 334L158 285.938L186.542 334H129.458Z" stroke="black" stroke-width="3"/>
<path d="M125 284L195 333" stroke="black" stroke-width="2"/>
<path d="M188 285L122 333" stroke="black" stroke-width="2"/>
<path d="M218.011 312.419L264.812 312.358L270.028 333.557L212.039 333.449L218.011 312.419Z" stroke="black" stroke-width="3"/>
<path d="M265 312L262.498 306.011L218.999 306.004" stroke="black" stroke-width="3"/>
<circle cx="234" cy="323" r="3" fill="black"/>
<circle cx="249" cy="323" r="3" fill="black"/>
<path d="M333.5 318C333.5 328.183 325.029 336.5 314.5 336.5C303.971 336.5 295.5 328.183 295.5 318C295.5 307.817 303.971 299.5 314.5 299.5C325.029 299.5 333.5 307.817 333.5 318Z" stroke="black" stroke-width="3"/>
<path d="M311.299 320.178V328H307.183V306.672H314.478C315.64 306.672 316.689 306.843 317.627 307.185C318.564 307.517 319.36 307.985 320.015 308.591C320.679 309.187 321.187 309.904 321.538 310.744C321.899 311.584 322.08 312.517 322.08 313.542C322.08 314.499 321.899 315.383 321.538 316.193C321.187 317.004 320.679 317.707 320.015 318.303C319.36 318.889 318.564 319.348 317.627 319.68C316.689 320.012 315.64 320.178 314.478 320.178H311.299ZM311.299 316.838H314.478C315.063 316.838 315.571 316.75 316.001 316.574C316.431 316.398 316.787 316.159 317.07 315.856C317.363 315.554 317.578 315.207 317.715 314.816C317.861 314.416 317.935 314.001 317.935 313.571C317.935 313.073 317.861 312.609 317.715 312.18C317.578 311.75 317.363 311.374 317.07 311.052C316.787 310.729 316.431 310.476 316.001 310.29C315.571 310.104 315.063 310.012 314.478 310.012H311.299V316.838Z" fill="black"/>
<path d="M86.2188 381.465H79.1172V389H76.9258V371.938H87.4023V373.789H79.1172V379.625H86.2188V381.465ZM99.4727 389C99.3867 388.836 99.3164 388.633 99.2617 388.391C99.2148 388.141 99.1797 387.883 99.1562 387.617C98.9375 387.836 98.6914 388.043 98.418 388.238C98.1523 388.434 97.8555 388.605 97.5273 388.754C97.207 388.902 96.8633 389.02 96.4961 389.105C96.1289 389.191 95.7383 389.234 95.3242 389.234C94.6523 389.234 94.043 389.137 93.4961 388.941C92.957 388.746 92.4961 388.484 92.1133 388.156C91.7383 387.82 91.4453 387.426 91.2344 386.973C91.0312 386.512 90.9297 386.016 90.9297 385.484C90.9297 384.789 91.0664 384.18 91.3398 383.656C91.6211 383.133 92.0156 382.699 92.5234 382.355C93.0312 382.004 93.6406 381.742 94.3516 381.57C95.0703 381.398 95.8711 381.312 96.7539 381.312H99.1211V380.316C99.1211 379.934 99.0508 379.59 98.9102 379.285C98.7695 378.98 98.5703 378.723 98.3125 378.512C98.0547 378.293 97.7383 378.125 97.3633 378.008C96.9961 377.891 96.582 377.832 96.1211 377.832C95.6914 377.832 95.3047 377.887 94.9609 377.996C94.625 378.105 94.3398 378.25 94.1055 378.43C93.8711 378.609 93.6875 378.824 93.5547 379.074C93.4297 379.316 93.3672 379.57 93.3672 379.836H91.1875C91.1953 379.375 91.3125 378.922 91.5391 378.477C91.7734 378.031 92.1055 377.633 92.5352 377.281C92.9727 376.922 93.5 376.633 94.1172 376.414C94.7422 376.195 95.4492 376.086 96.2383 376.086C96.957 376.086 97.625 376.176 98.2422 376.355C98.8594 376.527 99.3906 376.793 99.8359 377.152C100.289 377.504 100.645 377.945 100.902 378.477C101.16 379.008 101.289 379.629 101.289 380.34V386.234C101.289 386.656 101.328 387.105 101.406 387.582C101.484 388.051 101.594 388.461 101.734 388.812V389H99.4727ZM95.6406 387.348C96.0625 387.348 96.457 387.293 96.8242 387.184C97.1914 387.074 97.5234 386.93 97.8203 386.75C98.125 386.57 98.3867 386.367 98.6055 386.141C98.8242 385.906 98.9961 385.664 99.1211 385.414V382.848H97.1055C95.8398 382.848 94.8555 383.035 94.1523 383.41C93.4492 383.785 93.0977 384.375 93.0977 385.18C93.0977 385.492 93.1484 385.781 93.25 386.047C93.3594 386.312 93.5195 386.543 93.7305 386.738C93.9414 386.926 94.207 387.074 94.5273 387.184C94.8477 387.293 95.2188 387.348 95.6406 387.348ZM116.301 382.801C116.301 383.707 116.191 384.555 115.973 385.344C115.754 386.125 115.434 386.805 115.012 387.383C114.59 387.961 114.066 388.414 113.441 388.742C112.824 389.07 112.113 389.234 111.309 389.234C110.496 389.234 109.789 389.09 109.188 388.801C108.594 388.512 108.086 388.098 107.664 387.559L107.559 389H105.566V371H107.734V377.68C108.148 377.164 108.648 376.77 109.234 376.496C109.82 376.223 110.504 376.086 111.285 376.086C112.098 376.086 112.816 376.246 113.441 376.566C114.066 376.887 114.59 377.332 115.012 377.902C115.434 378.473 115.754 379.156 115.973 379.953C116.191 380.742 116.301 381.609 116.301 382.555V382.801ZM114.133 382.555C114.133 381.938 114.07 381.352 113.945 380.797C113.828 380.234 113.637 379.742 113.371 379.32C113.105 378.891 112.758 378.551 112.328 378.301C111.898 378.051 111.371 377.926 110.746 377.926C110.371 377.926 110.027 377.977 109.715 378.078C109.402 378.172 109.121 378.309 108.871 378.488C108.629 378.66 108.41 378.867 108.215 379.109C108.027 379.344 107.867 379.602 107.734 379.883V385.426C107.875 385.707 108.039 385.969 108.227 386.211C108.422 386.445 108.645 386.652 108.895 386.832C109.145 387.012 109.426 387.152 109.738 387.254C110.051 387.348 110.395 387.395 110.77 387.395C111.363 387.395 111.871 387.273 112.293 387.031C112.723 386.781 113.07 386.445 113.336 386.023C113.609 385.602 113.809 385.113 113.934 384.559C114.066 384.004 114.133 383.418 114.133 382.801V382.555ZM128.277 376.086C128.48 376.086 128.691 376.094 128.91 376.109C129.129 376.117 129.336 376.137 129.531 376.168C129.734 376.191 129.918 376.223 130.082 376.262C130.254 376.301 130.395 376.344 130.504 376.391L130.211 378.512C129.789 378.418 129.387 378.352 129.004 378.312C128.629 378.266 128.234 378.242 127.82 378.242C126.805 378.242 125.98 378.473 125.348 378.934C124.723 379.395 124.262 380.039 123.965 380.867V389H121.785V376.32H123.848L123.953 378.336C124.469 377.641 125.086 377.094 125.805 376.695C126.531 376.289 127.355 376.086 128.277 376.086ZM134.723 376.32H141.203V387.125H145.34V389H134.723V387.125H139.035V378.207H134.723V376.32ZM138.754 372.992C138.754 372.633 138.859 372.332 139.07 372.09C139.289 371.84 139.617 371.715 140.055 371.715C140.484 371.715 140.809 371.84 141.027 372.09C141.246 372.332 141.355 372.633 141.355 372.992C141.355 373.344 141.246 373.637 141.027 373.871C140.809 374.105 140.484 374.223 140.055 374.223C139.617 374.223 139.289 374.105 139.07 373.871C138.859 373.637 138.754 373.344 138.754 372.992ZM148.398 382.555C148.398 381.609 148.512 380.742 148.738 379.953C148.965 379.156 149.297 378.473 149.734 377.902C150.172 377.332 150.707 376.887 151.34 376.566C151.98 376.246 152.707 376.086 153.52 376.086C154.27 376.086 154.93 376.215 155.5 376.473C156.078 376.723 156.578 377.09 157 377.574L157.094 376.32H159.086V393.875H156.918V387.852C156.496 388.297 156.004 388.641 155.441 388.883C154.879 389.117 154.23 389.234 153.496 389.234C152.691 389.234 151.973 389.07 151.34 388.742C150.715 388.414 150.184 387.961 149.746 387.383C149.309 386.805 148.973 386.125 148.738 385.344C148.512 384.555 148.398 383.707 148.398 382.801V382.555ZM150.566 382.801C150.566 383.418 150.633 384.008 150.766 384.57C150.906 385.133 151.117 385.629 151.398 386.059C151.68 386.488 152.035 386.832 152.465 387.09C152.902 387.34 153.422 387.465 154.023 387.465C154.719 387.465 155.301 387.309 155.77 386.996C156.238 386.684 156.621 386.277 156.918 385.777V379.52C156.77 379.277 156.598 379.059 156.402 378.863C156.215 378.66 156 378.484 155.758 378.336C155.523 378.188 155.262 378.074 154.973 377.996C154.691 377.91 154.383 377.867 154.047 377.867C153.445 377.867 152.926 377.996 152.488 378.254C152.051 378.512 151.688 378.859 151.398 379.297C151.117 379.727 150.906 380.223 150.766 380.785C150.633 381.348 150.566 381.938 150.566 382.555V382.801ZM171.438 387.254C171.016 387.879 170.488 388.367 169.855 388.719C169.223 389.062 168.492 389.234 167.664 389.234C167 389.234 166.398 389.133 165.859 388.93C165.32 388.719 164.859 388.395 164.477 387.957C164.094 387.52 163.797 386.965 163.586 386.293C163.383 385.613 163.281 384.801 163.281 383.855V376.32H165.449V383.879C165.449 384.566 165.504 385.137 165.613 385.59C165.723 386.043 165.887 386.406 166.105 386.68C166.324 386.945 166.59 387.133 166.902 387.242C167.223 387.352 167.59 387.406 168.004 387.406C168.887 387.406 169.598 387.227 170.137 386.867C170.684 386.508 171.09 386.023 171.355 385.414V376.32H173.535V389H171.566L171.438 387.254ZM183.227 389.234C182.336 389.234 181.516 389.082 180.766 388.777C180.023 388.473 179.387 388.047 178.855 387.5C178.324 386.953 177.91 386.305 177.613 385.555C177.316 384.805 177.168 383.988 177.168 383.105V382.613C177.168 381.59 177.332 380.676 177.66 379.871C177.988 379.059 178.422 378.375 178.961 377.82C179.508 377.258 180.125 376.828 180.812 376.531C181.508 376.234 182.219 376.086 182.945 376.086C183.859 376.086 184.656 376.246 185.336 376.566C186.023 376.879 186.594 377.316 187.047 377.879C187.5 378.434 187.836 379.09 188.055 379.848C188.281 380.605 188.395 381.426 188.395 382.309V383.281H179.336C179.359 383.859 179.469 384.402 179.664 384.91C179.867 385.418 180.141 385.863 180.484 386.246C180.836 386.621 181.254 386.918 181.738 387.137C182.223 387.355 182.758 387.465 183.344 387.465C184.117 387.465 184.805 387.309 185.406 386.996C186.008 386.684 186.508 386.27 186.906 385.754L188.23 386.785C188.02 387.105 187.754 387.414 187.434 387.711C187.121 388 186.758 388.258 186.344 388.484C185.93 388.711 185.461 388.891 184.938 389.023C184.414 389.164 183.844 389.234 183.227 389.234ZM182.945 377.867C182.508 377.867 182.094 377.949 181.703 378.113C181.312 378.27 180.961 378.504 180.648 378.816C180.336 379.121 180.07 379.5 179.852 379.953C179.641 380.398 179.492 380.914 179.406 381.5H186.227V381.336C186.203 380.914 186.121 380.496 185.98 380.082C185.848 379.668 185.648 379.297 185.383 378.969C185.117 378.641 184.781 378.375 184.375 378.172C183.977 377.969 183.5 377.867 182.945 377.867ZM184 371.387H186.625L183.484 374.504H181.844L184 371.387ZM212.055 389.234C211.164 389.234 210.344 389.082 209.594 388.777C208.852 388.473 208.215 388.047 207.684 387.5C207.152 386.953 206.738 386.305 206.441 385.555C206.145 384.805 205.996 383.988 205.996 383.105V382.613C205.996 381.59 206.16 380.676 206.488 379.871C206.816 379.059 207.25 378.375 207.789 377.82C208.336 377.258 208.953 376.828 209.641 376.531C210.336 376.234 211.047 376.086 211.773 376.086C212.688 376.086 213.484 376.246 214.164 376.566C214.852 376.879 215.422 377.316 215.875 377.879C216.328 378.434 216.664 379.09 216.883 379.848C217.109 380.605 217.223 381.426 217.223 382.309V383.281H208.164C208.188 383.859 208.297 384.402 208.492 384.91C208.695 385.418 208.969 385.863 209.312 386.246C209.664 386.621 210.082 386.918 210.566 387.137C211.051 387.355 211.586 387.465 212.172 387.465C212.945 387.465 213.633 387.309 214.234 386.996C214.836 386.684 215.336 386.27 215.734 385.754L217.059 386.785C216.848 387.105 216.582 387.414 216.262 387.711C215.949 388 215.586 388.258 215.172 388.484C214.758 388.711 214.289 388.891 213.766 389.023C213.242 389.164 212.672 389.234 212.055 389.234ZM211.773 377.867C211.336 377.867 210.922 377.949 210.531 378.113C210.141 378.27 209.789 378.504 209.477 378.816C209.164 379.121 208.898 379.5 208.68 379.953C208.469 380.398 208.32 380.914 208.234 381.5H215.055V381.336C215.031 380.914 214.949 380.496 214.809 380.082C214.676 379.668 214.477 379.297 214.211 378.969C213.945 378.641 213.609 378.375 213.203 378.172C212.805 377.969 212.328 377.867 211.773 377.867ZM222.812 376.32L222.965 378.195C223.426 377.539 223.992 377.027 224.664 376.66C225.336 376.285 226.086 376.094 226.914 376.086C227.578 376.086 228.18 376.18 228.719 376.367C229.266 376.555 229.73 376.848 230.113 377.246C230.496 377.645 230.789 378.152 230.992 378.77C231.203 379.379 231.309 380.105 231.309 380.949V389H229.141V380.996C229.141 380.434 229.078 379.957 228.953 379.566C228.828 379.176 228.641 378.859 228.391 378.617C228.148 378.375 227.848 378.199 227.488 378.09C227.137 377.98 226.73 377.926 226.27 377.926C225.543 377.926 224.902 378.109 224.348 378.477C223.801 378.836 223.363 379.312 223.035 379.906V389H220.867V376.32H222.812ZM249.695 371.938H260.008V373.824H255.918V387.125H260.008V389H249.695V387.125H253.691V373.824H249.695V371.938ZM266.055 376.32L266.207 378.195C266.668 377.539 267.234 377.027 267.906 376.66C268.578 376.285 269.328 376.094 270.156 376.086C270.82 376.086 271.422 376.18 271.961 376.367C272.508 376.555 272.973 376.848 273.355 377.246C273.738 377.645 274.031 378.152 274.234 378.77C274.445 379.379 274.551 380.105 274.551 380.949V389H272.383V380.996C272.383 380.434 272.32 379.957 272.195 379.566C272.07 379.176 271.883 378.859 271.633 378.617C271.391 378.375 271.09 378.199 270.73 378.09C270.379 377.98 269.973 377.926 269.512 377.926C268.785 377.926 268.145 378.109 267.59 378.477C267.043 378.836 266.605 379.312 266.277 379.906V389H264.109V376.32H266.055ZM278.113 382.555C278.113 381.609 278.23 380.742 278.465 379.953C278.707 379.156 279.047 378.473 279.484 377.902C279.93 377.332 280.465 376.887 281.09 376.566C281.715 376.246 282.414 376.086 283.188 376.086C283.945 376.086 284.605 376.215 285.168 376.473C285.738 376.723 286.23 377.09 286.645 377.574V371H288.812V389H286.82L286.727 387.664C286.305 388.18 285.801 388.57 285.215 388.836C284.629 389.102 283.945 389.234 283.164 389.234C282.398 389.234 281.703 389.07 281.078 388.742C280.461 388.414 279.934 387.961 279.496 387.383C279.059 386.805 278.719 386.125 278.477 385.344C278.234 384.555 278.113 383.707 278.113 382.801V382.555ZM280.281 382.801C280.281 383.418 280.348 384.004 280.48 384.559C280.613 385.113 280.816 385.602 281.09 386.023C281.371 386.445 281.727 386.781 282.156 387.031C282.586 387.273 283.102 387.395 283.703 387.395C284.07 387.395 284.402 387.352 284.699 387.266C284.996 387.18 285.266 387.059 285.508 386.902C285.75 386.738 285.965 386.547 286.152 386.328C286.34 386.102 286.504 385.852 286.645 385.578V379.695C286.363 379.18 285.984 378.758 285.508 378.43C285.031 378.094 284.438 377.926 283.727 377.926C283.117 377.926 282.594 378.051 282.156 378.301C281.727 378.551 281.371 378.891 281.09 379.32C280.816 379.742 280.613 380.234 280.48 380.797C280.348 381.352 280.281 381.938 280.281 382.555V382.801ZM298.539 389.234C297.648 389.234 296.828 389.082 296.078 388.777C295.336 388.473 294.699 388.047 294.168 387.5C293.637 386.953 293.223 386.305 292.926 385.555C292.629 384.805 292.48 383.988 292.48 383.105V382.613C292.48 381.59 292.645 380.676 292.973 379.871C293.301 379.059 293.734 378.375 294.273 377.82C294.82 377.258 295.438 376.828 296.125 376.531C296.82 376.234 297.531 376.086 298.258 376.086C299.172 376.086 299.969 376.246 300.648 376.566C301.336 376.879 301.906 377.316 302.359 377.879C302.812 378.434 303.148 379.09 303.367 379.848C303.594 380.605 303.707 381.426 303.707 382.309V383.281H294.648C294.672 383.859 294.781 384.402 294.977 384.91C295.18 385.418 295.453 385.863 295.797 386.246C296.148 386.621 296.566 386.918 297.051 387.137C297.535 387.355 298.07 387.465 298.656 387.465C299.43 387.465 300.117 387.309 300.719 386.996C301.32 386.684 301.82 386.27 302.219 385.754L303.543 386.785C303.332 387.105 303.066 387.414 302.746 387.711C302.434 388 302.07 388.258 301.656 388.484C301.242 388.711 300.773 388.891 300.25 389.023C299.727 389.164 299.156 389.234 298.539 389.234ZM298.258 377.867C297.82 377.867 297.406 377.949 297.016 378.113C296.625 378.27 296.273 378.504 295.961 378.816C295.648 379.121 295.383 379.5 295.164 379.953C294.953 380.398 294.805 380.914 294.719 381.5H301.539V381.336C301.516 380.914 301.434 380.496 301.293 380.082C301.16 379.668 300.961 379.297 300.695 378.969C300.43 378.641 300.094 378.375 299.688 378.172C299.289 377.969 298.812 377.867 298.258 377.867ZM100.727 399.938L103.504 408.469L106.504 399.938H109.199V417H107.09V410.191L107.266 403.066L104.113 412.254H102.871L99.9766 403.312L100.152 410.191V417H98.043V399.938H100.727ZM121.094 417C121.008 416.836 120.938 416.633 120.883 416.391C120.836 416.141 120.801 415.883 120.777 415.617C120.559 415.836 120.312 416.043 120.039 416.238C119.773 416.434 119.477 416.605 119.148 416.754C118.828 416.902 118.484 417.02 118.117 417.105C117.75 417.191 117.359 417.234 116.945 417.234C116.273 417.234 115.664 417.137 115.117 416.941C114.578 416.746 114.117 416.484 113.734 416.156C113.359 415.82 113.066 415.426 112.855 414.973C112.652 414.512 112.551 414.016 112.551 413.484C112.551 412.789 112.688 412.18 112.961 411.656C113.242 411.133 113.637 410.699 114.145 410.355C114.652 410.004 115.262 409.742 115.973 409.57C116.691 409.398 117.492 409.312 118.375 409.312H120.742V408.316C120.742 407.934 120.672 407.59 120.531 407.285C120.391 406.98 120.191 406.723 119.934 406.512C119.676 406.293 119.359 406.125 118.984 406.008C118.617 405.891 118.203 405.832 117.742 405.832C117.312 405.832 116.926 405.887 116.582 405.996C116.246 406.105 115.961 406.25 115.727 406.43C115.492 406.609 115.309 406.824 115.176 407.074C115.051 407.316 114.988 407.57 114.988 407.836H112.809C112.816 407.375 112.934 406.922 113.16 406.477C113.395 406.031 113.727 405.633 114.156 405.281C114.594 404.922 115.121 404.633 115.738 404.414C116.363 404.195 117.07 404.086 117.859 404.086C118.578 404.086 119.246 404.176 119.863 404.355C120.48 404.527 121.012 404.793 121.457 405.152C121.91 405.504 122.266 405.945 122.523 406.477C122.781 407.008 122.91 407.629 122.91 408.34V414.234C122.91 414.656 122.949 415.105 123.027 415.582C123.105 416.051 123.215 416.461 123.355 416.812V417H121.094ZM117.262 415.348C117.684 415.348 118.078 415.293 118.445 415.184C118.812 415.074 119.145 414.93 119.441 414.75C119.746 414.57 120.008 414.367 120.227 414.141C120.445 413.906 120.617 413.664 120.742 413.414V410.848H118.727C117.461 410.848 116.477 411.035 115.773 411.41C115.07 411.785 114.719 412.375 114.719 413.18C114.719 413.492 114.77 413.781 114.871 414.047C114.98 414.312 115.141 414.543 115.352 414.738C115.562 414.926 115.828 415.074 116.148 415.184C116.469 415.293 116.84 415.348 117.262 415.348ZM126.766 410.555C126.766 409.609 126.883 408.742 127.117 407.953C127.359 407.156 127.699 406.473 128.137 405.902C128.582 405.332 129.117 404.887 129.742 404.566C130.367 404.246 131.066 404.086 131.84 404.086C132.598 404.086 133.258 404.215 133.82 404.473C134.391 404.723 134.883 405.09 135.297 405.574V399H137.465V417H135.473L135.379 415.664C134.957 416.18 134.453 416.57 133.867 416.836C133.281 417.102 132.598 417.234 131.816 417.234C131.051 417.234 130.355 417.07 129.73 416.742C129.113 416.414 128.586 415.961 128.148 415.383C127.711 414.805 127.371 414.125 127.129 413.344C126.887 412.555 126.766 411.707 126.766 410.801V410.555ZM128.934 410.801C128.934 411.418 129 412.004 129.133 412.559C129.266 413.113 129.469 413.602 129.742 414.023C130.023 414.445 130.379 414.781 130.809 415.031C131.238 415.273 131.754 415.395 132.355 415.395C132.723 415.395 133.055 415.352 133.352 415.266C133.648 415.18 133.918 415.059 134.16 414.902C134.402 414.738 134.617 414.547 134.805 414.328C134.992 414.102 135.156 413.852 135.297 413.578V407.695C135.016 407.18 134.637 406.758 134.16 406.43C133.684 406.094 133.09 405.926 132.379 405.926C131.77 405.926 131.246 406.051 130.809 406.301C130.379 406.551 130.023 406.891 129.742 407.32C129.469 407.742 129.266 408.234 129.133 408.797C129 409.352 128.934 409.938 128.934 410.555V410.801ZM147.191 417.234C146.301 417.234 145.48 417.082 144.73 416.777C143.988 416.473 143.352 416.047 142.82 415.5C142.289 414.953 141.875 414.305 141.578 413.555C141.281 412.805 141.133 411.988 141.133 411.105V410.613C141.133 409.59 141.297 408.676 141.625 407.871C141.953 407.059 142.387 406.375 142.926 405.82C143.473 405.258 144.09 404.828 144.777 404.531C145.473 404.234 146.184 404.086 146.91 404.086C147.824 404.086 148.621 404.246 149.301 404.566C149.988 404.879 150.559 405.316 151.012 405.879C151.465 406.434 151.801 407.09 152.02 407.848C152.246 408.605 152.359 409.426 152.359 410.309V411.281H143.301C143.324 411.859 143.434 412.402 143.629 412.91C143.832 413.418 144.105 413.863 144.449 414.246C144.801 414.621 145.219 414.918 145.703 415.137C146.188 415.355 146.723 415.465 147.309 415.465C148.082 415.465 148.77 415.309 149.371 414.996C149.973 414.684 150.473 414.27 150.871 413.754L152.195 414.785C151.984 415.105 151.719 415.414 151.398 415.711C151.086 416 150.723 416.258 150.309 416.484C149.895 416.711 149.426 416.891 148.902 417.023C148.379 417.164 147.809 417.234 147.191 417.234ZM146.91 405.867C146.473 405.867 146.059 405.949 145.668 406.113C145.277 406.27 144.926 406.504 144.613 406.816C144.301 407.121 144.035 407.5 143.816 407.953C143.605 408.398 143.457 408.914 143.371 409.5H150.191V409.336C150.168 408.914 150.086 408.496 149.945 408.082C149.812 407.668 149.613 407.297 149.348 406.969C149.082 406.641 148.746 406.375 148.34 406.172C147.941 405.969 147.465 405.867 146.91 405.867ZM170.758 404.32H177.238V415.125H181.375V417H170.758V415.125H175.07V406.207H170.758V404.32ZM174.789 400.992C174.789 400.633 174.895 400.332 175.105 400.09C175.324 399.84 175.652 399.715 176.09 399.715C176.52 399.715 176.844 399.84 177.062 400.09C177.281 400.332 177.391 400.633 177.391 400.992C177.391 401.344 177.281 401.637 177.062 401.871C176.844 402.105 176.52 402.223 176.09 402.223C175.652 402.223 175.324 402.105 175.105 401.871C174.895 401.637 174.789 401.344 174.789 400.992ZM186.777 404.32L186.93 406.195C187.391 405.539 187.957 405.027 188.629 404.66C189.301 404.285 190.051 404.094 190.879 404.086C191.543 404.086 192.145 404.18 192.684 404.367C193.23 404.555 193.695 404.848 194.078 405.246C194.461 405.645 194.754 406.152 194.957 406.77C195.168 407.379 195.273 408.105 195.273 408.949V417H193.105V408.996C193.105 408.434 193.043 407.957 192.918 407.566C192.793 407.176 192.605 406.859 192.355 406.617C192.113 406.375 191.812 406.199 191.453 406.09C191.102 405.98 190.695 405.926 190.234 405.926C189.508 405.926 188.867 406.109 188.312 406.477C187.766 406.836 187.328 407.312 187 407.906V417H184.832V404.32H186.777ZM213.66 399.938H223.973V401.824H219.883V415.125H223.973V417H213.66V415.125H217.656V401.824H213.66V399.938ZM230.02 404.32L230.172 406.195C230.633 405.539 231.199 405.027 231.871 404.66C232.543 404.285 233.293 404.094 234.121 404.086C234.785 404.086 235.387 404.18 235.926 404.367C236.473 404.555 236.938 404.848 237.32 405.246C237.703 405.645 237.996 406.152 238.199 406.77C238.41 407.379 238.516 408.105 238.516 408.949V417H236.348V408.996C236.348 408.434 236.285 407.957 236.16 407.566C236.035 407.176 235.848 406.859 235.598 406.617C235.355 406.375 235.055 406.199 234.695 406.09C234.344 405.98 233.938 405.926 233.477 405.926C232.75 405.926 232.109 406.109 231.555 406.477C231.008 406.836 230.57 407.312 230.242 407.906V417H228.074V404.32H230.02ZM242.078 410.555C242.078 409.609 242.195 408.742 242.43 407.953C242.672 407.156 243.012 406.473 243.449 405.902C243.895 405.332 244.43 404.887 245.055 404.566C245.68 404.246 246.379 404.086 247.152 404.086C247.91 404.086 248.57 404.215 249.133 404.473C249.703 404.723 250.195 405.09 250.609 405.574V399H252.777V417H250.785L250.691 415.664C250.27 416.18 249.766 416.57 249.18 416.836C248.594 417.102 247.91 417.234 247.129 417.234C246.363 417.234 245.668 417.07 245.043 416.742C244.426 416.414 243.898 415.961 243.461 415.383C243.023 414.805 242.684 414.125 242.441 413.344C242.199 412.555 242.078 411.707 242.078 410.801V410.555ZM244.246 410.801C244.246 411.418 244.312 412.004 244.445 412.559C244.578 413.113 244.781 413.602 245.055 414.023C245.336 414.445 245.691 414.781 246.121 415.031C246.551 415.273 247.066 415.395 247.668 415.395C248.035 415.395 248.367 415.352 248.664 415.266C248.961 415.18 249.23 415.059 249.473 414.902C249.715 414.738 249.93 414.547 250.117 414.328C250.305 414.102 250.469 413.852 250.609 413.578V407.695C250.328 407.18 249.949 406.758 249.473 406.43C248.996 406.094 248.402 405.926 247.691 405.926C247.082 405.926 246.559 406.051 246.121 406.301C245.691 406.551 245.336 406.891 245.055 407.32C244.781 407.742 244.578 408.234 244.445 408.797C244.312 409.352 244.246 409.938 244.246 410.555V410.801ZM257.242 404.32H263.723V415.125H267.859V417H257.242V415.125H261.555V406.207H257.242V404.32ZM261.273 400.992C261.273 400.633 261.379 400.332 261.59 400.09C261.809 399.84 262.137 399.715 262.574 399.715C263.004 399.715 263.328 399.84 263.547 400.09C263.766 400.332 263.875 400.633 263.875 400.992C263.875 401.344 263.766 401.637 263.547 401.871C263.328 402.105 263.004 402.223 262.574 402.223C262.137 402.223 261.809 402.105 261.59 401.871C261.379 401.637 261.273 401.344 261.273 400.992ZM279.648 417C279.562 416.836 279.492 416.633 279.438 416.391C279.391 416.141 279.355 415.883 279.332 415.617C279.113 415.836 278.867 416.043 278.594 416.238C278.328 416.434 278.031 416.605 277.703 416.754C277.383 416.902 277.039 417.02 276.672 417.105C276.305 417.191 275.914 417.234 275.5 417.234C274.828 417.234 274.219 417.137 273.672 416.941C273.133 416.746 272.672 416.484 272.289 416.156C271.914 415.82 271.621 415.426 271.41 414.973C271.207 414.512 271.105 414.016 271.105 413.484C271.105 412.789 271.242 412.18 271.516 411.656C271.797 411.133 272.191 410.699 272.699 410.355C273.207 410.004 273.816 409.742 274.527 409.57C275.246 409.398 276.047 409.312 276.93 409.312H279.297V408.316C279.297 407.934 279.227 407.59 279.086 407.285C278.945 406.98 278.746 406.723 278.488 406.512C278.23 406.293 277.914 406.125 277.539 406.008C277.172 405.891 276.758 405.832 276.297 405.832C275.867 405.832 275.48 405.887 275.137 405.996C274.801 406.105 274.516 406.25 274.281 406.43C274.047 406.609 273.863 406.824 273.73 407.074C273.605 407.316 273.543 407.57 273.543 407.836H271.363C271.371 407.375 271.488 406.922 271.715 406.477C271.949 406.031 272.281 405.633 272.711 405.281C273.148 404.922 273.676 404.633 274.293 404.414C274.918 404.195 275.625 404.086 276.414 404.086C277.133 404.086 277.801 404.176 278.418 404.355C279.035 404.527 279.566 404.793 280.012 405.152C280.465 405.504 280.82 405.945 281.078 406.477C281.336 407.008 281.465 407.629 281.465 408.34V414.234C281.465 414.656 281.504 415.105 281.582 415.582C281.66 416.051 281.77 416.461 281.91 416.812V417H279.648ZM275.816 415.348C276.238 415.348 276.633 415.293 277 415.184C277.367 415.074 277.699 414.93 277.996 414.75C278.301 414.57 278.562 414.367 278.781 414.141C279 413.906 279.172 413.664 279.297 413.414V410.848H277.281C276.016 410.848 275.031 411.035 274.328 411.41C273.625 411.785 273.273 412.375 273.273 413.18C273.273 413.492 273.324 413.781 273.426 414.047C273.535 414.312 273.695 414.543 273.906 414.738C274.117 414.926 274.383 415.074 274.703 415.184C275.023 415.293 275.395 415.348 275.816 415.348Z" fill="black"/>
<defs>
<filter id="filter0_d" x="0" y="0" width="363" height="491" filterUnits="userSpaceOnUse" color-interpolation-filters="sRGB">
<feFlood flood-opacity="0" result="BackgroundImageFix"/>
<feColorMatrix in="SourceAlpha" type="matrix" values="0 0 0 0 0 0 0 0 0 0 0 0 0 0 0 0 0 0 127 0"/>
<feOffset dy="4"/>
<feGaussianBlur stdDeviation="2"/>
<feColorMatrix type="matrix" values="0 0 0 0 0 0 0 0 0 0 0 0 0 0 0 0 0 0 0.25 0"/>
<feBlend mode="normal" in2="BackgroundImageFix" result="effect1_dropShadow"/>
<feBlend mode="normal" in="SourceGraphic" in2="effect1_dropShadow" result="shape"/>
</filter>
</defs>
</svg>
