<svg width="200" height="200" viewBox="0 0 363 340" fill="none" xmlns="http://www.w3.org/2000/svg">
<path d="M360.5 170C360.5 262.356 280.516 337.5 181.5 337.5C82.4844 337.5 2.5 262.356 2.5 170C2.5 77.6439 82.4844 2.5 181.5 2.5C280.516 2.5 360.5 77.6439 360.5 170Z" fill="white" stroke="#B8DBB7" stroke-width="5"/>
<path d="M139.094 186H133.625V164.969H114.969V186H109.531V140.5H114.969V160.062H133.625V140.5H139.094V186ZM178.594 165.875C178.573 167.5 178.427 169.146 178.156 170.812C177.906 172.458 177.51 174.052 176.969 175.594C176.427 177.135 175.729 178.573 174.875 179.906C174.042 181.24 173.042 182.406 171.875 183.406C170.708 184.406 169.365 185.198 167.844 185.781C166.344 186.344 164.656 186.625 162.781 186.625C160.906 186.625 159.208 186.344 157.688 185.781C156.188 185.198 154.854 184.406 153.688 183.406C152.521 182.406 151.51 181.24 150.656 179.906C149.802 178.552 149.094 177.104 148.531 175.562C147.99 174.021 147.583 172.427 147.312 170.781C147.042 169.135 146.896 167.5 146.875 165.875V160.688C146.896 159.062 147.031 157.427 147.281 155.781C147.552 154.115 147.958 152.51 148.5 150.969C149.062 149.427 149.76 147.99 150.594 146.656C151.448 145.302 152.458 144.125 153.625 143.125C154.792 142.104 156.125 141.312 157.625 140.75C159.146 140.167 160.844 139.875 162.719 139.875C164.594 139.875 166.292 140.167 167.812 140.75C169.333 141.312 170.677 142.094 171.844 143.094C173.01 144.094 174.01 145.271 174.844 146.625C175.698 147.958 176.396 149.396 176.938 150.938C177.5 152.479 177.906 154.083 178.156 155.75C178.427 157.417 178.573 159.062 178.594 160.688V165.875ZM172.875 160.625C172.854 159.542 172.781 158.417 172.656 157.25C172.531 156.062 172.312 154.896 172 153.75C171.708 152.583 171.312 151.479 170.812 150.438C170.312 149.375 169.688 148.448 168.938 147.656C168.188 146.844 167.302 146.208 166.281 145.75C165.26 145.271 164.073 145.031 162.719 145.031C161.385 145.031 160.208 145.271 159.188 145.75C158.167 146.229 157.281 146.875 156.531 147.688C155.781 148.479 155.156 149.406 154.656 150.469C154.156 151.51 153.75 152.615 153.438 153.781C153.146 154.927 152.927 156.094 152.781 157.281C152.656 158.448 152.583 159.562 152.562 160.625V165.875C152.583 166.938 152.656 168.062 152.781 169.25C152.927 170.438 153.156 171.615 153.469 172.781C153.781 173.927 154.188 175.031 154.688 176.094C155.188 177.156 155.812 178.094 156.562 178.906C157.312 179.698 158.198 180.333 159.219 180.812C160.24 181.292 161.427 181.531 162.781 181.531C164.135 181.531 165.323 181.292 166.344 180.812C167.385 180.333 168.271 179.698 169 178.906C169.75 178.094 170.365 177.167 170.844 176.125C171.344 175.062 171.74 173.958 172.031 172.812C172.344 171.646 172.552 170.469 172.656 169.281C172.781 168.094 172.854 166.958 172.875 165.875V160.625ZM193.781 140.5L201.188 163.25L209.188 140.5H216.375V186H210.75V167.844L211.219 148.844L202.812 173.344H199.5L191.781 149.5L192.25 167.844V186H186.625V140.5H193.781ZM250.906 164.969H231.906V181.094H254.062V186H226.125V140.5H253.781V145.438H231.906V160.062H250.906V164.969Z" fill="#B8DBB7"/>
</svg>
