<svg width="200" height="200" viewBox="0 0 351 291" fill="none" xmlns="http://www.w3.org/2000/svg">
<rect x="5" y="5" width="341" height="281" fill="white" stroke="black" stroke-width="10"/>
<path d="M183.938 107.219H168.75L165.094 119H159.312L174 73.5H178.844L193.281 119H187.531L183.938 107.219ZM170.312 102.188H182.406L176.406 82.4375L170.312 102.188ZM178.969 70.2188H174.281L166.531 61.9062H173.5L178.969 70.2188ZM72.4375 175.75V194H66.6562V148.5H81.4062C83.4479 148.542 85.375 148.865 87.1875 149.469C89.0208 150.073 90.625 150.948 92 152.094C93.375 153.24 94.4583 154.656 95.25 156.344C96.0625 158.031 96.4688 159.969 96.4688 162.156C96.4688 164.344 96.0625 166.281 95.25 167.969C94.4583 169.635 93.375 171.042 92 172.188C90.625 173.333 89.0208 174.208 87.1875 174.812C85.375 175.417 83.4479 175.729 81.4062 175.75H72.4375ZM72.4375 171H81.4062C82.7396 170.979 83.9688 170.771 85.0938 170.375C86.2188 169.958 87.1979 169.375 88.0312 168.625C88.8646 167.875 89.5104 166.969 89.9688 165.906C90.4479 164.823 90.6875 163.594 90.6875 162.219C90.6875 160.844 90.4479 159.604 89.9688 158.5C89.5104 157.396 88.8646 156.458 88.0312 155.688C87.2188 154.917 86.2396 154.323 85.0938 153.906C83.9688 153.49 82.7396 153.271 81.4062 153.25H72.4375V171ZM119.625 175.438H110.531V194H104.781V148.5H118.125C120.25 148.542 122.25 148.844 124.125 149.406C126 149.969 127.635 150.812 129.031 151.938C130.448 153.062 131.552 154.479 132.344 156.188C133.156 157.875 133.562 159.865 133.562 162.156C133.562 163.635 133.344 164.99 132.906 166.219C132.49 167.448 131.906 168.562 131.156 169.562C130.406 170.562 129.51 171.448 128.469 172.219C127.427 172.99 126.281 173.646 125.031 174.188L134.688 193.625L134.656 194H128.562L119.625 175.438ZM110.531 170.688H118.281C119.573 170.667 120.792 170.469 121.938 170.094C123.083 169.698 124.083 169.135 124.938 168.406C125.812 167.677 126.5 166.792 127 165.75C127.5 164.688 127.75 163.469 127.75 162.094C127.75 160.635 127.51 159.365 127.031 158.281C126.552 157.177 125.885 156.26 125.031 155.531C124.177 154.781 123.156 154.219 121.969 153.844C120.802 153.469 119.521 153.271 118.125 153.25H110.531V170.688ZM172.594 173.875C172.573 175.5 172.427 177.146 172.156 178.812C171.906 180.458 171.51 182.052 170.969 183.594C170.427 185.135 169.729 186.573 168.875 187.906C168.042 189.24 167.042 190.406 165.875 191.406C164.708 192.406 163.365 193.198 161.844 193.781C160.344 194.344 158.656 194.625 156.781 194.625C154.906 194.625 153.208 194.344 151.688 193.781C150.188 193.198 148.854 192.406 147.688 191.406C146.521 190.406 145.51 189.24 144.656 187.906C143.802 186.552 143.094 185.104 142.531 183.562C141.99 182.021 141.583 180.427 141.312 178.781C141.042 177.135 140.896 175.5 140.875 173.875V168.688C140.896 167.062 141.031 165.427 141.281 163.781C141.552 162.115 141.958 160.51 142.5 158.969C143.062 157.427 143.76 155.99 144.594 154.656C145.448 153.302 146.458 152.125 147.625 151.125C148.792 150.104 150.125 149.312 151.625 148.75C153.146 148.167 154.844 147.875 156.719 147.875C158.594 147.875 160.292 148.167 161.812 148.75C163.333 149.312 164.677 150.094 165.844 151.094C167.01 152.094 168.01 153.271 168.844 154.625C169.698 155.958 170.396 157.396 170.938 158.938C171.5 160.479 171.906 162.083 172.156 163.75C172.427 165.417 172.573 167.062 172.594 168.688V173.875ZM166.875 168.625C166.854 167.542 166.781 166.417 166.656 165.25C166.531 164.062 166.312 162.896 166 161.75C165.708 160.583 165.312 159.479 164.812 158.438C164.312 157.375 163.688 156.448 162.938 155.656C162.188 154.844 161.302 154.208 160.281 153.75C159.26 153.271 158.073 153.031 156.719 153.031C155.385 153.031 154.208 153.271 153.188 153.75C152.167 154.229 151.281 154.875 150.531 155.688C149.781 156.479 149.156 157.406 148.656 158.469C148.156 159.51 147.75 160.615 147.438 161.781C147.146 162.927 146.927 164.094 146.781 165.281C146.656 166.448 146.583 167.562 146.562 168.625V173.875C146.583 174.938 146.656 176.062 146.781 177.25C146.927 178.438 147.156 179.615 147.469 180.781C147.781 181.927 148.188 183.031 148.688 184.094C149.188 185.156 149.812 186.094 150.562 186.906C151.312 187.698 152.198 188.333 153.219 188.812C154.24 189.292 155.427 189.531 156.781 189.531C158.135 189.531 159.323 189.292 160.344 188.812C161.385 188.333 162.271 187.698 163 186.906C163.75 186.094 164.365 185.167 164.844 184.125C165.344 183.062 165.74 181.958 166.031 180.812C166.344 179.646 166.552 178.469 166.656 177.281C166.781 176.094 166.854 174.958 166.875 173.875V168.625ZM187.75 175.75V194H181.969V148.5H196.719C198.76 148.542 200.688 148.865 202.5 149.469C204.333 150.073 205.938 150.948 207.312 152.094C208.688 153.24 209.771 154.656 210.562 156.344C211.375 158.031 211.781 159.969 211.781 162.156C211.781 164.344 211.375 166.281 210.562 167.969C209.771 169.635 208.688 171.042 207.312 172.188C205.938 173.333 204.333 174.208 202.5 174.812C200.688 175.417 198.76 175.729 196.719 175.75H187.75ZM187.75 171H196.719C198.052 170.979 199.281 170.771 200.406 170.375C201.531 169.958 202.51 169.375 203.344 168.625C204.177 167.875 204.823 166.969 205.281 165.906C205.76 164.823 206 163.594 206 162.219C206 160.844 205.76 159.604 205.281 158.5C204.823 157.396 204.177 156.458 203.344 155.688C202.531 154.917 201.552 154.323 200.406 153.906C199.281 153.49 198.052 153.271 196.719 153.25H187.75V171ZM249.469 173.875C249.448 175.5 249.302 177.146 249.031 178.812C248.781 180.458 248.385 182.052 247.844 183.594C247.302 185.135 246.604 186.573 245.75 187.906C244.917 189.24 243.917 190.406 242.75 191.406C241.583 192.406 240.24 193.198 238.719 193.781C237.219 194.344 235.531 194.625 233.656 194.625C231.781 194.625 230.083 194.344 228.562 193.781C227.062 193.198 225.729 192.406 224.562 191.406C223.396 190.406 222.385 189.24 221.531 187.906C220.677 186.552 219.969 185.104 219.406 183.562C218.865 182.021 218.458 180.427 218.188 178.781C217.917 177.135 217.771 175.5 217.75 173.875V168.688C217.771 167.062 217.906 165.427 218.156 163.781C218.427 162.115 218.833 160.51 219.375 158.969C219.938 157.427 220.635 155.99 221.469 154.656C222.323 153.302 223.333 152.125 224.5 151.125C225.667 150.104 227 149.312 228.5 148.75C230.021 148.167 231.719 147.875 233.594 147.875C235.469 147.875 237.167 148.167 238.688 148.75C240.208 149.312 241.552 150.094 242.719 151.094C243.885 152.094 244.885 153.271 245.719 154.625C246.573 155.958 247.271 157.396 247.812 158.938C248.375 160.479 248.781 162.083 249.031 163.75C249.302 165.417 249.448 167.062 249.469 168.688V173.875ZM243.75 168.625C243.729 167.542 243.656 166.417 243.531 165.25C243.406 164.062 243.188 162.896 242.875 161.75C242.583 160.583 242.188 159.479 241.688 158.438C241.188 157.375 240.562 156.448 239.812 155.656C239.062 154.844 238.177 154.208 237.156 153.75C236.135 153.271 234.948 153.031 233.594 153.031C232.26 153.031 231.083 153.271 230.062 153.75C229.042 154.229 228.156 154.875 227.406 155.688C226.656 156.479 226.031 157.406 225.531 158.469C225.031 159.51 224.625 160.615 224.312 161.781C224.021 162.927 223.802 164.094 223.656 165.281C223.531 166.448 223.458 167.562 223.438 168.625V173.875C223.458 174.938 223.531 176.062 223.656 177.25C223.802 178.438 224.031 179.615 224.344 180.781C224.656 181.927 225.062 183.031 225.562 184.094C226.062 185.156 226.688 186.094 227.438 186.906C228.188 187.698 229.073 188.333 230.094 188.812C231.115 189.292 232.302 189.531 233.656 189.531C235.01 189.531 236.198 189.292 237.219 188.812C238.26 188.333 239.146 187.698 239.875 186.906C240.625 186.094 241.24 185.167 241.719 184.125C242.219 183.062 242.615 181.958 242.906 180.812C243.219 179.646 243.427 178.469 243.531 177.281C243.656 176.094 243.729 174.958 243.75 173.875V168.625ZM282.125 182.5C282.125 181.104 281.802 179.927 281.156 178.969C280.531 178.01 279.719 177.208 278.719 176.562C277.719 175.896 276.615 175.344 275.406 174.906C274.219 174.469 273.073 174.073 271.969 173.719C270.365 173.198 268.729 172.573 267.062 171.844C265.417 171.115 263.906 170.219 262.531 169.156C261.177 168.094 260.062 166.844 259.188 165.406C258.333 163.948 257.906 162.24 257.906 160.281C257.906 158.323 258.333 156.573 259.188 155.031C260.062 153.49 261.198 152.188 262.594 151.125C263.99 150.062 265.573 149.26 267.344 148.719C269.115 148.156 270.896 147.875 272.688 147.875C274.667 147.875 276.573 148.208 278.406 148.875C280.24 149.521 281.865 150.438 283.281 151.625C284.698 152.812 285.833 154.25 286.688 155.938C287.542 157.625 287.99 159.51 288.031 161.594H282.094C281.927 160.281 281.604 159.094 281.125 158.031C280.646 156.948 280.01 156.021 279.219 155.25C278.427 154.479 277.479 153.885 276.375 153.469C275.292 153.031 274.062 152.812 272.688 152.812C271.583 152.812 270.5 152.969 269.438 153.281C268.396 153.594 267.458 154.062 266.625 154.688C265.812 155.312 265.156 156.083 264.656 157C264.177 157.917 263.938 158.979 263.938 160.188C263.958 161.5 264.292 162.615 264.938 163.531C265.583 164.427 266.396 165.188 267.375 165.812C268.375 166.438 269.448 166.958 270.594 167.375C271.76 167.792 272.854 168.156 273.875 168.469C275 168.823 276.135 169.229 277.281 169.688C278.427 170.125 279.531 170.635 280.594 171.219C281.656 171.802 282.646 172.458 283.562 173.188C284.479 173.917 285.281 174.75 285.969 175.688C286.656 176.604 287.188 177.625 287.562 178.75C287.958 179.854 288.156 181.083 288.156 182.438C288.156 184.479 287.698 186.26 286.781 187.781C285.885 189.302 284.719 190.573 283.281 191.594C281.844 192.594 280.219 193.354 278.406 193.875C276.594 194.375 274.781 194.625 272.969 194.625C270.948 194.625 268.969 194.312 267.031 193.688C265.094 193.062 263.354 192.167 261.812 191C260.292 189.812 259.052 188.375 258.094 186.688C257.135 184.979 256.625 183.042 256.562 180.875H262.469C262.656 182.292 263.042 183.552 263.625 184.656C264.208 185.74 264.958 186.667 265.875 187.438C266.792 188.188 267.844 188.76 269.031 189.156C270.24 189.531 271.552 189.719 272.969 189.719C274.094 189.719 275.198 189.583 276.281 189.312C277.385 189.021 278.365 188.583 279.219 188C280.073 187.396 280.771 186.646 281.312 185.75C281.854 184.833 282.125 183.75 282.125 182.5Z" fill="black"/>
</svg>
